<svg xmlns="http://www.w3.org/2000/svg" xmlns:xlink="http://www.w3.org/1999/xlink" contentStyleType="text/css" height="300px" preserveAspectRatio="none" style="width:274px;height:300px;background:#FFFFFF;" version="1.1" viewBox="0 0 274 300" width="274px" zoomAndPan="magnify"><defs/><g><g id="elem_Sheet"><rect fill="#F1F1F1" height="60.8906" style="stroke:#181818;stroke-width:0.5;" width="163" x="7" y="7"/><text fill="#000000" font-family="sans-serif" font-size="14" lengthAdjust="spacing" textLength="41" x="68" y="21.9951">Sheet</text><line style="stroke:#181818;stroke-width:0.5;" x1="8" x2="169" y1="27.2969" y2="27.2969"/><text fill="#000000" font-family="sans-serif" font-size="14" lengthAdjust="spacing" textLength="151" x="13" y="44.292">Hoja de calculo 10x10</text><text fill="#000000" font-family="sans-serif" font-size="14" lengthAdjust="spacing" textLength="101" x="13" y="60.5889">Current cell 29</text></g><g id="elem_Cell"><rect fill="#F1F1F1" height="44.5938" style="stroke:#181818;stroke-width:0.5;" width="62" x="205.5" y="15.15"/><text fill="#000000" font-family="sans-serif" font-size="14" lengthAdjust="spacing" textLength="25" x="224" y="30.1451">Cell</text><line style="stroke:#181818;stroke-width:0.5;" x1="206.5" x2="266.5" y1="35.4469" y2="35.4469"/><text fill="#000000" font-family="sans-serif" font-size="14" lengthAdjust="spacing" textLength="50" x="211.5" y="52.442">Manolo</text></g><g id="elem_Navigator"><rect fill="#F1F1F1" height="44.5938" style="stroke:#181818;stroke-width:0.5;" width="78" x="49.5" y="127.9"/><text fill="#000000" font-family="sans-serif" font-size="14" lengthAdjust="spacing" textLength="64" x="56.5" y="142.8951">Navigator</text><line style="stroke:#181818;stroke-width:0.5;" x1="50.5" x2="126.5" y1="148.1969" y2="148.1969"/><text fill="#000000" font-family="sans-serif" font-size="14" lengthAdjust="spacing" textLength="59" x="55.5" y="165.192">Derecha</text></g><g id="elem_Sheet2"><rect fill="#F1F1F1" height="60.8906" style="stroke:#181818;stroke-width:0.5;" width="163" x="7" y="232.49"/><text fill="#000000" font-family="sans-serif" font-size="14" lengthAdjust="spacing" textLength="50" x="63.5" y="247.4851">Sheet2</text><line style="stroke:#181818;stroke-width:0.5;" x1="8" x2="169" y1="252.7869" y2="252.7869"/><text fill="#000000" font-family="sans-serif" font-size="14" lengthAdjust="spacing" textLength="151" x="13" y="269.782">Hoja de calculo 10x10</text><text fill="#000000" font-family="sans-serif" font-size="14" lengthAdjust="spacing" textLength="101" x="13" y="286.0789">Current cell 30</text></g><g id="elem_Cell2"><rect fill="#F1F1F1" height="44.5938" style="stroke:#181818;stroke-width:0.5;" width="48" x="205.5" y="240.64"/><text fill="#000000" font-family="sans-serif" font-size="14" lengthAdjust="spacing" textLength="34" x="212.5" y="255.6351">Cell2</text><line style="stroke:#181818;stroke-width:0.5;" x1="206.5" x2="252.5" y1="260.9369" y2="260.9369"/><text fill="#000000" font-family="sans-serif" font-size="14" lengthAdjust="spacing" textLength="29" x="211.5" y="277.932">Juan</text></g><!--link Sheet to Cell--><g id="link_Sheet_Cell"><path codeLine="23" d="M170.3,37.45 C181.94,37.45 187.58,37.45 199.21,37.45 " fill="none" id="Sheet-to-Cell" style="stroke:#181818;stroke-width:1.0;"/><polygon fill="#181818" points="205.21,37.45,196.21,33.45,200.21,37.45,196.21,41.45,205.21,37.45" style="stroke:#181818;stroke-width:1.0;"/></g><!--link Sheet to Navigator--><g id="link_Sheet_Navigator"><path codeLine="24" d="M88.5,68.13 C88.5,86.84 88.5,104.57 88.5,121.52 " fill="none" id="Sheet-to-Navigator" style="stroke:#181818;stroke-width:1.0;"/><polygon fill="#181818" points="88.5,127.52,92.5,118.52,88.5,122.52,84.5,118.52,88.5,127.52" style="stroke:#181818;stroke-width:1.0;"/></g><!--link Navigator to Sheet2--><g id="link_Navigator_Sheet2"><path codeLine="25" d="M88.5,172.81 C88.5,189.68 88.5,207.31 88.5,226 " fill="none" id="Navigator-to-Sheet2" style="stroke:#181818;stroke-width:1.0;"/><polygon fill="#181818" points="88.5,232,92.5,223,88.5,227,84.5,223,88.5,232" style="stroke:#181818;stroke-width:1.0;"/></g><!--link Sheet2 to Cell2--><g id="link_Sheet2_Cell2"><path codeLine="26" d="M170.29,262.93 C182.01,262.93 187.73,262.93 199.45,262.93 " fill="none" id="Sheet2-to-Cell2" style="stroke:#181818;stroke-width:1.0;"/><polygon fill="#181818" points="205.45,262.93,196.45,258.93,200.45,262.93,196.45,266.93,205.45,262.93" style="stroke:#181818;stroke-width:1.0;"/></g><!--SRC=[oq_AIaqkKGZEI4qjKQZcKW02Z_oiH8MKL8Nan9paqfny1KE32aC3i8npQL5HQbw9Gd9gJew2aILNBHTNFaI_CqW4ejqtCIy_9nz9pY-nB3CziII_2Ah09RKeDJaZ4Ka5s7OZacmtDa2p7QhTgpGn3oG3yP1kKMPwHeck7LW5J0p8XJk92-4ua3Z48H25HgYwZG00]--></g></svg>