<?xml version="1.0" encoding="us-ascii" standalone="no"?><svg xmlns="http://www.w3.org/2000/svg" xmlns:xlink="http://www.w3.org/1999/xlink" contentStyleType="text/css" height="369px" preserveAspectRatio="none" style="width:294px;height:369px;background:#FFFFFF;" version="1.1" viewBox="0 0 294 369" width="294px" zoomAndPan="magnify"><defs/><g><ellipse cx="121" cy="16" fill="#222222" rx="10" ry="10" style="stroke:#222222;stroke-width:1.0;"/><g id="sizeValidation"><rect fill="#F1F1F1" height="50" rx="12.5" ry="12.5" style="stroke:#181818;stroke-width:0.5;" width="120" x="61" y="103"/><line style="stroke:#181818;stroke-width:0.5;" x1="61" x2="181" y1="129.2969" y2="129.2969"/><text fill="#000000" font-family="sans-serif" font-size="14" lengthAdjust="spacing" textLength="100" x="71" y="120.9951">sizeValidation</text></g><g id="setCellSize"><rect fill="#F1F1F1" height="50" rx="12.5" ry="12.5" style="stroke:#181818;stroke-width:0.5;" width="100" x="7" y="230"/><line style="stroke:#181818;stroke-width:0.5;" x1="7" x2="107" y1="256.2969" y2="256.2969"/><text fill="#000000" font-family="sans-serif" font-size="14" lengthAdjust="spacing" textLength="80" x="17" y="247.9951">setCellSize</text></g><g id="sameSize"><rect fill="#F1F1F1" height="50" rx="12.5" ry="12.5" style="stroke:#181818;stroke-width:0.5;" width="88" x="142" y="230"/><line style="stroke:#181818;stroke-width:0.5;" x1="142" x2="230" y1="256.2969" y2="256.2969"/><text fill="#000000" font-family="sans-serif" font-size="14" lengthAdjust="spacing" textLength="68" x="152" y="247.9951">sameSize</text></g><ellipse cx="132" cy="352" fill="none" rx="11" ry="11" style="stroke:#222222;stroke-width:1.0;"/><ellipse cx="132" cy="352" fill="#222222" rx="6" ry="6" style="stroke:#222222;stroke-width:1.0;"/><!--link *start* to sizeValidation--><g id="link_*start*_sizeValidation"><path d="M121,26.002 C121,42.627 121,72.655 121,96.873 " fill="none" id="*start*-to-sizeValidation" style="stroke:#181818;stroke-width:1.0;"/><polygon fill="#181818" points="121,102.873,125,93.873,121,97.873,117,93.873,121,102.873" style="stroke:#181818;stroke-width:1.0;"/><text fill="#000000" font-family="sans-serif" font-size="13" lengthAdjust="spacing" textLength="164" x="122" y="69.0669">Llamar a setCellSize(size)</text></g><!--link sizeValidation to setCellSize--><g id="link_sizeValidation_setCellSize"><path d="M94.8806,153.09 C86.792,161.801 78.5552,172.175 73,183 C65.5002,197.614 62.3777,209.7608 60.2483,224.0188 " fill="none" id="sizeValidation-to-setCellSize" style="stroke:#181818;stroke-width:1.0;"/><polygon fill="#181818" points="59.362,229.953,64.6475,221.6426,60.1005,225.0078,56.7353,220.4609,59.362,229.953" style="stroke:#181818;stroke-width:1.0;"/><text fill="#000000" font-family="sans-serif" font-size="13" lengthAdjust="spacing" textLength="61" x="74" y="196.0669">size &gt;= 1</text></g><!--link sizeValidation to sameSize--><g id="link_sizeValidation_sameSize"><path d="M133.533,153.101 C145.043,175.236 159.2399,202.5377 170.7379,224.6497 " fill="none" id="sizeValidation-to-sameSize" style="stroke:#181818;stroke-width:1.0;"/><polygon fill="#181818" points="173.506,229.973,172.9028,220.1426,171.1993,225.5369,165.805,223.8334,173.506,229.973" style="stroke:#181818;stroke-width:1.0;"/><text fill="#000000" font-family="sans-serif" font-size="13" lengthAdjust="spacing" textLength="51" x="158" y="196.0669">size &lt; 1</text></g><!--link setCellSize to *end*--><g id="link_setCellSize_*end*"><path d="M76.3144,280.4649 C92.46,300.916 110.8221,324.1748 121.6901,337.9407 " fill="none" id="setCellSize-to-*end*" style="stroke:#181818;stroke-width:1.0;"/><polygon fill="#181818" points="125.408,342.65,122.9707,333.1075,122.3097,338.7256,116.6916,338.0647,125.408,342.65" style="stroke:#181818;stroke-width:1.0;"/></g><!--link sameSize to *end*--><g id="link_sameSize_*end*"><path d="M172.094,280.4649 C160.594,300.6961 147.8783,323.0674 139.9663,336.985 " fill="none" id="sameSize-to-*end*" style="stroke:#181818;stroke-width:1.0;"/><polygon fill="#181818" points="137.001,342.2011,144.9263,336.3539,139.4721,337.8544,137.9715,332.4002,137.001,342.2011" style="stroke:#181818;stroke-width:1.0;"/></g><!--SRC=[YzQALT3LjLCepgnA3KlCoKn9BCdCprEmKl39ISnDB598L2XEBN5EpSa91YhG0AdIv49J2zQEK0JK2rAWO6UhO8XLQM9kAaWTL9aDI1MIRf2IQArOBfWoc000]--></g></svg>