<?xml version="1.0" encoding="us-ascii" standalone="no"?><svg xmlns="http://www.w3.org/2000/svg" xmlns:xlink="http://www.w3.org/1999/xlink" contentStyleType="text/css" height="374px" preserveAspectRatio="none" style="width:577px;height:374px;background:#FFFFFF;" version="1.1" viewBox="0 0 577 374" width="577px" zoomAndPan="magnify"><defs/><g><ellipse cx="299" cy="20" fill="#222222" rx="10" ry="10" style="stroke:#222222;stroke-width:1.0;"/><rect fill="#F1F1F1" height="33.9688" rx="12.5" ry="12.5" style="stroke:#181818;stroke-width:0.5;" width="128" x="235" y="50"/><text fill="#000000" font-family="sans-serif" font-size="12" lengthAdjust="spacing" textLength="108" x="245" y="71.1387">Presionar tecla "r"</text><polygon fill="#F1F1F1" points="109,103.9688,166,103.9688,178,115.9688,166,127.9688,109,127.9688,97,115.9688,109,103.9688" style="stroke:#181818;stroke-width:0.5;"/><text fill="#000000" font-family="sans-serif" font-size="11" lengthAdjust="spacing" textLength="21" x="141.5" y="138.1792">yes</text><text fill="#000000" font-family="sans-serif" font-size="11" lengthAdjust="spacing" textLength="57" x="109" y="119.7769">size &gt;= 1</text><rect fill="#F1F1F1" height="33.9688" rx="12.5" ry="12.5" style="stroke:#181818;stroke-width:0.5;" width="176" x="49.5" y="159.6792"/><text fill="#000000" font-family="sans-serif" font-size="12" lengthAdjust="spacing" textLength="156" x="59.5" y="180.8179">Llamar a setCellSize(size)</text><rect fill="#F1F1F1" height="33.9688" rx="12.5" ry="12.5" style="stroke:#181818;stroke-width:0.5;" width="203" x="36" y="213.6479"/><text fill="#000000" font-family="sans-serif" font-size="12" lengthAdjust="spacing" textLength="183" x="46" y="234.7866">Cambiar el tama&#241;o de la celda</text><rect fill="#F1F1F1" height="33.9688" rx="12.5" ry="12.5" style="stroke:#181818;stroke-width:0.5;" width="253" x="11" y="267.6167"/><text fill="#000000" font-family="sans-serif" font-size="12" lengthAdjust="spacing" textLength="233" x="21" y="288.7554">Continuar edici&#243;n de la hoja de c&#225;lculo</text><polygon fill="#F1F1F1" points="386.5,103.9688,434.5,103.9688,446.5,115.9688,434.5,127.9688,386.5,127.9688,374.5,115.9688,386.5,103.9688" style="stroke:#181818;stroke-width:0.5;"/><text fill="#000000" font-family="sans-serif" font-size="11" lengthAdjust="spacing" textLength="14" x="414.5" y="138.1792">no</text><text fill="#000000" font-family="sans-serif" font-size="11" lengthAdjust="spacing" textLength="48" x="386.5" y="119.7769">size &lt; 1</text><rect fill="#F1F1F1" height="33.9688" rx="12.5" ry="12.5" style="stroke:#181818;stroke-width:0.5;" width="234" x="293.5" y="159.6792"/><text fill="#000000" font-family="sans-serif" font-size="12" lengthAdjust="spacing" textLength="214" x="303.5" y="180.8179">Mantener tama&#241;o actual de la celda</text><rect fill="#F1F1F1" height="33.9688" rx="12.5" ry="12.5" style="stroke:#181818;stroke-width:0.5;" width="253" x="284" y="213.6479"/><text fill="#000000" font-family="sans-serif" font-size="12" lengthAdjust="spacing" textLength="233" x="294" y="234.7866">Continuar edici&#243;n de la hoja de c&#225;lculo</text><ellipse cx="299" cy="352.5854" fill="none" rx="11" ry="11" style="stroke:#222222;stroke-width:1.0;"/><ellipse cx="299" cy="352.5854" fill="#222222" rx="6" ry="6" style="stroke:#222222;stroke-width:1.0;"/><line style="stroke:#181818;stroke-width:1.0;" x1="299" x2="299" y1="30" y2="50"/><polygon fill="#181818" points="295,40,299,50,303,40,299,44" style="stroke:#181818;stroke-width:1.0;"/><line style="stroke:#181818;stroke-width:1.0;" x1="137.5" x2="137.5" y1="193.6479" y2="213.6479"/><polygon fill="#181818" points="133.5,203.6479,137.5,213.6479,141.5,203.6479,137.5,207.6479" style="stroke:#181818;stroke-width:1.0;"/><line style="stroke:#181818;stroke-width:1.0;" x1="137.5" x2="137.5" y1="247.6167" y2="267.6167"/><polygon fill="#181818" points="133.5,257.6167,137.5,267.6167,141.5,257.6167,137.5,261.6167" style="stroke:#181818;stroke-width:1.0;"/><line style="stroke:#181818;stroke-width:1.0;" x1="410.5" x2="410.5" y1="193.6479" y2="213.6479"/><polygon fill="#181818" points="406.5,203.6479,410.5,213.6479,414.5,203.6479,410.5,207.6479" style="stroke:#181818;stroke-width:1.0;"/><line style="stroke:#181818;stroke-width:1.0;" x1="137.5" x2="137.5" y1="127.9688" y2="159.6792"/><polygon fill="#181818" points="133.5,149.6792,137.5,159.6792,141.5,149.6792,137.5,153.6792" style="stroke:#181818;stroke-width:1.0;"/><line style="stroke:#181818;stroke-width:1.0;" x1="137.5" x2="137.5" y1="301.5854" y2="321.5854"/><polygon fill="#181818" points="133.5,311.5854,137.5,321.5854,141.5,311.5854,137.5,315.5854" style="stroke:#181818;stroke-width:1.0;"/><line style="stroke:#181818;stroke-width:1.0;" x1="410.5" x2="410.5" y1="127.9688" y2="159.6792"/><polygon fill="#181818" points="406.5,149.6792,410.5,159.6792,414.5,149.6792,410.5,153.6792" style="stroke:#181818;stroke-width:1.0;"/><line style="stroke:#181818;stroke-width:1.0;" x1="410.5" x2="410.5" y1="247.6167" y2="321.5854"/><polygon fill="#181818" points="406.5,311.5854,410.5,321.5854,414.5,311.5854,410.5,315.5854" style="stroke:#181818;stroke-width:1.0;"/><line style="stroke:#181818;stroke-width:1.0;" x1="178" x2="374.5" y1="115.9688" y2="115.9688"/><polygon fill="#181818" points="364.5,111.9688,374.5,115.9688,364.5,119.9688,368.5,115.9688" style="stroke:#181818;stroke-width:1.0;"/><line style="stroke:#181818;stroke-width:1.0;" x1="299" x2="299" y1="83.9688" y2="88.9688"/><line style="stroke:#181818;stroke-width:1.0;" x1="299" x2="137.5" y1="88.9688" y2="88.9688"/><line style="stroke:#181818;stroke-width:1.0;" x1="137.5" x2="137.5" y1="88.9688" y2="103.9688"/><polygon fill="#181818" points="133.5,93.9688,137.5,103.9688,141.5,93.9688,137.5,97.9688" style="stroke:#181818;stroke-width:1.0;"/><line style="stroke:#181818;stroke-width:1.0;" x1="446.5" x2="551" y1="115.9688" y2="115.9688"/><line style="stroke:#181818;stroke-width:1.0;" x1="551" x2="551" y1="115.9688" y2="321.5854"/><polygon fill="#181818" points="547,311.5854,551,321.5854,555,311.5854,551,315.5854" style="stroke:#181818;stroke-width:1.0;"/><line style="stroke:#181818;stroke-width:1.0;" x1="137.5" x2="551" y1="321.5854" y2="321.5854"/><line style="stroke:#181818;stroke-width:1.0;" x1="299" x2="299" y1="321.5854" y2="341.5854"/><polygon fill="#181818" points="295,331.5854,299,341.5854,303,331.5854,299,335.5854" style="stroke:#181818;stroke-width:1.0;"/><!--SRC=[fSun3i8m30NGFQUmEhKZQmiiNK52uWGcSKMGww347U0s705nX5wCjA1o03PB_yd_9yMefZv4IZu8Hb2oZ534eZ6-WpBvEy5s0wiAz4m2vOrIPG3g7MEVEK8YROdvcE6igsQAM-nFFkV4e1cEpm2E87-sn0u_98Xw6IRalFNZIxxa72uudNPyi1quD8OuqR9c_HiZOTwoHr4IYaiLMXsG_seKvpkJD5pV]--></g></svg>