<?xml version="1.0" encoding="UTF-8" standalone="no"?><svg xmlns="http://www.w3.org/2000/svg" xmlns:xlink="http://www.w3.org/1999/xlink" contentStyleType="text/css" height="310px" preserveAspectRatio="none" style="width:257px;height:310px;background:#FFFFFF;" version="1.1" viewBox="0 0 257 310" width="257px" zoomAndPan="magnify"><defs/><g><g id="elem_Sheet"><rect fill="#F1F1F1" height="64.8281" style="stroke:#181818;stroke-width:0.5;" width="150" x="7" y="7"/><text fill="#000000" font-family="sans-serif" font-size="14" lengthAdjust="spacing" textLength="37" x="63.5" y="23.5332">Sheet</text><line style="stroke:#181818;stroke-width:0.5;" x1="8" x2="156" y1="28.6094" y2="28.6094"/><text fill="#000000" font-family="sans-serif" font-size="14" lengthAdjust="spacing" textLength="138" x="13" y="47.1426">Hoja de calculo 10x10</text><text fill="#000000" font-family="sans-serif" font-size="14" lengthAdjust="spacing" textLength="93" x="13" y="64.752">Current cell 29</text></g><g id="elem_Cell"><rect fill="#F1F1F1" height="47.2188" style="stroke:#181818;stroke-width:0.5;" width="58" x="192" y="16"/><text fill="#000000" font-family="sans-serif" font-size="14" lengthAdjust="spacing" textLength="24" x="209" y="32.5332">Cell</text><line style="stroke:#181818;stroke-width:0.5;" x1="193" x2="249" y1="37.6094" y2="37.6094"/><text fill="#000000" font-family="sans-serif" font-size="14" lengthAdjust="spacing" textLength="46" x="198" y="56.1426">Manolo</text></g><g id="elem_Movimiento"><rect fill="#F1F1F1" height="47.2188" style="stroke:#181818;stroke-width:0.5;" width="85" x="39.5" y="132"/><text fill="#000000" font-family="sans-serif" font-size="14" lengthAdjust="spacing" textLength="71" x="46.5" y="148.5332">Movimiento</text><line style="stroke:#181818;stroke-width:0.5;" x1="40.5" x2="123.5" y1="153.6094" y2="153.6094"/><text fill="#000000" font-family="sans-serif" font-size="14" lengthAdjust="spacing" textLength="54" x="45.5" y="172.1426">Derecha</text></g><g id="elem_Sheet2"><rect fill="#F1F1F1" height="64.8281" style="stroke:#181818;stroke-width:0.5;" width="150" x="7" y="239"/><text fill="#000000" font-family="sans-serif" font-size="14" lengthAdjust="spacing" textLength="45" x="59.5" y="255.5332">Sheet2</text><line style="stroke:#181818;stroke-width:0.5;" x1="8" x2="156" y1="260.6094" y2="260.6094"/><text fill="#000000" font-family="sans-serif" font-size="14" lengthAdjust="spacing" textLength="138" x="13" y="279.1426">Hoja de calculo 10x10</text><text fill="#000000" font-family="sans-serif" font-size="14" lengthAdjust="spacing" textLength="93" x="13" y="296.752">Current cell 30</text></g><g id="elem_Cell2"><rect fill="#F1F1F1" height="47.2188" style="stroke:#181818;stroke-width:0.5;" width="46" x="192" y="248"/><text fill="#000000" font-family="sans-serif" font-size="14" lengthAdjust="spacing" textLength="32" x="199" y="264.5332">Cell2</text><line style="stroke:#181818;stroke-width:0.5;" x1="193" x2="237" y1="269.6094" y2="269.6094"/><text fill="#000000" font-family="sans-serif" font-size="14" lengthAdjust="spacing" textLength="30" x="198" y="288.1426">Juan</text></g><!--MD5=[6647f6203a133f493772c86f465bf634]
link Sheet to Cell--><g id="link_Sheet_Cell"><path codeLine="24" d="M157.2,39.5 C166.96,39.5 176.73,39.5 186.49,39.5 " fill="none" id="Sheet-to-Cell" style="stroke:#181818;stroke-width:1.0;"/><polygon fill="#181818" points="191.59,39.5,182.59,35.5,186.59,39.5,182.59,43.5,191.59,39.5" style="stroke:#181818;stroke-width:1.0;"/></g><!--MD5=[2c2f45aa5fe6e34d1bf2a0a2dde5d56d]
link Sheet to Movimiento--><g id="link_Sheet_Movimiento"><path codeLine="25" d="M82,72.26 C82,89.3 82,110.12 82,126.55 " fill="none" id="Sheet-to-Movimiento" style="stroke:#181818;stroke-width:1.0;"/><polygon fill="#181818" points="82,131.94,86,122.94,82,126.94,78,122.94,82,131.94" style="stroke:#181818;stroke-width:1.0;"/></g><!--MD5=[022ded216cf309f89c21552cdc04c598]
link Movimiento to Sheet2--><g id="link_Movimiento_Sheet2"><path codeLine="26" d="M82,179.02 C82,194.68 82,215.9 82,233.96 " fill="none" id="Movimiento-to-Sheet2" style="stroke:#181818;stroke-width:1.0;"/><polygon fill="#181818" points="82,238.96,86,229.96,82,233.96,78,229.96,82,238.96" style="stroke:#181818;stroke-width:1.0;"/></g><!--MD5=[74e093278fff095718813c07a9f757c0]
link Sheet2 to Cell2--><g id="link_Sheet2_Cell2"><path codeLine="27" d="M157.07,271.5 C166.96,271.5 176.86,271.5 186.75,271.5 " fill="none" id="Sheet2-to-Cell2" style="stroke:#181818;stroke-width:1.0;"/><polygon fill="#181818" points="191.92,271.5,182.92,267.5,186.92,271.5,182.92,275.5,191.92,271.5" style="stroke:#181818;stroke-width:1.0;"/></g><!--MD5=[2ebe6e425efed5565d9594f538fb1ce1]
@startuml

object Sheet {
    Hoja de calculo 10x10
    Current cell 29
}

object Cell {
    Manolo
}

object Movimiento {
    Derecha
}

object Sheet2{
    Hoja de calculo 10x10
    Current cell 30
}

object Cell2{
    Juan
}

Sheet -right-> Cell
Sheet - -> Movimiento
Movimiento - -> Sheet2
Sheet2 -right-> Cell2


@enduml

PlantUML version 1.2022.7(Mon Aug 22 19:01:30 CEST 2022)
(GPL source distribution)
Java Runtime: Java(TM) SE Runtime Environment
JVM: Java HotSpot(TM) 64-Bit Server VM
Default Encoding: Cp1252
Language: es
Country: ES
--></g></svg>