<?xml version="1.0" encoding="us-ascii" standalone="no"?><svg xmlns="http://www.w3.org/2000/svg" xmlns:xlink="http://www.w3.org/1999/xlink" contentStyleType="text/css" height="506px" preserveAspectRatio="none" style="width:630px;height:506px;background:#FFFFFF;" version="1.1" viewBox="0 0 630 506" width="630px" zoomAndPan="magnify"><defs/><g><!--cluster Vista--><g id="cluster_Vista"><path d="M131.5,6 L171.5,6 A3.75,3.75 0 0 1 174,8.5 L181,28.2969 L392.5,28.2969 A2.5,2.5 0 0 1 395,30.7969 L395,118.5 A2.5,2.5 0 0 1 392.5,121 L131.5,121 A2.5,2.5 0 0 1 129,118.5 L129,8.5 A2.5,2.5 0 0 1 131.5,6 " fill="none" style="stroke:#000000;stroke-width:1.5;"/><line style="stroke:#000000;stroke-width:1.5;" x1="129" x2="181" y1="28.2969" y2="28.2969"/><text fill="#000000" font-family="sans-serif" font-size="14" font-weight="bold" lengthAdjust="spacing" textLength="39" x="133" y="20.9951">Vista</text></g><!--cluster Controlador--><g id="cluster_Controlador"><path d="M8.5,161 L103.5,161 A3.75,3.75 0 0 1 106,163.5 L113,183.2969 L299.5,183.2969 A2.5,2.5 0 0 1 302,185.7969 L302,388.5 A2.5,2.5 0 0 1 299.5,391 L8.5,391 A2.5,2.5 0 0 1 6,388.5 L6,163.5 A2.5,2.5 0 0 1 8.5,161 " fill="none" style="stroke:#000000;stroke-width:1.5;"/><line style="stroke:#000000;stroke-width:1.5;" x1="6" x2="113" y1="183.2969" y2="183.2969"/><text fill="#000000" font-family="sans-serif" font-size="14" font-weight="bold" lengthAdjust="spacing" textLength="94" x="10" y="175.9951">Controlador</text></g><!--cluster Modelo--><g id="cluster_Modelo"><path d="M344.5,276 L402.5,276 A3.75,3.75 0 0 1 405,278.5 L412,298.2969 L620.5,298.2969 A2.5,2.5 0 0 1 623,300.7969 L623,496.5 A2.5,2.5 0 0 1 620.5,499 L344.5,499 A2.5,2.5 0 0 1 342,496.5 L342,278.5 A2.5,2.5 0 0 1 344.5,276 " fill="none" style="stroke:#000000;stroke-width:1.5;"/><line style="stroke:#000000;stroke-width:1.5;" x1="342" x2="412" y1="298.2969" y2="298.2969"/><text fill="#000000" font-family="sans-serif" font-size="14" font-weight="bold" lengthAdjust="spacing" textLength="57" x="346" y="290.9951">Modelo</text></g><!--class Viewport--><g id="elem_Viewport"><rect codeLine="2" fill="#F1F1F1" height="48" id="Viewport" rx="2.5" ry="2.5" style="stroke:#181818;stroke-width:0.5;" width="92" x="153" y="49"/><ellipse cx="168" cy="65" fill="#ADD1B2" rx="11" ry="11" style="stroke:#181818;stroke-width:1.0;"/><path d="M170.9688,70.6406 Q170.3906,70.9375 169.75,71.0781 Q169.1094,71.2344 168.4063,71.2344 Q165.9063,71.2344 164.5781,69.5938 Q163.2656,67.9375 163.2656,64.8125 Q163.2656,61.6875 164.5781,60.0313 Q165.9063,58.375 168.4063,58.375 Q169.1094,58.375 169.75,58.5313 Q170.4063,58.6875 170.9688,58.9844 L170.9688,61.7031 Q170.3438,61.125 169.75,60.8594 Q169.1563,60.5781 168.5313,60.5781 Q167.1875,60.5781 166.5,61.6563 Q165.8125,62.7188 165.8125,64.8125 Q165.8125,66.9063 166.5,67.9844 Q167.1875,69.0469 168.5313,69.0469 Q169.1563,69.0469 169.75,68.7813 Q170.3438,68.5 170.9688,67.9219 L170.9688,70.6406 Z " fill="#000000"/><text fill="#000000" font-family="sans-serif" font-size="14" lengthAdjust="spacing" textLength="60" x="182" y="69.8467">Viewport</text><line style="stroke:#181818;stroke-width:0.5;" x1="154" x2="244" y1="81" y2="81"/><line style="stroke:#181818;stroke-width:0.5;" x1="154" x2="244" y1="89" y2="89"/></g><!--class Menu--><g id="elem_Menu"><rect codeLine="3" fill="#F1F1F1" height="48" id="Menu" rx="2.5" ry="2.5" style="stroke:#181818;stroke-width:0.5;" width="71" x="280.5" y="49"/><ellipse cx="295.5" cy="65" fill="#ADD1B2" rx="11" ry="11" style="stroke:#181818;stroke-width:1.0;"/><path d="M298.4688,70.6406 Q297.8906,70.9375 297.25,71.0781 Q296.6094,71.2344 295.9063,71.2344 Q293.4063,71.2344 292.0781,69.5938 Q290.7656,67.9375 290.7656,64.8125 Q290.7656,61.6875 292.0781,60.0313 Q293.4063,58.375 295.9063,58.375 Q296.6094,58.375 297.25,58.5313 Q297.9063,58.6875 298.4688,58.9844 L298.4688,61.7031 Q297.8438,61.125 297.25,60.8594 Q296.6563,60.5781 296.0313,60.5781 Q294.6875,60.5781 294,61.6563 Q293.3125,62.7188 293.3125,64.8125 Q293.3125,66.9063 294,67.9844 Q294.6875,69.0469 296.0313,69.0469 Q296.6563,69.0469 297.25,68.7813 Q297.8438,68.5 298.4688,67.9219 L298.4688,70.6406 Z " fill="#000000"/><text fill="#000000" font-family="sans-serif" font-size="14" lengthAdjust="spacing" textLength="39" x="309.5" y="69.8467">Menu</text><line style="stroke:#181818;stroke-width:0.5;" x1="281.5" x2="350.5" y1="81" y2="81"/><line style="stroke:#181818;stroke-width:0.5;" x1="281.5" x2="350.5" y1="89" y2="89"/></g><!--class Movement--><g id="elem_Movement"><rect codeLine="7" fill="#F1F1F1" height="48" id="Movement" rx="2.5" ry="2.5" style="stroke:#181818;stroke-width:0.5;" width="105" x="29.5" y="204"/><ellipse cx="44.5" cy="220" fill="#ADD1B2" rx="11" ry="11" style="stroke:#181818;stroke-width:1.0;"/><path d="M47.4688,225.6406 Q46.8906,225.9375 46.25,226.0781 Q45.6094,226.2344 44.9063,226.2344 Q42.4063,226.2344 41.0781,224.5938 Q39.7656,222.9375 39.7656,219.8125 Q39.7656,216.6875 41.0781,215.0313 Q42.4063,213.375 44.9063,213.375 Q45.6094,213.375 46.25,213.5313 Q46.9063,213.6875 47.4688,213.9844 L47.4688,216.7031 Q46.8438,216.125 46.25,215.8594 Q45.6563,215.5781 45.0313,215.5781 Q43.6875,215.5781 43,216.6563 Q42.3125,217.7188 42.3125,219.8125 Q42.3125,221.9063 43,222.9844 Q43.6875,224.0469 45.0313,224.0469 Q45.6563,224.0469 46.25,223.7813 Q46.8438,223.5 47.4688,222.9219 L47.4688,225.6406 Z " fill="#000000"/><text fill="#000000" font-family="sans-serif" font-size="14" lengthAdjust="spacing" textLength="73" x="58.5" y="224.8467">Movement</text><line style="stroke:#181818;stroke-width:0.5;" x1="30.5" x2="133.5" y1="236" y2="236"/><line style="stroke:#181818;stroke-width:0.5;" x1="30.5" x2="133.5" y1="244" y2="244"/></g><!--class Settings--><g id="elem_Settings"><rect codeLine="8" fill="#F1F1F1" height="48" id="Settings" rx="2.5" ry="2.5" style="stroke:#181818;stroke-width:0.5;" width="89" x="169.5" y="204"/><ellipse cx="184.5" cy="220" fill="#ADD1B2" rx="11" ry="11" style="stroke:#181818;stroke-width:1.0;"/><path d="M187.4688,225.6406 Q186.8906,225.9375 186.25,226.0781 Q185.6094,226.2344 184.9063,226.2344 Q182.4063,226.2344 181.0781,224.5938 Q179.7656,222.9375 179.7656,219.8125 Q179.7656,216.6875 181.0781,215.0313 Q182.4063,213.375 184.9063,213.375 Q185.6094,213.375 186.25,213.5313 Q186.9063,213.6875 187.4688,213.9844 L187.4688,216.7031 Q186.8438,216.125 186.25,215.8594 Q185.6563,215.5781 185.0313,215.5781 Q183.6875,215.5781 183,216.6563 Q182.3125,217.7188 182.3125,219.8125 Q182.3125,221.9063 183,222.9844 Q183.6875,224.0469 185.0313,224.0469 Q185.6563,224.0469 186.25,223.7813 Q186.8438,223.5 187.4688,222.9219 L187.4688,225.6406 Z " fill="#000000"/><text fill="#000000" font-family="sans-serif" font-size="14" lengthAdjust="spacing" textLength="57" x="198.5" y="224.8467">Settings</text><line style="stroke:#181818;stroke-width:0.5;" x1="170.5" x2="257.5" y1="236" y2="236"/><line style="stroke:#181818;stroke-width:0.5;" x1="170.5" x2="257.5" y1="244" y2="244"/></g><!--class MathOperations--><g id="elem_MathOperations"><rect codeLine="9" fill="#F1F1F1" height="48" id="MathOperations" rx="2.5" ry="2.5" style="stroke:#181818;stroke-width:0.5;" width="142" x="30" y="319"/><ellipse cx="45" cy="335" fill="#ADD1B2" rx="11" ry="11" style="stroke:#181818;stroke-width:1.0;"/><path d="M47.9688,340.6406 Q47.3906,340.9375 46.75,341.0781 Q46.1094,341.2344 45.4063,341.2344 Q42.9063,341.2344 41.5781,339.5938 Q40.2656,337.9375 40.2656,334.8125 Q40.2656,331.6875 41.5781,330.0313 Q42.9063,328.375 45.4063,328.375 Q46.1094,328.375 46.75,328.5313 Q47.4063,328.6875 47.9688,328.9844 L47.9688,331.7031 Q47.3438,331.125 46.75,330.8594 Q46.1563,330.5781 45.5313,330.5781 Q44.1875,330.5781 43.5,331.6563 Q42.8125,332.7188 42.8125,334.8125 Q42.8125,336.9063 43.5,337.9844 Q44.1875,339.0469 45.5313,339.0469 Q46.1563,339.0469 46.75,338.7813 Q47.3438,338.5 47.9688,337.9219 L47.9688,340.6406 Z " fill="#000000"/><text fill="#000000" font-family="sans-serif" font-size="14" lengthAdjust="spacing" textLength="110" x="59" y="339.8467">MathOperations</text><line style="stroke:#181818;stroke-width:0.5;" x1="31" x2="171" y1="351" y2="351"/><line style="stroke:#181818;stroke-width:0.5;" x1="31" x2="171" y1="359" y2="359"/></g><!--class Spreadsheet--><g id="elem_Spreadsheet"><rect codeLine="13" fill="#F1F1F1" height="48" id="Spreadsheet" rx="2.5" ry="2.5" style="stroke:#181818;stroke-width:0.5;" width="121" x="366.5" y="319"/><ellipse cx="381.5" cy="335" fill="#ADD1B2" rx="11" ry="11" style="stroke:#181818;stroke-width:1.0;"/><path d="M384.4688,340.6406 Q383.8906,340.9375 383.25,341.0781 Q382.6094,341.2344 381.9063,341.2344 Q379.4063,341.2344 378.0781,339.5938 Q376.7656,337.9375 376.7656,334.8125 Q376.7656,331.6875 378.0781,330.0313 Q379.4063,328.375 381.9063,328.375 Q382.6094,328.375 383.25,328.5313 Q383.9063,328.6875 384.4688,328.9844 L384.4688,331.7031 Q383.8438,331.125 383.25,330.8594 Q382.6563,330.5781 382.0313,330.5781 Q380.6875,330.5781 380,331.6563 Q379.3125,332.7188 379.3125,334.8125 Q379.3125,336.9063 380,337.9844 Q380.6875,339.0469 382.0313,339.0469 Q382.6563,339.0469 383.25,338.7813 Q383.8438,338.5 384.4688,337.9219 L384.4688,340.6406 Z " fill="#000000"/><text fill="#000000" font-family="sans-serif" font-size="14" lengthAdjust="spacing" textLength="89" x="395.5" y="339.8467">Spreadsheet</text><line style="stroke:#181818;stroke-width:0.5;" x1="367.5" x2="486.5" y1="351" y2="351"/><line style="stroke:#181818;stroke-width:0.5;" x1="367.5" x2="486.5" y1="359" y2="359"/></g><!--class Cell--><g id="elem_Cell"><rect codeLine="14" fill="#F1F1F1" height="48" id="Cell" rx="2.5" ry="2.5" style="stroke:#181818;stroke-width:0.5;" width="57" x="522.5" y="319"/><ellipse cx="537.5" cy="335" fill="#ADD1B2" rx="11" ry="11" style="stroke:#181818;stroke-width:1.0;"/><path d="M540.4688,340.6406 Q539.8906,340.9375 539.25,341.0781 Q538.6094,341.2344 537.9063,341.2344 Q535.4063,341.2344 534.0781,339.5938 Q532.7656,337.9375 532.7656,334.8125 Q532.7656,331.6875 534.0781,330.0313 Q535.4063,328.375 537.9063,328.375 Q538.6094,328.375 539.25,328.5313 Q539.9063,328.6875 540.4688,328.9844 L540.4688,331.7031 Q539.8438,331.125 539.25,330.8594 Q538.6563,330.5781 538.0313,330.5781 Q536.6875,330.5781 536,331.6563 Q535.3125,332.7188 535.3125,334.8125 Q535.3125,336.9063 536,337.9844 Q536.6875,339.0469 538.0313,339.0469 Q538.6563,339.0469 539.25,338.7813 Q539.8438,338.5 540.4688,337.9219 L540.4688,340.6406 Z " fill="#000000"/><text fill="#000000" font-family="sans-serif" font-size="14" lengthAdjust="spacing" textLength="25" x="551.5" y="339.8467">Cell</text><line style="stroke:#181818;stroke-width:0.5;" x1="523.5" x2="578.5" y1="351" y2="351"/><line style="stroke:#181818;stroke-width:0.5;" x1="523.5" x2="578.5" y1="359" y2="359"/></g><!--class Sheet--><g id="elem_Sheet"><rect codeLine="15" fill="#F1F1F1" height="48" id="Sheet" rx="2.5" ry="2.5" style="stroke:#181818;stroke-width:0.5;" width="73" x="390.5" y="427"/><ellipse cx="405.5" cy="443" fill="#ADD1B2" rx="11" ry="11" style="stroke:#181818;stroke-width:1.0;"/><path d="M408.4688,448.6406 Q407.8906,448.9375 407.25,449.0781 Q406.6094,449.2344 405.9063,449.2344 Q403.4063,449.2344 402.0781,447.5938 Q400.7656,445.9375 400.7656,442.8125 Q400.7656,439.6875 402.0781,438.0313 Q403.4063,436.375 405.9063,436.375 Q406.6094,436.375 407.25,436.5313 Q407.9063,436.6875 408.4688,436.9844 L408.4688,439.7031 Q407.8438,439.125 407.25,438.8594 Q406.6563,438.5781 406.0313,438.5781 Q404.6875,438.5781 404,439.6563 Q403.3125,440.7188 403.3125,442.8125 Q403.3125,444.9063 404,445.9844 Q404.6875,447.0469 406.0313,447.0469 Q406.6563,447.0469 407.25,446.7813 Q407.8438,446.5 408.4688,445.9219 L408.4688,448.6406 Z " fill="#000000"/><text fill="#000000" font-family="sans-serif" font-size="14" lengthAdjust="spacing" textLength="41" x="419.5" y="447.8467">Sheet</text><line style="stroke:#181818;stroke-width:0.5;" x1="391.5" x2="462.5" y1="459" y2="459"/><line style="stroke:#181818;stroke-width:0.5;" x1="391.5" x2="462.5" y1="467" y2="467"/></g><!--link Modelo to Vista--><g id="link_Modelo_Vista"><path codeLine="19" d="M603.5748,275.9986 C603.5233,275.8622 603.4716,275.726 603.4197,275.5899 C603.004,274.5009 602.5735,273.4187 602.1275,272.3452 C600.3436,268.0513 598.3125,263.8963 596,260 C564.765,207.37 513.6475,161.49 469.7863,128.465 C447.8556,111.9525 427.7391,98.6538 412.8289,89.3319 C409.1014,87.0014 405.6992,84.9195 402.6755,83.0981 C401.1636,82.1873 399.7464,81.3417 398.4303,80.5628 C397.7723,80.1733 397.1396,79.8004 396.533,79.4444 C396.2297,79.2664 395.933,79.0926 395.6429,78.9231 C395.4978,78.8383 400.5373,81.7774 400.3956,81.6947 " fill="none" id="Modelo-to-Vista" style="stroke:#181818;stroke-width:1.0;"/><polygon fill="#181818" points="395.2127,78.6719,400.9718,86.6614,399.5318,81.1909,405.0022,79.7509,395.2127,78.6719" style="stroke:#181818;stroke-width:1.0;"/></g><!--link Vista to Controlador--><g id="link_Vista_Controlador"><path codeLine="20" d="M374.2015,121.1159 C374.16,121.2235 374.1184,121.3309 374.0767,121.4384 C373.9933,121.6533 373.9095,121.8681 373.8252,122.0827 C373.151,123.7998 372.4492,125.5077 371.7193,127.1958 C370.2595,130.572 368.6875,133.8688 367,137 C355.16,158.96 337.6625,180.7625 322.7663,197.4075 C315.3181,205.73 308.5203,212.7631 303.4052,217.8819 C303.0855,218.2018 302.7723,218.5142 302.466,218.8191 C302.3129,218.9715 306.4202,214.8955 306.2705,215.044 " fill="none" id="Vista-to-Controlador" style="stroke:#181818;stroke-width:1.0;"/><polygon fill="#181818" points="302.0117,219.2705,311.2175,215.77,305.5607,215.7485,305.5822,210.0916,302.0117,219.2705" style="stroke:#181818;stroke-width:1.0;"/></g><!--link Controlador to Modelo--><g id="link_Controlador_Modelo"><path codeLine="21" d="M302.1195,230.4089 C302.2301,230.4279 302.3418,230.447 302.4544,230.4663 C302.9051,230.5435 303.3722,230.6233 303.8553,230.7057 C305.7879,231.0354 307.977,231.4065 310.3981,231.8133 C320.0825,233.4403 333.4775,235.6381 349,238.0413 C380.045,242.8475 419.6,248.475 455,252 C470.61,253.56 584,249.89 596,260 C599.465,262.9175 602.3694,266.3308 604.7981,270.077 C606.0125,271.9501 604.4727,268.5161 605.4598,270.5353 " fill="none" id="Controlador-to-Modelo" style="stroke:#181818;stroke-width:1.0;"/><polygon fill="#181818" points="608.0951,275.9256,607.7358,266.0833,605.899,271.4337,600.5487,269.597,608.0951,275.9256" style="stroke:#181818;stroke-width:1.0;"/></g><!--SRC=[LO_12iCm28RlFeNqtbVOfUUmGw5tQQGDos98t7OOU_UMb87n8Ehl_w6PrWTjZCCIgjA0Ny0praYruXBuawMe6JbEB_W1vBzjagH58daflTd9cv-Sh7bcrP2sQhT8ztlcGXearOxin7EK7ZhdmkJhpcov4yTebvfyek12u3ZUiBq7BRVUt0scRjfbEm00]--></g></svg>