<?xml version="1.0" encoding="us-ascii" standalone="no"?><svg xmlns="http://www.w3.org/2000/svg" xmlns:xlink="http://www.w3.org/1999/xlink" contentStyleType="text/css" height="607px" preserveAspectRatio="none" style="width:222px;height:607px;background:#FFFFFF;" version="1.1" viewBox="0 0 222 607" width="222px" zoomAndPan="magnify"><defs/><g><ellipse cx="93.5" cy="16" fill="#222222" rx="10" ry="10" style="stroke:#222222;stroke-width:1.0;"/><g id="CeldaNoSeleccionada"><rect fill="#F1F1F1" height="50" rx="12.5" ry="12.5" style="stroke:#181818;stroke-width:0.5;" width="173" x="7" y="87"/><line style="stroke:#181818;stroke-width:0.5;" x1="7" x2="180" y1="113.2969" y2="113.2969"/><text fill="#000000" font-family="sans-serif" font-size="14" lengthAdjust="spacing" textLength="153" x="17" y="104.9951">CeldaNoSeleccionada</text></g><g id="Seleccionada"><rect fill="#F1F1F1" height="50" rx="12.5" ry="12.5" style="stroke:#181818;stroke-width:0.5;" width="114" x="36.5" y="214"/><line style="stroke:#181818;stroke-width:0.5;" x1="36.5" x2="150.5" y1="240.2969" y2="240.2969"/><text fill="#000000" font-family="sans-serif" font-size="14" lengthAdjust="spacing" textLength="94" x="46.5" y="231.9951">Seleccionada</text></g><g id="Operaci&#243;nAplicada"><rect fill="#F1F1F1" height="50" rx="12.5" ry="12.5" style="stroke:#181818;stroke-width:0.5;" width="155" x="16" y="341"/><line style="stroke:#181818;stroke-width:0.5;" x1="16" x2="171" y1="367.2969" y2="367.2969"/><text fill="#000000" font-family="sans-serif" font-size="14" lengthAdjust="spacing" textLength="135" x="26" y="358.9951">Operaci&#243;nAplicada</text></g><g id="ResultadoMostrado"><rect fill="#F1F1F1" height="50" rx="12.5" ry="12.5" style="stroke:#181818;stroke-width:0.5;" width="158" x="14.5" y="468"/><line style="stroke:#181818;stroke-width:0.5;" x1="14.5" x2="172.5" y1="494.2969" y2="494.2969"/><text fill="#000000" font-family="sans-serif" font-size="14" lengthAdjust="spacing" textLength="138" x="24.5" y="485.9951">ResultadoMostrado</text></g><ellipse cx="93.5" cy="590" fill="none" rx="11" ry="11" style="stroke:#222222;stroke-width:1.0;"/><ellipse cx="93.5" cy="590" fill="#222222" rx="6" ry="6" style="stroke:#222222;stroke-width:1.0;"/><!--link *start* to CeldaNoSeleccionada--><g id="link_*start*_CeldaNoSeleccionada"><path d="M93.5,26.013 C93.5,39.891 93.5,60.965 93.5,80.84 " fill="none" id="*start*-to-CeldaNoSeleccionada" style="stroke:#181818;stroke-width:1.0;"/><polygon fill="#181818" points="93.5,86.84,97.5,77.84,93.5,81.84,89.5,77.84,93.5,86.84" style="stroke:#181818;stroke-width:1.0;"/></g><!--link CeldaNoSeleccionada to Seleccionada--><g id="link_CeldaNoSeleccionada_Seleccionada"><path d="M93.5,137.101 C93.5,159.236 93.5,185.861 93.5,207.973 " fill="none" id="CeldaNoSeleccionada-to-Seleccionada" style="stroke:#181818;stroke-width:1.0;"/><polygon fill="#181818" points="93.5,213.973,97.5,204.973,93.5,208.973,89.5,204.973,93.5,213.973" style="stroke:#181818;stroke-width:1.0;"/><text fill="#000000" font-family="sans-serif" font-size="13" lengthAdjust="spacing" textLength="120" x="94.5" y="180.0669">Seleccionar Celdas</text></g><!--link Seleccionada to Operaci?nAplicada--><g id="link_Seleccionada_Operaci&#243;nAplicada"><path d="M93.5,264.101 C93.5,286.236 93.5,312.861 93.5,334.973 " fill="none" id="Seleccionada-to-Operaci&#243;nAplicada" style="stroke:#181818;stroke-width:1.0;"/><polygon fill="#181818" points="93.5,340.973,97.5,331.973,93.5,335.973,89.5,331.973,93.5,340.973" style="stroke:#181818;stroke-width:1.0;"/><text fill="#000000" font-family="sans-serif" font-size="13" lengthAdjust="spacing" textLength="112" x="94.5" y="307.0669">Aplicar Operaci&#243;n</text></g><!--link Operaci?nAplicada to ResultadoMostrado--><g id="link_Operaci&#243;nAplicada_ResultadoMostrado"><path d="M93.5,391.101 C93.5,413.236 93.5,439.861 93.5,461.973 " fill="none" id="Operaci&#243;nAplicada-to-ResultadoMostrado" style="stroke:#181818;stroke-width:1.0;"/><polygon fill="#181818" points="93.5,467.973,97.5,458.973,93.5,462.973,89.5,458.973,93.5,467.973" style="stroke:#181818;stroke-width:1.0;"/><text fill="#000000" font-family="sans-serif" font-size="13" lengthAdjust="spacing" textLength="116" x="94.5" y="434.0669">Mostrar Resultado</text></g><!--link ResultadoMostrado to *end*--><g id="link_ResultadoMostrado_*end*"><path d="M93.5,518.4649 C93.5,538.0364 93.5,558.4921 93.5,572.7967 " fill="none" id="ResultadoMostrado-to-*end*" style="stroke:#181818;stroke-width:1.0;"/><polygon fill="#181818" points="93.5,578.7967,97.5,569.7967,93.5,573.7967,89.5,569.7967,93.5,578.7967" style="stroke:#181818;stroke-width:1.0;"/></g><!--SRC=[YzQALT3LjLDmJir9IVJB3qxDIKrEpipFIqn9vC8Y1bQB8c25n2s265FCXQ75lo2rA34vy_3cFCU2dCnaY4O8imX9aWkBEf3seDJYqfoIn9Hyt_pYaY8W3TGDOHOXvBWmLO7qHcl50W00]--></g></svg>