<?xml version="1.0" encoding="us-ascii" standalone="no"?><svg xmlns="http://www.w3.org/2000/svg" xmlns:xlink="http://www.w3.org/1999/xlink" contentStyleType="text/css" height="381px" preserveAspectRatio="none" style="width:477px;height:381px;background:#FFFFFF;" version="1.1" viewBox="0 0 477 381" width="477px" zoomAndPan="magnify"><defs/><g><!--class HojaDeCalculo--><g id="elem_HojaDeCalculo"><rect codeLine="1" fill="#F1F1F1" height="129.4844" id="HojaDeCalculo" rx="2.5" ry="2.5" style="stroke:#181818;stroke-width:0.5;" width="191" x="170" y="7"/><ellipse cx="210.65" cy="23" fill="#ADD1B2" rx="11" ry="11" style="stroke:#181818;stroke-width:1.0;"/><path d="M212.9938,18.6719 C212.0563,18.2344 211.4625,18.0938 210.5875,18.0938 C207.9625,18.0938 205.9625,20.1719 205.9625,22.8906 L205.9625,24.0156 C205.9625,26.5938 208.0719,28.4844 210.9625,28.4844 C212.1813,28.4844 213.3375,28.1875 214.0875,27.6406 C214.6656,27.2344 214.9938,26.7813 214.9938,26.3906 C214.9938,25.9375 214.6031,25.5469 214.1344,25.5469 C213.9156,25.5469 213.7125,25.625 213.525,25.8125 C213.0719,26.2969 213.0719,26.2969 212.8844,26.3906 C212.4625,26.6563 211.775,26.7813 211.0094,26.7813 C208.9625,26.7813 207.6656,25.6875 207.6656,23.9844 L207.6656,22.8906 C207.6656,21.1094 208.9156,19.7969 210.65,19.7969 C211.2281,19.7969 211.8375,19.9531 212.3063,20.2031 C212.7906,20.4844 212.9625,20.7031 213.0563,21.1094 C213.1188,21.5156 213.15,21.6406 213.2906,21.7656 C213.4313,21.9063 213.6656,22.0156 213.8844,22.0156 C214.15,22.0156 214.4156,21.875 214.5875,21.6563 C214.6969,21.5 214.7281,21.3125 214.7281,20.8906 L214.7281,19.4688 C214.7281,19.0313 214.7125,18.9063 214.6188,18.75 C214.4625,18.4844 214.1813,18.3438 213.8844,18.3438 C213.5875,18.3438 213.3844,18.4375 213.1656,18.75 L212.9938,18.6719 Z " fill="#000000"/><text fill="#000000" font-family="sans-serif" font-size="14" lengthAdjust="spacing" textLength="102" x="230.35" y="27.8467">HojaDeCalculo</text><line style="stroke:#181818;stroke-width:0.5;" x1="171" x2="360" y1="39" y2="39"/><rect fill="none" height="6" style="stroke:#C82930;stroke-width:1.0;" width="6" x="178" y="49.6484"/><text fill="#000000" font-family="sans-serif" font-size="14" lengthAdjust="spacing" textLength="93" x="190" y="55.9951">sheet: Sheet</text><rect fill="none" height="6" style="stroke:#C82930;stroke-width:1.0;" width="6" x="178" y="65.9453"/><text fill="#000000" font-family="sans-serif" font-size="14" lengthAdjust="spacing" textLength="165" x="190" y="72.292">movement: Movement</text><rect fill="none" height="6" style="stroke:#C82930;stroke-width:1.0;" width="6" x="178" y="82.2422"/><text fill="#000000" font-family="sans-serif" font-size="14" lengthAdjust="spacing" textLength="105" x="190" y="88.5889">input: Scanner</text><line style="stroke:#181818;stroke-width:0.5;" x1="171" x2="360" y1="95.8906" y2="95.8906"/><ellipse cx="181" cy="109.5391" fill="#84BE84" rx="3" ry="3" style="stroke:#038048;stroke-width:1.0;"/><text fill="#000000" font-family="sans-serif" font-size="14" lengthAdjust="spacing" textLength="112" x="190" y="112.8857">HojaDeCalculo()</text><ellipse cx="181" cy="125.8359" fill="#84BE84" rx="3" ry="3" style="stroke:#038048;stroke-width:1.0;"/><text fill="#000000" font-family="sans-serif" font-size="14" lengthAdjust="spacing" textLength="72" x="190" y="129.1826">run(): void</text></g><!--class Sheet--><g id="elem_Sheet"><rect codeLine="9" fill="#F1F1F1" height="178.375" id="Sheet" rx="2.5" ry="2.5" style="stroke:#181818;stroke-width:0.5;" width="143" x="7" y="196"/><ellipse cx="52.75" cy="212" fill="#ADD1B2" rx="11" ry="11" style="stroke:#181818;stroke-width:1.0;"/><path d="M55.0938,207.6719 C54.1563,207.2344 53.5625,207.0938 52.6875,207.0938 C50.0625,207.0938 48.0625,209.1719 48.0625,211.8906 L48.0625,213.0156 C48.0625,215.5938 50.1719,217.4844 53.0625,217.4844 C54.2813,217.4844 55.4375,217.1875 56.1875,216.6406 C56.7656,216.2344 57.0938,215.7813 57.0938,215.3906 C57.0938,214.9375 56.7031,214.5469 56.2344,214.5469 C56.0156,214.5469 55.8125,214.625 55.625,214.8125 C55.1719,215.2969 55.1719,215.2969 54.9844,215.3906 C54.5625,215.6563 53.875,215.7813 53.1094,215.7813 C51.0625,215.7813 49.7656,214.6875 49.7656,212.9844 L49.7656,211.8906 C49.7656,210.1094 51.0156,208.7969 52.75,208.7969 C53.3281,208.7969 53.9375,208.9531 54.4063,209.2031 C54.8906,209.4844 55.0625,209.7031 55.1563,210.1094 C55.2188,210.5156 55.25,210.6406 55.3906,210.7656 C55.5313,210.9063 55.7656,211.0156 55.9844,211.0156 C56.25,211.0156 56.5156,210.875 56.6875,210.6563 C56.7969,210.5 56.8281,210.3125 56.8281,209.8906 L56.8281,208.4688 C56.8281,208.0313 56.8125,207.9063 56.7188,207.75 C56.5625,207.4844 56.2813,207.3438 55.9844,207.3438 C55.6875,207.3438 55.4844,207.4375 55.2656,207.75 L55.0938,207.6719 Z " fill="#000000"/><text fill="#000000" font-family="sans-serif" font-size="14" lengthAdjust="spacing" textLength="43" x="73.25" y="216.8467">Sheet</text><line style="stroke:#181818;stroke-width:0.5;" x1="8" x2="149" y1="228" y2="228"/><rect fill="none" height="6" style="stroke:#C82930;stroke-width:1.0;" width="6" x="15" y="238.6484"/><text fill="#000000" font-family="sans-serif" font-size="14" lengthAdjust="spacing" textLength="62" x="27" y="244.9951">rows: int</text><rect fill="none" height="6" style="stroke:#C82930;stroke-width:1.0;" width="6" x="15" y="254.9453"/><text fill="#000000" font-family="sans-serif" font-size="14" lengthAdjust="spacing" textLength="88" x="27" y="261.292">columns: int</text><ellipse cx="18" cy="274.2422" fill="none" rx="3" ry="3" style="stroke:#038048;stroke-width:1.0;"/><text fill="#000000" font-family="sans-serif" font-size="14" lengthAdjust="spacing" textLength="43" x="27" y="277.5889">Sheet</text><ellipse cx="18" cy="290.5391" fill="none" rx="3" ry="3" style="stroke:#038048;stroke-width:1.0;"/><text fill="#000000" font-family="sans-serif" font-size="14" lengthAdjust="spacing" textLength="89" x="27" y="293.8857">setCellValue</text><ellipse cx="18" cy="306.8359" fill="none" rx="3" ry="3" style="stroke:#038048;stroke-width:1.0;"/><text fill="#000000" font-family="sans-serif" font-size="14" lengthAdjust="spacing" textLength="105" x="27" y="310.1826">setCurrentCell</text><ellipse cx="18" cy="323.1328" fill="none" rx="3" ry="3" style="stroke:#038048;stroke-width:1.0;"/><text fill="#000000" font-family="sans-serif" font-size="14" lengthAdjust="spacing" textLength="80" x="27" y="326.4795">setCellSize</text><line style="stroke:#181818;stroke-width:0.5;" x1="8" x2="149" y1="333.7813" y2="333.7813"/><ellipse cx="18" cy="347.4297" fill="#84BE84" rx="3" ry="3" style="stroke:#038048;stroke-width:1.0;"/><text fill="#000000" font-family="sans-serif" font-size="14" lengthAdjust="spacing" textLength="117" x="27" y="350.7764">getCurrentCell()</text><ellipse cx="18" cy="363.7266" fill="#84BE84" rx="3" ry="3" style="stroke:#038048;stroke-width:1.0;"/><text fill="#000000" font-family="sans-serif" font-size="14" lengthAdjust="spacing" textLength="92" x="27" y="367.0732">getSpacing()</text></g><!--class Movement--><g id="elem_Movement"><rect codeLine="20" fill="#F1F1F1" height="96.8906" id="Movement" rx="2.5" ry="2.5" style="stroke:#181818;stroke-width:0.5;" width="160" x="185.5" y="236.5"/><ellipse cx="223.45" cy="252.5" fill="#ADD1B2" rx="11" ry="11" style="stroke:#181818;stroke-width:1.0;"/><path d="M225.7938,248.1719 C224.8563,247.7344 224.2625,247.5938 223.3875,247.5938 C220.7625,247.5938 218.7625,249.6719 218.7625,252.3906 L218.7625,253.5156 C218.7625,256.0938 220.8719,257.9844 223.7625,257.9844 C224.9813,257.9844 226.1375,257.6875 226.8875,257.1406 C227.4656,256.7344 227.7938,256.2813 227.7938,255.8906 C227.7938,255.4375 227.4031,255.0469 226.9344,255.0469 C226.7156,255.0469 226.5125,255.125 226.325,255.3125 C225.8719,255.7969 225.8719,255.7969 225.6844,255.8906 C225.2625,256.1563 224.575,256.2813 223.8094,256.2813 C221.7625,256.2813 220.4656,255.1875 220.4656,253.4844 L220.4656,252.3906 C220.4656,250.6094 221.7156,249.2969 223.45,249.2969 C224.0281,249.2969 224.6375,249.4531 225.1063,249.7031 C225.5906,249.9844 225.7625,250.2031 225.8563,250.6094 C225.9188,251.0156 225.95,251.1406 226.0906,251.2656 C226.2313,251.4063 226.4656,251.5156 226.6844,251.5156 C226.95,251.5156 227.2156,251.375 227.3875,251.1563 C227.4969,251 227.5281,250.8125 227.5281,250.3906 L227.5281,248.9688 C227.5281,248.5313 227.5125,248.4063 227.4188,248.25 C227.2625,247.9844 226.9813,247.8438 226.6844,247.8438 C226.3875,247.8438 226.1844,247.9375 225.9656,248.25 L225.7938,248.1719 Z " fill="#000000"/><text fill="#000000" font-family="sans-serif" font-size="14" lengthAdjust="spacing" textLength="77" x="242.55" y="257.3467">Movement</text><line style="stroke:#181818;stroke-width:0.5;" x1="186.5" x2="344.5" y1="268.5" y2="268.5"/><ellipse cx="196.5" cy="282.1484" fill="none" rx="3" ry="3" style="stroke:#038048;stroke-width:1.0;"/><text fill="#000000" font-family="sans-serif" font-size="14" lengthAdjust="spacing" textLength="110" x="205.5" y="285.4951">getCurrentRow</text><ellipse cx="196.5" cy="298.4453" fill="none" rx="3" ry="3" style="stroke:#038048;stroke-width:1.0;"/><text fill="#000000" font-family="sans-serif" font-size="14" lengthAdjust="spacing" textLength="134" x="205.5" y="301.792">getCurrentColumn</text><ellipse cx="196.5" cy="314.7422" fill="none" rx="3" ry="3" style="stroke:#038048;stroke-width:1.0;"/><text fill="#000000" font-family="sans-serif" font-size="14" lengthAdjust="spacing" textLength="121" x="205.5" y="318.0889">handleCommand</text><line style="stroke:#181818;stroke-width:0.5;" x1="186.5" x2="344.5" y1="325.3906" y2="325.3906"/></g><!--class Scanner--><g id="elem_Scanner"><rect codeLine="26" fill="#F1F1F1" height="48" id="Scanner" rx="2.5" ry="2.5" style="stroke:#181818;stroke-width:0.5;" width="90" x="380.5" y="261"/><ellipse cx="395.5" cy="277" fill="#ADD1B2" rx="11" ry="11" style="stroke:#181818;stroke-width:1.0;"/><path d="M397.8438,272.6719 C396.9063,272.2344 396.3125,272.0938 395.4375,272.0938 C392.8125,272.0938 390.8125,274.1719 390.8125,276.8906 L390.8125,278.0156 C390.8125,280.5938 392.9219,282.4844 395.8125,282.4844 C397.0313,282.4844 398.1875,282.1875 398.9375,281.6406 C399.5156,281.2344 399.8438,280.7813 399.8438,280.3906 C399.8438,279.9375 399.4531,279.5469 398.9844,279.5469 C398.7656,279.5469 398.5625,279.625 398.375,279.8125 C397.9219,280.2969 397.9219,280.2969 397.7344,280.3906 C397.3125,280.6563 396.625,280.7813 395.8594,280.7813 C393.8125,280.7813 392.5156,279.6875 392.5156,277.9844 L392.5156,276.8906 C392.5156,275.1094 393.7656,273.7969 395.5,273.7969 C396.0781,273.7969 396.6875,273.9531 397.1563,274.2031 C397.6406,274.4844 397.8125,274.7031 397.9063,275.1094 C397.9688,275.5156 398,275.6406 398.1406,275.7656 C398.2813,275.9063 398.5156,276.0156 398.7344,276.0156 C399,276.0156 399.2656,275.875 399.4375,275.6563 C399.5469,275.5 399.5781,275.3125 399.5781,274.8906 L399.5781,273.4688 C399.5781,273.0313 399.5625,272.9063 399.4688,272.75 C399.3125,272.4844 399.0313,272.3438 398.7344,272.3438 C398.4375,272.3438 398.2344,272.4375 398.0156,272.75 L397.8438,272.6719 Z " fill="#000000"/><text fill="#000000" font-family="sans-serif" font-size="14" lengthAdjust="spacing" textLength="58" x="409.5" y="281.8467">Scanner</text><line style="stroke:#181818;stroke-width:0.5;" x1="381.5" x2="469.5" y1="293" y2="293"/><line style="stroke:#181818;stroke-width:0.5;" x1="381.5" x2="469.5" y1="301" y2="301"/></g><!--reverse link HojaDeCalculo to Sheet--><g id="link_HojaDeCalculo_Sheet"><path codeLine="30" d="M201.1915,145.2341 C182.5875,166.2761 169.589,180.977 150.006,203.126 " fill="none" id="HojaDeCalculo-backto-Sheet" style="stroke:#181818;stroke-width:1.0;"/><polygon fill="#181818" points="209.14,136.244,202.1691,138.0896,201.1915,145.2341,208.1625,143.3885,209.14,136.244" style="stroke:#181818;stroke-width:1.0;"/></g><!--reverse link HojaDeCalculo to Movement--><g id="link_HojaDeCalculo_Movement"><path codeLine="31" d="M265.5,148.244 C265.5,180.354 265.5,206.635 265.5,236.185 " fill="none" id="HojaDeCalculo-backto-Movement" style="stroke:#181818;stroke-width:1.0;"/><polygon fill="#181818" points="265.5,136.244,261.5,142.244,265.5,148.244,269.5,142.244,265.5,136.244" style="stroke:#181818;stroke-width:1.0;"/></g><!--reverse link HojaDeCalculo to Scanner--><g id="link_HojaDeCalculo_Scanner"><path codeLine="32" d="M324.5338,145.4504 C339.7188,164.5464 348.744,176.275 363.5,196 C379.733,217.699 397.467,243.049 409.795,260.953 " fill="none" id="HojaDeCalculo-backto-Scanner" style="stroke:#181818;stroke-width:1.0;"/><polygon fill="#181818" points="317.065,136.058,317.6686,143.2438,324.5338,145.4504,323.9302,138.2646,317.065,136.058" style="stroke:#181818;stroke-width:1.0;"/></g><!--SRC=[RP5D3eCW48NtdeAbrdW1jtRHJJSrwPxWH6duCI2QjEdTYpeII6K3-OPvxmqmGQqbD_sYLsYeO4veyic8NnMn0y1KatRT44azWmJbwHrFME1gTEjTHfK2iy4obSqBfCQflAZ9h7cNVRECRGasa-1iz69hhtceCosSL14gerGbiJ0r8CIJ2WU8Ue-SCJxWMWdUDi5fUylVKNSxKiPLxpj3ncDaZ1cRFFJoRxo5HZnGrGbej9J-48szlnSghZpzYajLuTES54AUiwPT-0S0]--></g></svg>