<?xml version="1.0" encoding="us-ascii" standalone="no"?><svg xmlns="http://www.w3.org/2000/svg" xmlns:xlink="http://www.w3.org/1999/xlink" contentStyleType="text/css" height="398px" preserveAspectRatio="none" style="width:705px;height:398px;background:#FFFFFF;" version="1.1" viewBox="0 0 705 398" width="705px" zoomAndPan="magnify"><defs/><g><!--class HojaDeCalculo--><g id="elem_HojaDeCalculo"><rect codeLine="1" fill="#F1F1F1" height="129.4844" id="HojaDeCalculo" rx="2.5" ry="2.5" style="stroke:#181818;stroke-width:0.5;" width="182" x="242" y="7"/><ellipse cx="279.5" cy="23" fill="#ADD1B2" rx="11" ry="11" style="stroke:#181818;stroke-width:1.0;"/><path d="M282.4688,28.6406 Q281.8906,28.9375 281.25,29.0781 Q280.6094,29.2344 279.9063,29.2344 Q277.4063,29.2344 276.0781,27.5938 Q274.7656,25.9375 274.7656,22.8125 Q274.7656,19.6875 276.0781,18.0313 Q277.4063,16.375 279.9063,16.375 Q280.6094,16.375 281.25,16.5313 Q281.9063,16.6875 282.4688,16.9844 L282.4688,19.7031 Q281.8438,19.125 281.25,18.8594 Q280.6563,18.5781 280.0313,18.5781 Q278.6875,18.5781 278,19.6563 Q277.3125,20.7188 277.3125,22.8125 Q277.3125,24.9063 278,25.9844 Q278.6875,27.0469 280.0313,27.0469 Q280.6563,27.0469 281.25,26.7813 Q281.8438,26.5 282.4688,25.9219 L282.4688,28.6406 Z " fill="#000000"/><text fill="#000000" font-family="sans-serif" font-size="14" lengthAdjust="spacing" textLength="100" x="298.5" y="27.8467">HojaDeCalculo</text><line style="stroke:#181818;stroke-width:0.5;" x1="243" x2="423" y1="39" y2="39"/><rect fill="none" height="6" style="stroke:#C82930;stroke-width:1.0;" width="6" x="250" y="49.6484"/><text fill="#000000" font-family="sans-serif" font-size="14" lengthAdjust="spacing" textLength="90" x="262" y="55.9951">sheet: Sheet</text><rect fill="none" height="6" style="stroke:#C82930;stroke-width:1.0;" width="6" x="250" y="65.9453"/><text fill="#000000" font-family="sans-serif" font-size="14" lengthAdjust="spacing" textLength="156" x="262" y="72.292">movement: Movement</text><rect fill="none" height="6" style="stroke:#C82930;stroke-width:1.0;" width="6" x="250" y="82.2422"/><text fill="#000000" font-family="sans-serif" font-size="14" lengthAdjust="spacing" textLength="101" x="262" y="88.5889">input: Scanner</text><line style="stroke:#181818;stroke-width:0.5;" x1="243" x2="423" y1="95.8906" y2="95.8906"/><ellipse cx="253" cy="109.5391" fill="#84BE84" rx="3" ry="3" style="stroke:#038048;stroke-width:1.0;"/><text fill="#000000" font-family="sans-serif" font-size="14" lengthAdjust="spacing" textLength="110" x="262" y="112.8857">HojaDeCalculo()</text><ellipse cx="253" cy="125.8359" fill="#84BE84" rx="3" ry="3" style="stroke:#038048;stroke-width:1.0;"/><text fill="#000000" font-family="sans-serif" font-size="14" lengthAdjust="spacing" textLength="70" x="262" y="129.1826">run(): void</text></g><!--class Sheet--><g id="elem_Sheet"><rect codeLine="9" fill="#F1F1F1" height="194.6719" id="Sheet" rx="2.5" ry="2.5" style="stroke:#181818;stroke-width:0.5;" width="136" x="7" y="196.49"/><ellipse cx="50.35" cy="212.49" fill="#ADD1B2" rx="11" ry="11" style="stroke:#181818;stroke-width:1.0;"/><path d="M53.3188,218.1306 Q52.7406,218.4275 52.1,218.5681 Q51.4594,218.7244 50.7563,218.7244 Q48.2563,218.7244 46.9281,217.0838 Q45.6156,215.4275 45.6156,212.3025 Q45.6156,209.1775 46.9281,207.5213 Q48.2563,205.865 50.7563,205.865 Q51.4594,205.865 52.1,206.0213 Q52.7563,206.1775 53.3188,206.4744 L53.3188,209.1931 Q52.6938,208.615 52.1,208.3494 Q51.5063,208.0681 50.8813,208.0681 Q49.5375,208.0681 48.85,209.1463 Q48.1625,210.2088 48.1625,212.3025 Q48.1625,214.3963 48.85,215.4744 Q49.5375,216.5369 50.8813,216.5369 Q51.5063,216.5369 52.1,216.2713 Q52.6938,215.99 53.3188,215.4119 L53.3188,218.1306 Z " fill="#000000"/><text fill="#000000" font-family="sans-serif" font-size="14" lengthAdjust="spacing" textLength="41" x="70.65" y="217.3367">Sheet</text><line style="stroke:#181818;stroke-width:0.5;" x1="8" x2="142" y1="228.49" y2="228.49"/><rect fill="none" height="6" style="stroke:#C82930;stroke-width:1.0;" width="6" x="15" y="239.1384"/><text fill="#000000" font-family="sans-serif" font-size="14" lengthAdjust="spacing" textLength="59" x="27" y="245.4851">rows: int</text><rect fill="none" height="6" style="stroke:#C82930;stroke-width:1.0;" width="6" x="15" y="255.4353"/><text fill="#000000" font-family="sans-serif" font-size="14" lengthAdjust="spacing" textLength="85" x="27" y="261.782">columns: int</text><ellipse cx="18" cy="274.7322" fill="none" rx="3" ry="3" style="stroke:#038048;stroke-width:1.0;"/><text fill="#000000" font-family="sans-serif" font-size="14" lengthAdjust="spacing" textLength="41" x="27" y="278.0789">Sheet</text><ellipse cx="18" cy="291.0291" fill="none" rx="3" ry="3" style="stroke:#038048;stroke-width:1.0;"/><text fill="#000000" font-family="sans-serif" font-size="14" lengthAdjust="spacing" textLength="85" x="27" y="294.3757">setCellValue</text><ellipse cx="18" cy="307.3259" fill="none" rx="3" ry="3" style="stroke:#038048;stroke-width:1.0;"/><text fill="#000000" font-family="sans-serif" font-size="14" lengthAdjust="spacing" textLength="99" x="27" y="310.6726">setCurrentCell</text><ellipse cx="18" cy="323.6228" fill="none" rx="3" ry="3" style="stroke:#038048;stroke-width:1.0;"/><text fill="#000000" font-family="sans-serif" font-size="14" lengthAdjust="spacing" textLength="76" x="27" y="326.9695">setCellSize</text><line style="stroke:#181818;stroke-width:0.5;" x1="8" x2="142" y1="334.2713" y2="334.2713"/><ellipse cx="18" cy="347.9197" fill="#84BE84" rx="3" ry="3" style="stroke:#038048;stroke-width:1.0;"/><text fill="#000000" font-family="sans-serif" font-size="14" lengthAdjust="spacing" textLength="110" x="27" y="351.2664">getCurrentCell()</text><ellipse cx="18" cy="364.2166" fill="#84BE84" rx="3" ry="3" style="stroke:#038048;stroke-width:1.0;"/><text fill="#000000" font-family="sans-serif" font-size="14" lengthAdjust="spacing" textLength="88" x="27" y="367.5632">getSpacing()</text><ellipse cx="18" cy="380.5134" fill="#84BE84" rx="3" ry="3" style="stroke:#038048;stroke-width:1.0;"/><text fill="#000000" font-family="sans-serif" font-size="14" lengthAdjust="spacing" textLength="106" x="27" y="383.8601">getSheetData()</text></g><!--class Movement--><g id="elem_Movement"><rect codeLine="21" fill="#F1F1F1" height="96.8906" id="Movement" rx="2.5" ry="2.5" style="stroke:#181818;stroke-width:0.5;" width="154" x="178" y="245.38"/><ellipse cx="215.05" cy="261.38" fill="#ADD1B2" rx="11" ry="11" style="stroke:#181818;stroke-width:1.0;"/><path d="M218.0188,267.0206 Q217.4406,267.3175 216.8,267.4581 Q216.1594,267.6144 215.4563,267.6144 Q212.9563,267.6144 211.6281,265.9738 Q210.3156,264.3175 210.3156,261.1925 Q210.3156,258.0675 211.6281,256.4113 Q212.9563,254.755 215.4563,254.755 Q216.1594,254.755 216.8,254.9113 Q217.4563,255.0675 218.0188,255.3644 L218.0188,258.0831 Q217.3938,257.505 216.8,257.2394 Q216.2063,256.9581 215.5813,256.9581 Q214.2375,256.9581 213.55,258.0363 Q212.8625,259.0988 212.8625,261.1925 Q212.8625,263.2863 213.55,264.3644 Q214.2375,265.4269 215.5813,265.4269 Q216.2063,265.4269 216.8,265.1613 Q217.3938,264.88 218.0188,264.3019 L218.0188,267.0206 Z " fill="#000000"/><text fill="#000000" font-family="sans-serif" font-size="14" lengthAdjust="spacing" textLength="73" x="233.95" y="266.2267">Movement</text><line style="stroke:#181818;stroke-width:0.5;" x1="179" x2="331" y1="277.38" y2="277.38"/><ellipse cx="189" cy="291.0284" fill="none" rx="3" ry="3" style="stroke:#038048;stroke-width:1.0;"/><text fill="#000000" font-family="sans-serif" font-size="14" lengthAdjust="spacing" textLength="105" x="198" y="294.3751">getCurrentRow</text><ellipse cx="189" cy="307.3253" fill="none" rx="3" ry="3" style="stroke:#038048;stroke-width:1.0;"/><text fill="#000000" font-family="sans-serif" font-size="14" lengthAdjust="spacing" textLength="128" x="198" y="310.672">getCurrentColumn</text><ellipse cx="189" cy="323.6222" fill="none" rx="3" ry="3" style="stroke:#038048;stroke-width:1.0;"/><text fill="#000000" font-family="sans-serif" font-size="14" lengthAdjust="spacing" textLength="118" x="198" y="326.9689">handleCommand</text><line style="stroke:#181818;stroke-width:0.5;" x1="179" x2="331" y1="334.2706" y2="334.2706"/></g><!--class Scanner--><g id="elem_Scanner"><rect codeLine="27" fill="#F1F1F1" height="48" id="Scanner" rx="2.5" ry="2.5" style="stroke:#181818;stroke-width:0.5;" width="89" x="367.5" y="269.82"/><ellipse cx="382.5" cy="285.82" fill="#ADD1B2" rx="11" ry="11" style="stroke:#181818;stroke-width:1.0;"/><path d="M385.4688,291.4606 Q384.8906,291.7575 384.25,291.8981 Q383.6094,292.0544 382.9063,292.0544 Q380.4063,292.0544 379.0781,290.4138 Q377.7656,288.7575 377.7656,285.6325 Q377.7656,282.5075 379.0781,280.8513 Q380.4063,279.195 382.9063,279.195 Q383.6094,279.195 384.25,279.3513 Q384.9063,279.5075 385.4688,279.8044 L385.4688,282.5231 Q384.8438,281.945 384.25,281.6794 Q383.6563,281.3981 383.0313,281.3981 Q381.6875,281.3981 381,282.4763 Q380.3125,283.5388 380.3125,285.6325 Q380.3125,287.7263 381,288.8044 Q381.6875,289.8669 383.0313,289.8669 Q383.6563,289.8669 384.25,289.6013 Q384.8438,289.32 385.4688,288.7419 L385.4688,291.4606 Z " fill="#000000"/><text fill="#000000" font-family="sans-serif" font-size="14" lengthAdjust="spacing" textLength="57" x="396.5" y="290.6667">Scanner</text><line style="stroke:#181818;stroke-width:0.5;" x1="368.5" x2="455.5" y1="301.82" y2="301.82"/><line style="stroke:#181818;stroke-width:0.5;" x1="368.5" x2="455.5" y1="309.82" y2="309.82"/></g><!--class OperacionesMatematicas--><g id="elem_OperacionesMatematicas"><rect codeLine="31" fill="#F1F1F1" height="145.7813" id="OperacionesMatematicas" rx="2.5" ry="2.5" style="stroke:#181818;stroke-width:0.5;" width="207" x="491.5" y="220.93"/><ellipse cx="506.5" cy="236.93" fill="#ADD1B2" rx="11" ry="11" style="stroke:#181818;stroke-width:1.0;"/><path d="M509.4688,242.5706 Q508.8906,242.8675 508.25,243.0081 Q507.6094,243.1644 506.9063,243.1644 Q504.4063,243.1644 503.0781,241.5238 Q501.7656,239.8675 501.7656,236.7425 Q501.7656,233.6175 503.0781,231.9613 Q504.4063,230.305 506.9063,230.305 Q507.6094,230.305 508.25,230.4613 Q508.9063,230.6175 509.4688,230.9144 L509.4688,233.6331 Q508.8438,233.055 508.25,232.7894 Q507.6563,232.5081 507.0313,232.5081 Q505.6875,232.5081 505,233.5863 Q504.3125,234.6488 504.3125,236.7425 Q504.3125,238.8363 505,239.9144 Q505.6875,240.9769 507.0313,240.9769 Q507.6563,240.9769 508.25,240.7113 Q508.8438,240.43 509.4688,239.8519 L509.4688,242.5706 Z " fill="#000000"/><text fill="#000000" font-family="sans-serif" font-size="14" lengthAdjust="spacing" textLength="175" x="520.5" y="241.7767">OperacionesMatematicas</text><line style="stroke:#181818;stroke-width:0.5;" x1="492.5" x2="697.5" y1="252.93" y2="252.93"/><line style="stroke:#181818;stroke-width:0.5;" x1="492.5" x2="697.5" y1="260.93" y2="260.93"/><ellipse cx="502.5" cy="274.5784" fill="#84BE84" rx="3" ry="3" style="stroke:#038048;stroke-width:1.0;"/><text fill="#000000" font-family="sans-serif" font-size="14" lengthAdjust="spacing" textLength="114" x="511.5" y="277.9251">evaluarFormula()</text><rect fill="#F24D5C" height="6" style="stroke:#C82930;stroke-width:1.0;" width="6" x="499.5" y="287.8753"/><text fill="#000000" font-family="sans-serif" font-size="14" lengthAdjust="spacing" textLength="127" x="511.5" y="294.222">evaluarExpresion()</text><rect fill="#F24D5C" height="6" style="stroke:#C82930;stroke-width:1.0;" width="6" x="499.5" y="304.1722"/><text fill="#000000" font-family="sans-serif" font-size="14" lengthAdjust="spacing" textLength="138" x="511.5" y="310.5189">obtenerValorCelda()</text><rect fill="#F24D5C" height="6" style="stroke:#C82930;stroke-width:1.0;" width="6" x="499.5" y="320.4691"/><text fill="#000000" font-family="sans-serif" font-size="14" lengthAdjust="spacing" textLength="92" x="511.5" y="326.8157">esOperador()</text><rect fill="#F24D5C" height="6" style="stroke:#C82930;stroke-width:1.0;" width="6" x="499.5" y="336.7659"/><text fill="#000000" font-family="sans-serif" font-size="14" lengthAdjust="spacing" textLength="96" x="511.5" y="343.1126">precedencia()</text><rect fill="#F24D5C" height="6" style="stroke:#C82930;stroke-width:1.0;" width="6" x="499.5" y="353.0628"/><text fill="#000000" font-family="sans-serif" font-size="14" lengthAdjust="spacing" textLength="125" x="511.5" y="359.4095">aplicarOperacion()</text></g><!--reverse link HojaDeCalculo to Sheet--><g id="link_HojaDeCalculo_Sheet"><path codeLine="40" d="M231.7718,139.2478 C204.5318,158.5078 185.08,173.85 160,196.49 C154.37,201.57 148.74,207 143.2,212.6 " fill="none" id="HojaDeCalculo-backto-Sheet" style="stroke:#181818;stroke-width:1.0;"/><polygon fill="#181818" points="241.57,132.32,234.3616,132.5178,231.7718,139.2478,238.9802,139.05,241.57,132.32" style="stroke:#181818;stroke-width:1.0;"/></g><!--reverse link HojaDeCalculo to Movement--><g id="link_HojaDeCalculo_Movement"><path codeLine="41" d="M306.3204,148.0103 C294.0404,182.6503 283.14,213.43 271.89,245.17 " fill="none" id="HojaDeCalculo-backto-Movement" style="stroke:#181818;stroke-width:1.0;"/><polygon fill="#181818" points="310.33,136.7,304.5551,141.0186,306.3204,148.0103,312.0953,143.6917,310.33,136.7" style="stroke:#181818;stroke-width:1.0;"/></g><!--reverse link HojaDeCalculo to Scanner--><g id="link_HojaDeCalculo_Scanner"><path codeLine="42" d="M360.0147,147.9942 C376.0047,192.5342 392.35,238.09 403.6,269.43 " fill="none" id="HojaDeCalculo-backto-Scanner" style="stroke:#181818;stroke-width:1.0;"/><polygon fill="#181818" points="355.96,136.7,354.2226,143.6987,360.0147,147.9942,361.7521,140.9956,355.96,136.7" style="stroke:#181818;stroke-width:1.0;"/></g><!--reverse link HojaDeCalculo to OperacionesMatematicas--><g id="link_HojaDeCalculo_OperacionesMatematicas"><path codeLine="43" d="M418.3192,144.4174 C449.5992,170.6874 476.78,193.52 509.01,220.59 " fill="none" id="HojaDeCalculo-backto-OperacionesMatematicas" style="stroke:#181818;stroke-width:1.0;"/><polygon fill="#181818" points="409.13,136.7,411.1521,143.6218,418.3192,144.4174,416.2971,137.4956,409.13,136.7" style="stroke:#181818;stroke-width:1.0;"/></g><!--SRC=[RP9DReCm48NtdCBBf14NO4jQTHDL2bBtKpDANDaUv1zIjUhTEn3Z61KsMDzuvhrv83LuBrxf4uxOWfPHa_Yf13-ry5V4q8XkUYLaQ4I3bkafdL91sI5EToLOYsw6X_NOtJvH5-rktuYHL5_zLfMS7SmYMTdHpJSySvakIKTZ2tGeN1s4nz2Yrk-W8oPqOHITOuDJ9Mlx5LwtT-gxwEu6aCfUSkU49iaZ162OZIyv9E-byfbk_ztCcoHy1TjhRCaOFXHPt4DC4n_yRK37fiYYFq500q59y5aOHzuVt0iv4pKau_M2dxy6XvwRSu4-0h8CfqQEz- -B5ZzBzUGoucQ9FLgf7jTWq6p0PLltMDR_qbDTfs-xKSZPRJMb43PAspdy0G00]--></g></svg>