<?xml version="1.0" encoding="us-ascii" standalone="no"?><svg xmlns="http://www.w3.org/2000/svg" xmlns:xlink="http://www.w3.org/1999/xlink" contentStyleType="text/css" height="419px" preserveAspectRatio="none" style="width:821px;height:419px;background:#FFFFFF;" version="1.1" viewBox="0 0 821 419" width="821px" zoomAndPan="magnify"><defs/><g><!--cluster Movimiento--><g id="cluster_Movimiento"><path d="M24.5,6 L108.5,6 A3.75,3.75 0 0 1 111,8.5 L118,29.6094 L262.5,29.6094 A2.5,2.5 0 0 1 265,32.1094 L265,111.5 A2.5,2.5 0 0 1 262.5,114 L24.5,114 A2.5,2.5 0 0 1 22,111.5 L22,8.5 A2.5,2.5 0 0 1 24.5,6 " fill="none" style="stroke:#000000;stroke-width:1.5;"/><line style="stroke:#000000;stroke-width:1.5;" x1="22" x2="118" y1="29.6094" y2="29.6094"/><text fill="#000000" font-family="sans-serif" font-size="14" font-weight="bold" lengthAdjust="spacing" textLength="83" x="26" y="22.5332">Movimiento</text></g><!--cluster Salida--><g id="cluster_Salida"><path d="M24.5,307 L67.5,307 A3.75,3.75 0 0 1 70,309.5 L77,330.6094 L248.5,330.6094 A2.5,2.5 0 0 1 251,333.1094 L251,409.5 A2.5,2.5 0 0 1 248.5,412 L24.5,412 A2.5,2.5 0 0 1 22,409.5 L22,309.5 A2.5,2.5 0 0 1 24.5,307 " fill="none" style="stroke:#000000;stroke-width:1.5;"/><line style="stroke:#000000;stroke-width:1.5;" x1="22" x2="77" y1="330.6094" y2="330.6094"/><text fill="#000000" font-family="sans-serif" font-size="14" font-weight="bold" lengthAdjust="spacing" textLength="42" x="26" y="323.5332">Salida</text></g><!--cluster IntroducirDatos--><g id="cluster_IntroducirDatos"><path d="M83.5,157 L193.5,157 A3.75,3.75 0 0 1 196,159.5 L203,180.6094 L502.5,180.6094 A2.5,2.5 0 0 1 505,183.1094 L505,261.5 A2.5,2.5 0 0 1 502.5,264 L83.5,264 A2.5,2.5 0 0 1 81,261.5 L81,159.5 A2.5,2.5 0 0 1 83.5,157 " fill="none" style="stroke:#000000;stroke-width:1.5;"/><line style="stroke:#000000;stroke-width:1.5;" x1="81" x2="203" y1="180.6094" y2="180.6094"/><text fill="#000000" font-family="sans-serif" font-size="14" font-weight="bold" lengthAdjust="spacing" textLength="109" x="85" y="173.5332">IntroducirDatos</text></g><!--cluster CambiarTama?oCelda--><g id="cluster_CambiarTama&#241;oCelda"><path d="M547.5,154 L699.5,154 A3.75,3.75 0 0 1 702,156.5 L709,177.6094 L811.5,177.6094 A2.5,2.5 0 0 1 814,180.1094 L814,264.5 A2.5,2.5 0 0 1 811.5,267 L547.5,267 A2.5,2.5 0 0 1 545,264.5 L545,156.5 A2.5,2.5 0 0 1 547.5,154 " fill="none" style="stroke:#000000;stroke-width:1.5;"/><line style="stroke:#000000;stroke-width:1.5;" x1="545" x2="709" y1="177.6094" y2="177.6094"/><text fill="#000000" font-family="sans-serif" font-size="14" font-weight="bold" lengthAdjust="spacing" textLength="151" x="549" y="170.5332">CambiarTama&#241;oCelda</text></g><g id="elem_UC1"><ellipse cx="152.8193" cy="69.9639" fill="#F1F1F1" rx="87.8193" ry="19.9639" style="stroke:#181818;stroke-width:0.5;"/><text fill="#000000" font-family="sans-serif" font-size="14" lengthAdjust="spacing" textLength="133" x="86.3193" y="73.6924">Registrar Movimiento</text></g><g id="elem_UC4"><ellipse cx="146.1887" cy="369.5377" fill="#F1F1F1" rx="80.6887" ry="18.5377" style="stroke:#181818;stroke-width:0.5;"/><text fill="#000000" font-family="sans-serif" font-size="14" lengthAdjust="spacing" textLength="116" x="87.5015" y="373.4661">Salir del programa</text></g><g id="elem_UC2"><ellipse cx="405.981" cy="220.2962" fill="#F1F1F1" rx="74.481" ry="17.2962" style="stroke:#181818;stroke-width:0.5;"/><text fill="#000000" font-family="sans-serif" font-size="14" lengthAdjust="spacing" textLength="100" x="352.981" y="224.8128">Introducir Datos</text></g><g id="elem_UC3"><ellipse cx="210.1163" cy="220.6233" fill="#F1F1F1" rx="86.1163" ry="19.6233" style="stroke:#181818;stroke-width:0.5;"/><text fill="#000000" font-family="sans-serif" font-size="14" lengthAdjust="spacing" textLength="129" x="145.6163" y="224.3518">Introducir Operaci&#243;n</text></g><g id="elem_UC5"><ellipse cx="689.0042" cy="220.5008" fill="#F1F1F1" rx="100.5042" ry="22.5008" style="stroke:#181818;stroke-width:0.5;"/><text fill="#000000" font-family="sans-serif" font-size="14" lengthAdjust="spacing" textLength="162" x="608.0042" y="224.2293">Cambiar tama&#241;o de celda</text></g><!--entity Usuario--><g id="elem_Usuario"><ellipse cx="30" cy="190" fill="#F1F1F1" rx="8" ry="8" style="stroke:#181818;stroke-width:0.5;"/><path d="M30,198 L30,225 M17,206 L43,206 M30,225 L17,240 M30,225 L43,240 " fill="none" style="stroke:#181818;stroke-width:0.5;"/><text fill="#000000" font-family="sans-serif" font-size="14" lengthAdjust="spacing" textLength="48" x="6" y="256.0332">Usuario</text></g><!--reverse link Movimiento to Usuario--><g id="link_Movimiento_Usuario"><path d="M30,120.2176 C30,121.6145 30,118.0728 30,119.5012 C30,122.358 30,125.2728 30,128.2256 C30,134.1312 30,140.1887 30,146.2375 C30,158.335 30,170.3975 30,181.14 " fill="none" id="Movimiento-backto-Usuario" style="stroke:#181818;stroke-width:1.0;"/><polygon fill="#181818" points="30,114.2176,26,123.2176,30,119.2176,34,123.2176,30,114.2176" style="stroke:#181818;stroke-width:1.0;"/></g><!--link Usuario to Salida--><g id="link_Usuario_Salida"><path d="M30,259.74 C30,270.4575 30,282.4869 30,294.5333 C30,297.5449 30,300.5575 30,303.551 C30,304.2994 30,305.0466 30,305.7923 C30,306.1651 30,300.5375 30,300.9096 " fill="none" id="Usuario-to-Salida" style="stroke:#181818;stroke-width:1.0;"/><polygon fill="#181818" points="30,306.9096,34,297.9096,30,301.9096,26,297.9096,30,306.9096" style="stroke:#181818;stroke-width:1.0;"/></g><!--link Usuario to IntroducirDatos--><g id="link_Usuario_IntroducirDatos"><path d="M54.43,220.5 C60.1,220.5 65.7725,220.5 71.445,220.5 C74.2813,220.5 77.1175,220.5 79.9534,220.5 C80.1307,220.5 80.3079,220.5 80.4852,220.5 C80.5738,220.5 80.6624,220.5 80.751,220.5 C80.7953,220.5 74.8397,220.5 74.884,220.5 " fill="none" id="Usuario-to-IntroducirDatos" style="stroke:#181818;stroke-width:1.0;"/><polygon fill="#181818" points="80.884,220.5,71.884,216.5,75.884,220.5,71.884,224.5,80.884,220.5" style="stroke:#181818;stroke-width:1.0;"/></g><!--reverse link CambiarTama?oCelda to Usuario--><g id="link_CambiarTama&#241;oCelda_Usuario"><path d="M542.4427,195.6645 C542.3377,195.4404 544.6133,200.3168 544.5063,200.0903 C544.0784,199.1843 543.6345,198.2587 543.1748,197.3157 C541.3359,193.5438 539.2431,189.4941 536.9,185.3112 C527.5275,168.58 514.15,149.72 497,138 C490.41,133.5 487.43,134.89 479.5,134 C436.55,129.15 133.45,129.15 90.5,134 C82.57,134.89 79.31,133.12 73,138 C58.94,148.86 49.02,165.62 42.28,181.2 " fill="none" id="CambiarTama&#241;oCelda-backto-Usuario" style="stroke:#181818;stroke-width:1.0;"/><polygon fill="#181818" points="544.981,201.1011,544.798,191.2539,542.8657,196.5706,537.5491,194.6383,544.981,201.1011" style="stroke:#181818;stroke-width:1.0;"/></g><!--SRC=[TP0nRiCm34LtdOBmxY5fisPnbWn5WRO-02Cp3b7RD2Wv7OeUgkWHVB7AiG0PRghn_yUlJwBreb2w0PN5c1xjEzO4JtBbbgdpycaWlC6HHKUGlL3DpYlg0ia07PJ5ndobW5TikCBLy2GgLDH0hr8hjXX77vUZnywhL8DbFQ0Njyf8BjpicB3zbthkIT7o-DD5z67vMO7jYL7VGfVnMmfg_fIE1FWP2VN1JbXCsqrfyNwG3ts-Nrmc6PLyTC6Qpv9avVhYWxxQEG4DdIV_Jatp2m00]--></g></svg>