<?xml version="1.0" encoding="us-ascii" standalone="no"?><svg xmlns="http://www.w3.org/2000/svg" xmlns:xlink="http://www.w3.org/1999/xlink" contentStyleType="text/css" height="243px" preserveAspectRatio="none" style="width:995px;height:243px;background:#FFFFFF;" version="1.1" viewBox="0 0 995 243" width="995px" zoomAndPan="magnify"><defs/><g><!--cluster Vista--><g id="cluster_Vista"><path d="M344.5,121 L384.5,121 A3.75,3.75 0 0 1 387,123.5 L394,143.2969 L664.5,143.2969 A2.5,2.5 0 0 1 667,145.7969 L667,233.5 A2.5,2.5 0 0 1 664.5,236 L344.5,236 A2.5,2.5 0 0 1 342,233.5 L342,123.5 A2.5,2.5 0 0 1 344.5,121 " fill="none" style="stroke:#000000;stroke-width:1.5;"/><line style="stroke:#000000;stroke-width:1.5;" x1="342" x2="394" y1="143.2969" y2="143.2969"/><text fill="#000000" font-family="sans-serif" font-size="14" font-weight="bold" lengthAdjust="spacing" textLength="39" x="346" y="135.9951">Vista</text></g><!--cluster Controlador--><g id="cluster_Controlador"><path d="M8.5,6 L103.5,6 A3.75,3.75 0 0 1 106,8.5 L113,28.2969 L299.5,28.2969 A2.5,2.5 0 0 1 302,30.7969 L302,233.5 A2.5,2.5 0 0 1 299.5,236 L8.5,236 A2.5,2.5 0 0 1 6,233.5 L6,8.5 A2.5,2.5 0 0 1 8.5,6 " fill="none" style="stroke:#000000;stroke-width:1.5;"/><line style="stroke:#000000;stroke-width:1.5;" x1="6" x2="113" y1="28.2969" y2="28.2969"/><text fill="#000000" font-family="sans-serif" font-size="14" font-weight="bold" lengthAdjust="spacing" textLength="94" x="10" y="20.9951">Controlador</text></g><!--cluster Modelo--><g id="cluster_Modelo"><path d="M709.5,6 L767.5,6 A3.75,3.75 0 0 1 770,8.5 L777,28.2969 L985.5,28.2969 A2.5,2.5 0 0 1 988,30.7969 L988,233.5 A2.5,2.5 0 0 1 985.5,236 L709.5,236 A2.5,2.5 0 0 1 707,233.5 L707,8.5 A2.5,2.5 0 0 1 709.5,6 " fill="none" style="stroke:#000000;stroke-width:1.5;"/><line style="stroke:#000000;stroke-width:1.5;" x1="707" x2="777" y1="28.2969" y2="28.2969"/><text fill="#000000" font-family="sans-serif" font-size="14" font-weight="bold" lengthAdjust="spacing" textLength="57" x="711" y="20.9951">Modelo</text></g><!--class Viewport--><g id="elem_Viewport"><rect codeLine="2" fill="#F1F1F1" height="48" id="Viewport" rx="2.5" ry="2.5" style="stroke:#181818;stroke-width:0.5;" width="92" x="366" y="164"/><ellipse cx="381" cy="180" fill="#ADD1B2" rx="11" ry="11" style="stroke:#181818;stroke-width:1.0;"/><path d="M383.9688,185.6406 Q383.3906,185.9375 382.75,186.0781 Q382.1094,186.2344 381.4063,186.2344 Q378.9063,186.2344 377.5781,184.5938 Q376.2656,182.9375 376.2656,179.8125 Q376.2656,176.6875 377.5781,175.0313 Q378.9063,173.375 381.4063,173.375 Q382.1094,173.375 382.75,173.5313 Q383.4063,173.6875 383.9688,173.9844 L383.9688,176.7031 Q383.3438,176.125 382.75,175.8594 Q382.1563,175.5781 381.5313,175.5781 Q380.1875,175.5781 379.5,176.6563 Q378.8125,177.7188 378.8125,179.8125 Q378.8125,181.9063 379.5,182.9844 Q380.1875,184.0469 381.5313,184.0469 Q382.1563,184.0469 382.75,183.7813 Q383.3438,183.5 383.9688,182.9219 L383.9688,185.6406 Z " fill="#000000"/><text fill="#000000" font-family="sans-serif" font-size="14" lengthAdjust="spacing" textLength="60" x="395" y="184.8467">Viewport</text><line style="stroke:#181818;stroke-width:0.5;" x1="367" x2="457" y1="196" y2="196"/><line style="stroke:#181818;stroke-width:0.5;" x1="367" x2="457" y1="204" y2="204"/></g><!--class MenuInterface--><g id="elem_MenuInterface"><rect codeLine="3" fill="#F1F1F1" height="48" id="MenuInterface" rx="2.5" ry="2.5" style="stroke:#181818;stroke-width:0.5;" width="131" x="492.5" y="164"/><ellipse cx="507.5" cy="180" fill="#ADD1B2" rx="11" ry="11" style="stroke:#181818;stroke-width:1.0;"/><path d="M510.4688,185.6406 Q509.8906,185.9375 509.25,186.0781 Q508.6094,186.2344 507.9063,186.2344 Q505.4063,186.2344 504.0781,184.5938 Q502.7656,182.9375 502.7656,179.8125 Q502.7656,176.6875 504.0781,175.0313 Q505.4063,173.375 507.9063,173.375 Q508.6094,173.375 509.25,173.5313 Q509.9063,173.6875 510.4688,173.9844 L510.4688,176.7031 Q509.8438,176.125 509.25,175.8594 Q508.6563,175.5781 508.0313,175.5781 Q506.6875,175.5781 506,176.6563 Q505.3125,177.7188 505.3125,179.8125 Q505.3125,181.9063 506,182.9844 Q506.6875,184.0469 508.0313,184.0469 Q508.6563,184.0469 509.25,183.7813 Q509.8438,183.5 510.4688,182.9219 L510.4688,185.6406 Z " fill="#000000"/><text fill="#000000" font-family="sans-serif" font-size="14" lengthAdjust="spacing" textLength="99" x="521.5" y="184.8467">MenuInterface</text><line style="stroke:#181818;stroke-width:0.5;" x1="493.5" x2="622.5" y1="196" y2="196"/><line style="stroke:#181818;stroke-width:0.5;" x1="493.5" x2="622.5" y1="204" y2="204"/></g><!--class Movement--><g id="elem_Movement"><rect codeLine="7" fill="#F1F1F1" height="48" id="Movement" rx="2.5" ry="2.5" style="stroke:#181818;stroke-width:0.5;" width="105" x="29.5" y="49"/><ellipse cx="44.5" cy="65" fill="#ADD1B2" rx="11" ry="11" style="stroke:#181818;stroke-width:1.0;"/><path d="M47.4688,70.6406 Q46.8906,70.9375 46.25,71.0781 Q45.6094,71.2344 44.9063,71.2344 Q42.4063,71.2344 41.0781,69.5938 Q39.7656,67.9375 39.7656,64.8125 Q39.7656,61.6875 41.0781,60.0313 Q42.4063,58.375 44.9063,58.375 Q45.6094,58.375 46.25,58.5313 Q46.9063,58.6875 47.4688,58.9844 L47.4688,61.7031 Q46.8438,61.125 46.25,60.8594 Q45.6563,60.5781 45.0313,60.5781 Q43.6875,60.5781 43,61.6563 Q42.3125,62.7188 42.3125,64.8125 Q42.3125,66.9063 43,67.9844 Q43.6875,69.0469 45.0313,69.0469 Q45.6563,69.0469 46.25,68.7813 Q46.8438,68.5 47.4688,67.9219 L47.4688,70.6406 Z " fill="#000000"/><text fill="#000000" font-family="sans-serif" font-size="14" lengthAdjust="spacing" textLength="73" x="58.5" y="69.8467">Movement</text><line style="stroke:#181818;stroke-width:0.5;" x1="30.5" x2="133.5" y1="81" y2="81"/><line style="stroke:#181818;stroke-width:0.5;" x1="30.5" x2="133.5" y1="89" y2="89"/></g><!--class Settings--><g id="elem_Settings"><rect codeLine="8" fill="#F1F1F1" height="48" id="Settings" rx="2.5" ry="2.5" style="stroke:#181818;stroke-width:0.5;" width="89" x="169.5" y="49"/><ellipse cx="184.5" cy="65" fill="#ADD1B2" rx="11" ry="11" style="stroke:#181818;stroke-width:1.0;"/><path d="M187.4688,70.6406 Q186.8906,70.9375 186.25,71.0781 Q185.6094,71.2344 184.9063,71.2344 Q182.4063,71.2344 181.0781,69.5938 Q179.7656,67.9375 179.7656,64.8125 Q179.7656,61.6875 181.0781,60.0313 Q182.4063,58.375 184.9063,58.375 Q185.6094,58.375 186.25,58.5313 Q186.9063,58.6875 187.4688,58.9844 L187.4688,61.7031 Q186.8438,61.125 186.25,60.8594 Q185.6563,60.5781 185.0313,60.5781 Q183.6875,60.5781 183,61.6563 Q182.3125,62.7188 182.3125,64.8125 Q182.3125,66.9063 183,67.9844 Q183.6875,69.0469 185.0313,69.0469 Q185.6563,69.0469 186.25,68.7813 Q186.8438,68.5 187.4688,67.9219 L187.4688,70.6406 Z " fill="#000000"/><text fill="#000000" font-family="sans-serif" font-size="14" lengthAdjust="spacing" textLength="57" x="198.5" y="69.8467">Settings</text><line style="stroke:#181818;stroke-width:0.5;" x1="170.5" x2="257.5" y1="81" y2="81"/><line style="stroke:#181818;stroke-width:0.5;" x1="170.5" x2="257.5" y1="89" y2="89"/></g><!--class MathOperations--><g id="elem_MathOperations"><rect codeLine="9" fill="#F1F1F1" height="48" id="MathOperations" rx="2.5" ry="2.5" style="stroke:#181818;stroke-width:0.5;" width="142" x="30" y="164"/><ellipse cx="45" cy="180" fill="#ADD1B2" rx="11" ry="11" style="stroke:#181818;stroke-width:1.0;"/><path d="M47.9688,185.6406 Q47.3906,185.9375 46.75,186.0781 Q46.1094,186.2344 45.4063,186.2344 Q42.9063,186.2344 41.5781,184.5938 Q40.2656,182.9375 40.2656,179.8125 Q40.2656,176.6875 41.5781,175.0313 Q42.9063,173.375 45.4063,173.375 Q46.1094,173.375 46.75,173.5313 Q47.4063,173.6875 47.9688,173.9844 L47.9688,176.7031 Q47.3438,176.125 46.75,175.8594 Q46.1563,175.5781 45.5313,175.5781 Q44.1875,175.5781 43.5,176.6563 Q42.8125,177.7188 42.8125,179.8125 Q42.8125,181.9063 43.5,182.9844 Q44.1875,184.0469 45.5313,184.0469 Q46.1563,184.0469 46.75,183.7813 Q47.3438,183.5 47.9688,182.9219 L47.9688,185.6406 Z " fill="#000000"/><text fill="#000000" font-family="sans-serif" font-size="14" lengthAdjust="spacing" textLength="110" x="59" y="184.8467">MathOperations</text><line style="stroke:#181818;stroke-width:0.5;" x1="31" x2="171" y1="196" y2="196"/><line style="stroke:#181818;stroke-width:0.5;" x1="31" x2="171" y1="204" y2="204"/></g><!--class Spreadsheet--><g id="elem_Spreadsheet"><rect codeLine="13" fill="#F1F1F1" height="48" id="Spreadsheet" rx="2.5" ry="2.5" style="stroke:#181818;stroke-width:0.5;" width="121" x="750.5" y="49"/><ellipse cx="765.5" cy="65" fill="#ADD1B2" rx="11" ry="11" style="stroke:#181818;stroke-width:1.0;"/><path d="M768.4688,70.6406 Q767.8906,70.9375 767.25,71.0781 Q766.6094,71.2344 765.9063,71.2344 Q763.4063,71.2344 762.0781,69.5938 Q760.7656,67.9375 760.7656,64.8125 Q760.7656,61.6875 762.0781,60.0313 Q763.4063,58.375 765.9063,58.375 Q766.6094,58.375 767.25,58.5313 Q767.9063,58.6875 768.4688,58.9844 L768.4688,61.7031 Q767.8438,61.125 767.25,60.8594 Q766.6563,60.5781 766.0313,60.5781 Q764.6875,60.5781 764,61.6563 Q763.3125,62.7188 763.3125,64.8125 Q763.3125,66.9063 764,67.9844 Q764.6875,69.0469 766.0313,69.0469 Q766.6563,69.0469 767.25,68.7813 Q767.8438,68.5 768.4688,67.9219 L768.4688,70.6406 Z " fill="#000000"/><text fill="#000000" font-family="sans-serif" font-size="14" lengthAdjust="spacing" textLength="89" x="779.5" y="69.8467">Spreadsheet</text><line style="stroke:#181818;stroke-width:0.5;" x1="751.5" x2="870.5" y1="81" y2="81"/><line style="stroke:#181818;stroke-width:0.5;" x1="751.5" x2="870.5" y1="89" y2="89"/></g><!--class Cell--><g id="elem_Cell"><rect codeLine="14" fill="#F1F1F1" height="48" id="Cell" rx="2.5" ry="2.5" style="stroke:#181818;stroke-width:0.5;" width="57" x="906.5" y="49"/><ellipse cx="921.5" cy="65" fill="#ADD1B2" rx="11" ry="11" style="stroke:#181818;stroke-width:1.0;"/><path d="M924.4688,70.6406 Q923.8906,70.9375 923.25,71.0781 Q922.6094,71.2344 921.9063,71.2344 Q919.4063,71.2344 918.0781,69.5938 Q916.7656,67.9375 916.7656,64.8125 Q916.7656,61.6875 918.0781,60.0313 Q919.4063,58.375 921.9063,58.375 Q922.6094,58.375 923.25,58.5313 Q923.9063,58.6875 924.4688,58.9844 L924.4688,61.7031 Q923.8438,61.125 923.25,60.8594 Q922.6563,60.5781 922.0313,60.5781 Q920.6875,60.5781 920,61.6563 Q919.3125,62.7188 919.3125,64.8125 Q919.3125,66.9063 920,67.9844 Q920.6875,69.0469 922.0313,69.0469 Q922.6563,69.0469 923.25,68.7813 Q923.8438,68.5 924.4688,67.9219 L924.4688,70.6406 Z " fill="#000000"/><text fill="#000000" font-family="sans-serif" font-size="14" lengthAdjust="spacing" textLength="25" x="935.5" y="69.8467">Cell</text><line style="stroke:#181818;stroke-width:0.5;" x1="907.5" x2="962.5" y1="81" y2="81"/><line style="stroke:#181818;stroke-width:0.5;" x1="907.5" x2="962.5" y1="89" y2="89"/></g><!--class Sheet--><g id="elem_Sheet"><rect codeLine="15" fill="#F1F1F1" height="48" id="Sheet" rx="2.5" ry="2.5" style="stroke:#181818;stroke-width:0.5;" width="73" x="774.5" y="164"/><ellipse cx="789.5" cy="180" fill="#ADD1B2" rx="11" ry="11" style="stroke:#181818;stroke-width:1.0;"/><path d="M792.4688,185.6406 Q791.8906,185.9375 791.25,186.0781 Q790.6094,186.2344 789.9063,186.2344 Q787.4063,186.2344 786.0781,184.5938 Q784.7656,182.9375 784.7656,179.8125 Q784.7656,176.6875 786.0781,175.0313 Q787.4063,173.375 789.9063,173.375 Q790.6094,173.375 791.25,173.5313 Q791.9063,173.6875 792.4688,173.9844 L792.4688,176.7031 Q791.8438,176.125 791.25,175.8594 Q790.6563,175.5781 790.0313,175.5781 Q788.6875,175.5781 788,176.6563 Q787.3125,177.7188 787.3125,179.8125 Q787.3125,181.9063 788,182.9844 Q788.6875,184.0469 790.0313,184.0469 Q790.6563,184.0469 791.25,183.7813 Q791.8438,183.5 792.4688,182.9219 L792.4688,185.6406 Z " fill="#000000"/><text fill="#000000" font-family="sans-serif" font-size="14" lengthAdjust="spacing" textLength="41" x="803.5" y="184.8467">Sheet</text><line style="stroke:#181818;stroke-width:0.5;" x1="775.5" x2="846.5" y1="196" y2="196"/><line style="stroke:#181818;stroke-width:0.5;" x1="775.5" x2="846.5" y1="204" y2="204"/></g><!--link Modelo to Vista--><g id="link_Modelo_Vista"><path codeLine="19" d="M706.9357,90.2708 C706.8586,90.4264 706.7811,90.5828 706.7032,90.74 C706.3915,91.369 706.0731,92.0113 705.7486,92.6661 C700.5559,103.1434 693.7719,116.8319 686.9888,130.5187 C680.2056,144.2056 673.4234,157.8909 668.2345,168.362 C667.9102,169.0165 667.5921,169.6584 667.2807,170.2869 C667.2028,170.444 669.7894,165.2242 669.7124,165.3797 " fill="none" id="Modelo-to-Vista" style="stroke:#181818;stroke-width:1.0;"/><polygon fill="#181818" points="667.0483,170.7558,674.6285,164.4677,669.2684,166.2757,667.4603,160.9156,667.0483,170.7558" style="stroke:#181818;stroke-width:1.0;"/></g><!--link Vista to Controlador--><g id="link_Vista_Controlador"><path codeLine="20" d="M650.9292,120.6824 C650.8658,120.5562 650.802,120.4302 650.7378,120.3044 C650.6093,120.0529 650.4792,119.8023 650.3474,119.5528 C650.0838,119.0538 649.8135,118.559 649.5363,118.0685 C648.9819,117.0876 648.4,116.1245 647.7894,115.1816 C645.3467,111.41 642.4438,107.9625 639,105 C624.53,92.545 539.51,84.8175 457.5,80.1925 C416.495,77.88 376.2425,76.3431 345.9375,75.3788 C330.785,74.8966 318.1194,74.5575 309.09,74.3362 C306.8327,74.2808 304.8026,74.2329 303.0177,74.1919 C302.7946,74.1867 308.5738,74.3184 308.3584,74.3135 " fill="none" id="Vista-to-Controlador" style="stroke:#181818;stroke-width:1.0;"/><polygon fill="#181818" points="302.3599,74.1768,311.2665,78.3808,307.3586,74.2907,311.4487,70.3829,302.3599,74.1768" style="stroke:#181818;stroke-width:1.0;"/></g><!--link Controlador to Modelo--><g id="link_Controlador_Modelo"><path codeLine="21" d="M303.0108,73 C303.5569,73 304.1029,73 304.649,73 C305.7411,73 306.8332,73 307.9253,73 C312.2937,73 316.6621,73 321.0305,73 C329.7673,73 338.5041,73 347.2408,73 C364.7143,73 382.1877,73 399.6609,73 C434.6075,73 469.5538,73 504.5,73 C539.4463,73 574.3925,73 609.3391,73 C626.8123,73 644.2857,73 661.7592,73 C670.4959,73 679.2327,73 687.9695,73 C692.3379,73 696.7063,73 701.0747,73 C702.1668,73 703.2589,73 704.351,73 C704.8971,73 705.4431,73 705.9892,73 C706.2622,73 700.5352,73 700.8083,73 " fill="none" id="Controlador-to-Modelo" style="stroke:#181818;stroke-width:1.0;"/><polygon fill="#181818" points="706.8083,73,697.8083,69,701.8083,73,697.8083,77,706.8083,73" style="stroke:#181818;stroke-width:1.0;"/></g><!--SRC=[LOyn2iCm34LtdK9apnMwPEeGEWIoY-GtCNKjOwlj47ht1eU2eq58-leFAShqa0NSZ2wRDBmHxp5voPb7Xq_KPDMeHtXTWo7TPG9zYUBVtscmf5vcJMTAhsyy4MhA03CNbbnlYQstY2JcDEGJkTSPNi_G8IR8d5UWvdRmlbugyewY0y5jU-7o9vLS-kfkgchUfSFr0m00]--></g></svg>