<?xml version="1.0" encoding="us-ascii" standalone="no"?><svg xmlns="http://www.w3.org/2000/svg" xmlns:xlink="http://www.w3.org/1999/xlink" contentStyleType="text/css" height="611px" preserveAspectRatio="none" style="width:661px;height:611px;background:#FFFFFF;" version="1.1" viewBox="0 0 661 611" width="661px" zoomAndPan="magnify"><defs/><g><ellipse cx="324.5" cy="20" fill="#222222" rx="10" ry="10" style="stroke:#222222;stroke-width:1.0;"/><rect fill="#F1F1F1" height="33.9688" rx="12.5" ry="12.5" style="stroke:#181818;stroke-width:0.5;" width="241" x="204" y="50"/><text fill="#000000" font-family="sans-serif" font-size="12" lengthAdjust="spacing" textLength="221" x="214" y="71.1387">Initialize sheet, movement, and input</text><rect fill="#F1F1F1" height="33.9688" rx="12.5" ry="12.5" style="stroke:#181818;stroke-width:0.5;" width="102" x="273.5" y="147.9688"/><text fill="#000000" font-family="sans-serif" font-size="12" lengthAdjust="spacing" textLength="82" x="283.5" y="169.1074">Display sheet</text><rect fill="#F1F1F1" height="33.9688" rx="12.5" ry="12.5" style="stroke:#181818;stroke-width:0.5;" width="262" x="193.5" y="201.9375"/><text fill="#000000" font-family="sans-serif" font-size="12" lengthAdjust="spacing" textLength="242" x="203.5" y="223.0762">Display movement menu for current cell</text><rect fill="#F1F1F1" height="33.9688" rx="12.5" ry="12.5" style="stroke:#181818;stroke-width:0.5;" width="144" x="252.5" y="255.9063"/><text fill="#000000" font-family="sans-serif" font-size="12" lengthAdjust="spacing" textLength="124" x="262.5" y="277.0449">Read user command</text><polygon fill="#F1F1F1" points="48,314.457,138,314.457,150,326.457,138,338.457,48,338.457,36,326.457,48,314.457" style="stroke:#181818;stroke-width:0.5;"/><text fill="#000000" font-family="sans-serif" font-size="11" lengthAdjust="spacing" textLength="21" x="97" y="348.6675">yes</text><text fill="#000000" font-family="sans-serif" font-size="11" lengthAdjust="spacing" textLength="90" x="48" y="330.2651">command is "q"</text><rect fill="#F1F1F1" height="33.9688" rx="12.5" ry="12.5" style="stroke:#181818;stroke-width:0.5;" width="86" x="50" y="371.2617"/><text fill="#000000" font-family="sans-serif" font-size="12" lengthAdjust="spacing" textLength="66" x="60" y="392.4004">Break loop</text><polygon fill="#F1F1F1" points="239.5,314.457,330.5,314.457,342.5,326.457,330.5,338.457,239.5,338.457,227.5,326.457,239.5,314.457" style="stroke:#181818;stroke-width:0.5;"/><text fill="#000000" font-family="sans-serif" font-size="11" lengthAdjust="spacing" textLength="21" x="289" y="348.6675">yes</text><text fill="#000000" font-family="sans-serif" font-size="11" lengthAdjust="spacing" textLength="91" x="239.5" y="330.2651">command is "e"</text><text fill="#000000" font-family="sans-serif" font-size="11" lengthAdjust="spacing" textLength="14" x="342.5" y="323.8628">no</text><rect fill="#F1F1F1" height="33.9688" rx="12.5" ry="12.5" style="stroke:#181818;stroke-width:0.5;" width="207" x="181.5" y="371.2617"/><text fill="#000000" font-family="sans-serif" font-size="12" lengthAdjust="spacing" textLength="187" x="191.5" y="392.4004">Input new value for current cell</text><rect fill="#F1F1F1" height="33.9688" rx="12.5" ry="12.5" style="stroke:#181818;stroke-width:0.5;" width="250" x="160" y="428.6328"/><text fill="#000000" font-family="sans-serif" font-size="12" lengthAdjust="spacing" textLength="230" x="170" y="449.7715">Set new value for current cell in sheet</text><rect fill="#F1F1F1" height="33.9688" rx="12.5" ry="12.5" style="stroke:#181818;stroke-width:0.5;" width="193" x="430" y="367.8594"/><text fill="#000000" font-family="sans-serif" font-size="12" lengthAdjust="spacing" textLength="173" x="440" y="388.998">Handle movement command</text><rect fill="#F1F1F1" height="33.9688" rx="12.5" ry="12.5" style="stroke:#181818;stroke-width:0.5;" width="188" x="432.5" y="425.2305"/><text fill="#000000" font-family="sans-serif" font-size="12" lengthAdjust="spacing" textLength="168" x="442.5" y="446.3691">Update current cell in sheet</text><polygon fill="#F1F1F1" points="312.5,103.9688,336.5,103.9688,348.5,115.9688,336.5,127.9688,312.5,127.9688,300.5,115.9688,312.5,103.9688" style="stroke:#181818;stroke-width:0.5;"/><text fill="#000000" font-family="sans-serif" font-size="11" lengthAdjust="spacing" textLength="23" x="313" y="119.7769">true</text><rect fill="#F1F1F1" height="33.9688" rx="12.5" ry="12.5" style="stroke:#181818;stroke-width:0.5;" width="139" x="255" y="524.6016"/><text fill="#000000" font-family="sans-serif" font-size="12" lengthAdjust="spacing" textLength="119" x="265" y="545.7402">Close input scanner</text><ellipse cx="324.5" cy="589.5703" fill="none" rx="11" ry="11" style="stroke:#222222;stroke-width:1.0;"/><ellipse cx="324.5" cy="589.5703" fill="#222222" rx="6" ry="6" style="stroke:#222222;stroke-width:1.0;"/><line style="stroke:#181818;stroke-width:1.0;" x1="324.5" x2="324.5" y1="30" y2="50"/><polygon fill="#181818" points="320.5,40,324.5,50,328.5,40,324.5,44" style="stroke:#181818;stroke-width:1.0;"/><line style="stroke:#181818;stroke-width:1.0;" x1="324.5" x2="324.5" y1="181.9375" y2="201.9375"/><polygon fill="#181818" points="320.5,191.9375,324.5,201.9375,328.5,191.9375,324.5,195.9375" style="stroke:#181818;stroke-width:1.0;"/><line style="stroke:#181818;stroke-width:1.0;" x1="324.5" x2="324.5" y1="235.9063" y2="255.9063"/><polygon fill="#181818" points="320.5,245.9063,324.5,255.9063,328.5,245.9063,324.5,249.9063" style="stroke:#181818;stroke-width:1.0;"/><line style="stroke:#181818;stroke-width:1.0;" x1="285" x2="285" y1="405.2305" y2="428.6328"/><polygon fill="#181818" points="281,418.6328,285,428.6328,289,418.6328,285,422.6328" style="stroke:#181818;stroke-width:1.0;"/><line style="stroke:#181818;stroke-width:1.0;" x1="526.5" x2="526.5" y1="401.8281" y2="425.2305"/><polygon fill="#181818" points="522.5,415.2305,526.5,425.2305,530.5,415.2305,526.5,419.2305" style="stroke:#181818;stroke-width:1.0;"/><line style="stroke:#181818;stroke-width:1.0;" x1="93" x2="93" y1="338.457" y2="371.2617"/><polygon fill="#181818" points="89,361.2617,93,371.2617,97,361.2617,93,365.2617" style="stroke:#181818;stroke-width:1.0;"/><line style="stroke:#181818;stroke-width:1.0;" x1="93" x2="93" y1="405.2305" y2="482.6016"/><polygon fill="#181818" points="89,472.6016,93,482.6016,97,472.6016,93,476.6016" style="stroke:#181818;stroke-width:1.0;"/><line style="stroke:#181818;stroke-width:1.0;" x1="285" x2="285" y1="338.457" y2="371.2617"/><polygon fill="#181818" points="281,361.2617,285,371.2617,289,361.2617,285,365.2617" style="stroke:#181818;stroke-width:1.0;"/><line style="stroke:#181818;stroke-width:1.0;" x1="285" x2="285" y1="462.6016" y2="482.6016"/><polygon fill="#181818" points="281,472.6016,285,482.6016,289,472.6016,285,476.6016" style="stroke:#181818;stroke-width:1.0;"/><line style="stroke:#181818;stroke-width:1.0;" x1="150" x2="227.5" y1="326.457" y2="326.457"/><polygon fill="#181818" points="217.5,322.457,227.5,326.457,217.5,330.457,221.5,326.457" style="stroke:#181818;stroke-width:1.0;"/><line style="stroke:#181818;stroke-width:1.0;" x1="324.5" x2="324.5" y1="289.875" y2="294.875"/><line style="stroke:#181818;stroke-width:1.0;" x1="324.5" x2="93" y1="294.875" y2="294.875"/><line style="stroke:#181818;stroke-width:1.0;" x1="93" x2="93" y1="294.875" y2="314.457"/><polygon fill="#181818" points="89,304.457,93,314.457,97,304.457,93,308.457" style="stroke:#181818;stroke-width:1.0;"/><line style="stroke:#181818;stroke-width:1.0;" x1="342.5" x2="526.5" y1="326.457" y2="326.457"/><line style="stroke:#181818;stroke-width:1.0;" x1="526.5" x2="526.5" y1="326.457" y2="367.8594"/><polygon fill="#181818" points="522.5,357.8594,526.5,367.8594,530.5,357.8594,526.5,361.8594" style="stroke:#181818;stroke-width:1.0;"/><line style="stroke:#181818;stroke-width:1.0;" x1="526.5" x2="526.5" y1="459.1992" y2="482.6016"/><polygon fill="#181818" points="522.5,472.6016,526.5,482.6016,530.5,472.6016,526.5,476.6016" style="stroke:#181818;stroke-width:1.0;"/><line style="stroke:#181818;stroke-width:1.0;" x1="93" x2="526.5" y1="482.6016" y2="482.6016"/><line style="stroke:#181818;stroke-width:1.0;" x1="324.5" x2="324.5" y1="127.9688" y2="147.9688"/><polygon fill="#181818" points="320.5,137.9688,324.5,147.9688,328.5,137.9688,324.5,141.9688" style="stroke:#181818;stroke-width:1.0;"/><line style="stroke:#181818;stroke-width:1.0;" x1="324.5" x2="324.5" y1="482.6016" y2="492.6016"/><line style="stroke:#181818;stroke-width:1.0;" x1="324.5" x2="635" y1="492.6016" y2="492.6016"/><polygon fill="#181818" points="631,313.875,635,303.875,639,313.875,635,309.875" style="stroke:#181818;stroke-width:1.0;"/><line style="stroke:#181818;stroke-width:1.0;" x1="635" x2="635" y1="115.9688" y2="492.6016"/><line style="stroke:#181818;stroke-width:1.0;" x1="635" x2="348.5" y1="115.9688" y2="115.9688"/><polygon fill="#181818" points="358.5,111.9688,348.5,115.9688,358.5,119.9688,354.5,115.9688" style="stroke:#181818;stroke-width:1.0;"/><line style="stroke:#181818;stroke-width:1.0;" x1="300.5" x2="24" y1="115.9688" y2="115.9688"/><polygon fill="#181818" points="20,299.875,24,309.875,28,299.875,24,303.875" style="stroke:#181818;stroke-width:1.0;"/><line style="stroke:#181818;stroke-width:1.0;" x1="24" x2="24" y1="115.9688" y2="504.6016"/><line style="stroke:#181818;stroke-width:1.0;" x1="24" x2="324.5" y1="504.6016" y2="504.6016"/><line style="stroke:#181818;stroke-width:1.0;" x1="324.5" x2="324.5" y1="504.6016" y2="524.6016"/><polygon fill="#181818" points="320.5,514.6016,324.5,524.6016,328.5,514.6016,324.5,518.6016" style="stroke:#181818;stroke-width:1.0;"/><line style="stroke:#181818;stroke-width:1.0;" x1="324.5" x2="324.5" y1="83.9688" y2="103.9688"/><polygon fill="#181818" points="320.5,93.9688,324.5,103.9688,328.5,93.9688,324.5,97.9688" style="stroke:#181818;stroke-width:1.0;"/><line style="stroke:#181818;stroke-width:1.0;" x1="324.5" x2="324.5" y1="558.5703" y2="578.5703"/><polygon fill="#181818" points="320.5,568.5703,324.5,578.5703,328.5,568.5703,324.5,572.5703" style="stroke:#181818;stroke-width:1.0;"/><!--SRC=[VL6xRiCm3Dpr5KGc1-WNs5lIeLbRv0C4-mmJbIbLZmJfrvUMqo8fa6WWXDCTZpobR6CsxK4uitNy3KeJa5zezYVC4BrP6OWbbDoPyyGErEHOi3Mafttb59ozhAhk7ljjGLeAZJvINs9SW1xENSdli0EL17tqywnUAyuZDLU0ED7cQxEbF46ekI2jtbM-Yx2VvBmFgmukuRyM3xI7PIaIdEbaNS632Ilr0y-86izj0CiCr8Y_iNhJMJIvlqJkTgsCOnXinjEsCl1ejDPVCEtUUVMfFqEfjoA8dKdPXny0]--></g></svg>