<?xml version="1.0" encoding="UTF-8" standalone="no"?><svg xmlns="http://www.w3.org/2000/svg" xmlns:xlink="http://www.w3.org/1999/xlink" contentStyleType="text/css" height="416px" preserveAspectRatio="none" style="width:790px;height:416px;background:#FFFFFF;" version="1.1" viewBox="0 0 790 416" width="790px" zoomAndPan="magnify"><defs/><g><rect fill="#DDDDDD" height="404.902" style="stroke:#181818;stroke-width:0.5;" width="157" x="276" y="6"/><text fill="#000000" font-family="sans-serif" font-size="13" font-weight="bold" lengthAdjust="spacing" textLength="129" x="290" y="19.897">repo SDR@mmasias</text><rect fill="#DDDDDD" height="404.902" style="stroke:#181818;stroke-width:0.5;" width="198" x="586.5" y="6"/><text fill="#000000" font-family="sans-serif" font-size="13" font-weight="bold" lengthAdjust="spacing" textLength="192" x="589.5" y="19.897">repo SDR@CoordinadorGrupo</text><rect fill="#FFFFFF" height="293.0602" style="stroke:#181818;stroke-width:1.0;" width="10" x="299" y="71.7739"/><rect fill="#FFFFFF" height="164.5301" style="stroke:#181818;stroke-width:1.0;" width="10" x="378.5" y="200.304"/><rect fill="#FFFFFF" height="293.0602" style="stroke:#181818;stroke-width:1.0;" width="10" x="680.5" y="71.7739"/><line style="stroke:#181818;stroke-width:0.5;stroke-dasharray:5.0,5.0;" x1="304" x2="304" y1="61.7739" y2="373.8341"/><line style="stroke:#181818;stroke-width:0.5;stroke-dasharray:5.0,5.0;" x1="383" x2="383" y1="61.7739" y2="373.8341"/><line style="stroke:#181818;stroke-width:0.5;stroke-dasharray:5.0,5.0;" x1="685.5" x2="685.5" y1="61.7739" y2="373.8341"/><rect fill="#E2E2F0" height="33.0679" rx="2.5" ry="2.5" style="stroke:#181818;stroke-width:0.5;" width="48" x="280" y="27.706"/><text fill="#000000" font-family="sans-serif" font-size="14" lengthAdjust="spacing" textLength="34" x="287" y="49.672">main</text><rect fill="#E2E2F0" height="33.0679" rx="2.5" ry="2.5" style="stroke:#181818;stroke-width:0.5;" width="48" x="280" y="372.8341"/><text fill="#000000" font-family="sans-serif" font-size="14" lengthAdjust="spacing" textLength="34" x="287" y="394.8">main</text><rect fill="#E2E2F0" height="33.0679" rx="2.5" ry="2.5" style="stroke:#181818;stroke-width:0.5;" width="91" x="338" y="27.706"/><text fill="#000000" font-family="sans-serif" font-size="14" lengthAdjust="spacing" textLength="77" x="345" y="49.672">ramaGrupo</text><rect fill="#E2E2F0" height="33.0679" rx="2.5" ry="2.5" style="stroke:#181818;stroke-width:0.5;" width="91" x="338" y="372.8341"/><text fill="#000000" font-family="sans-serif" font-size="14" lengthAdjust="spacing" textLength="77" x="345" y="394.8">ramaGrupo</text><rect fill="#E2E2F0" height="33.0679" rx="2.5" ry="2.5" style="stroke:#181818;stroke-width:0.5;" width="96" x="637.5" y="27.706"/><text fill="#000000" font-family="sans-serif" font-size="14" lengthAdjust="spacing" textLength="82" x="644.5" y="49.672">participante</text><rect fill="#E2E2F0" height="33.0679" rx="2.5" ry="2.5" style="stroke:#181818;stroke-width:0.5;" width="96" x="637.5" y="372.8341"/><text fill="#000000" font-family="sans-serif" font-size="14" lengthAdjust="spacing" textLength="82" x="644.5" y="394.8">participante</text><rect fill="#FFFFFF" height="293.0602" style="stroke:#181818;stroke-width:1.0;" width="10" x="299" y="71.7739"/><rect fill="#FFFFFF" height="164.5301" style="stroke:#181818;stroke-width:1.0;" width="10" x="378.5" y="200.304"/><rect fill="#FFFFFF" height="293.0602" style="stroke:#181818;stroke-width:1.0;" width="10" x="680.5" y="71.7739"/><path d="M79,76.7739 L79,139.7739 L294,139.7739 L294,86.7739 L284,76.7739 L79,76.7739 " fill="#FEFFDD" style="stroke:#181818;stroke-width:0.5;"/><path d="M284,76.7739 L284,86.7739 L294,86.7739 L284,76.7739 " fill="#FEFFDD" style="stroke:#181818;stroke-width:0.5;"/><text fill="#000000" font-family="sans-serif" font-size="13" lengthAdjust="spacing" textLength="139" x="85" y="95.6709">Cada grupo tendrá una</text><text fill="#000000" font-family="sans-serif" font-size="13" lengthAdjust="spacing" textLength="153" x="85" y="113.377">rama asignada dentro del</text><text fill="#000000" font-family="sans-serif" font-size="13" lengthAdjust="spacing" textLength="194" x="85" y="131.083">repositorio principal de entregas</text><polygon fill="#181818" points="668.5,164.598,678.5,168.598,668.5,172.598,672.5,168.598" style="stroke:#181818;stroke-width:1.0;"/><line style="stroke:#181818;stroke-width:1.0;stroke-dasharray:2.0,2.0;" x1="309" x2="674.5" y1="168.598" y2="168.598"/><text fill="#000000" font-family="sans-serif" font-size="13" lengthAdjust="spacing" textLength="24" x="316" y="162.789">fork</text><polygon fill="#181818" points="399.5,196.304,389.5,200.304,399.5,204.304,395.5,200.304" style="stroke:#181818;stroke-width:1.0;"/><line style="stroke:#181818;stroke-width:1.0;stroke-dasharray:2.0,2.0;" x1="393.5" x2="679.5" y1="200.304" y2="200.304"/><text fill="#000000" font-family="sans-serif" font-size="13" font-style="italic" font-weight="bold" lengthAdjust="spacing" textLength="16" x="405.5" y="194.495">PR</text><text fill="#000000" font-family="sans-serif" font-size="13" lengthAdjust="spacing" textLength="210" x="421.5" y="194.495">s con aportes / avances / revisiones</text><line style="stroke:#181818;stroke-width:1.0;" x1="388.5" x2="430.5" y1="232.01" y2="232.01"/><line style="stroke:#181818;stroke-width:1.0;" x1="430.5" x2="430.5" y1="232.01" y2="245.01"/><line style="stroke:#181818;stroke-width:1.0;" x1="389.5" x2="430.5" y1="245.01" y2="245.01"/><polygon fill="#181818" points="399.5,241.01,389.5,245.01,399.5,249.01,395.5,245.01" style="stroke:#181818;stroke-width:1.0;"/><text fill="#000000" font-family="sans-serif" font-size="13" lengthAdjust="spacing" textLength="177" x="395.5" y="226.201">propuesta de revisión / ajuste</text><path d="M195,258.01 L195,303.01 L491,303.01 L491,268.01 L481,258.01 L195,258.01 " fill="#FEFFDD" style="stroke:#181818;stroke-width:0.5;"/><path d="M481,258.01 L481,268.01 L491,268.01 L481,258.01 " fill="#FEFFDD" style="stroke:#181818;stroke-width:0.5;"/><text fill="#000000" font-family="sans-serif" font-size="13" lengthAdjust="spacing" textLength="191" x="201" y="276.907">Durante el cuatrimestre, la rama</text><text fill="#000000" font-family="sans-serif" font-size="13" lengthAdjust="spacing" textLength="272" x="204" y="294.6131">del grupo se va actualizando con sus avances.</text><path d="M5,313.4221 L5,358.4221 L294,358.4221 L294,323.4221 L284,313.4221 L5,313.4221 " fill="#FEFFDD" style="stroke:#181818;stroke-width:0.5;"/><path d="M284,313.4221 L284,323.4221 L294,323.4221 L284,313.4221 " fill="#FEFFDD" style="stroke:#181818;stroke-width:0.5;"/><text fill="#000000" font-family="sans-serif" font-size="13" lengthAdjust="spacing" textLength="186" x="11" y="332.3191">Al final del cuatrimestre, el repo</text><text fill="#000000" font-family="sans-serif" font-size="13" lengthAdjust="spacing" textLength="268" x="11" y="350.0251">contiene las ramas de todos los participantes</text><!--MD5=[fb9afe9eb43fda03dde9876fe4f9dbd9]
@startuml

box "repo SDR@mmasias" 
    participant "main" as main
    activate main
    note left main: Cada grupo tendrá una \nrama asignada dentro del\nrepositorio principal de entregas
    participant "ramaGrupo" as ramaGrupo
end box

box "repo SDR@CoordinadorGrupo" 
    ' note right of participante: El participante crea una carpeta, \n dentro de la carpeta de trabajo \n con el formato nombreApellido
    participant "participante" as participante
    activate participante
end box


main - -> participante: fork
participante - -> ramaGrupo: <B><i>PR</i></B>s con aportes / avances / revisiones
activate ramaGrupo
ramaGrupo -> ramaGrupo: propuesta de revisión / ajuste

note over main, ramaGrupo: Durante el cuatrimestre, la rama \n del grupo se va actualizando con sus avances.

note left main: Al final del cuatrimestre, el repo\ncontiene las ramas de todos los participantes

@enduml

@startuml

box "repo SDR@mmasias" 
    participant "main" as main
    activate main
    note left main: Cada grupo tendrá una \nrama asignada dentro del\nrepositorio principal de entregas
    participant "ramaGrupo" as ramaGrupo
end box

box "repo SDR@CoordinadorGrupo" 
    participant "participante" as participante
    activate participante
end box


main - -> participante: fork
participante - -> ramaGrupo: <B><i>PR</i></B>s con aportes / avances / revisiones
activate ramaGrupo
ramaGrupo -> ramaGrupo: propuesta de revisión / ajuste

note over main, ramaGrupo: Durante el cuatrimestre, la rama \n del grupo se va actualizando con sus avances.

note left main: Al final del cuatrimestre, el repo\ncontiene las ramas de todos los participantes

@enduml

PlantUML version 1.2022.7(Mon Aug 22 19:01:30 CEST 2022)
(GPL source distribution)
Java Runtime: OpenJDK Runtime Environment
JVM: OpenJDK 64-Bit Server VM
Default Encoding: UTF-8
Language: es
Country: ES
--></g></svg>