<?xml version="1.0" encoding="us-ascii" standalone="no"?><svg xmlns="http://www.w3.org/2000/svg" xmlns:xlink="http://www.w3.org/1999/xlink" contentStyleType="text/css" height="376px" preserveAspectRatio="none" style="width:242px;height:376px;background:#FFFFFF;" version="1.1" viewBox="0 0 242 376" width="242px" zoomAndPan="magnify"><defs/><g><!--class Cell--><g id="elem_Cell"><rect codeLine="1" fill="#F1F1F1" height="80.5938" id="Cell" rx="2.5" ry="2.5" style="stroke:#181818;stroke-width:0.5;" width="193" x="7" y="7"/><ellipse cx="85.75" cy="23" fill="#ADD1B2" rx="11" ry="11" style="stroke:#181818;stroke-width:1.0;"/><path d="M88.0938,18.6719 C87.1563,18.2344 86.5625,18.0938 85.6875,18.0938 C83.0625,18.0938 81.0625,20.1719 81.0625,22.8906 L81.0625,24.0156 C81.0625,26.5938 83.1719,28.4844 86.0625,28.4844 C87.2813,28.4844 88.4375,28.1875 89.1875,27.6406 C89.7656,27.2344 90.0938,26.7813 90.0938,26.3906 C90.0938,25.9375 89.7031,25.5469 89.2344,25.5469 C89.0156,25.5469 88.8125,25.625 88.625,25.8125 C88.1719,26.2969 88.1719,26.2969 87.9844,26.3906 C87.5625,26.6563 86.875,26.7813 86.1094,26.7813 C84.0625,26.7813 82.7656,25.6875 82.7656,23.9844 L82.7656,22.8906 C82.7656,21.1094 84.0156,19.7969 85.75,19.7969 C86.3281,19.7969 86.9375,19.9531 87.4063,20.2031 C87.8906,20.4844 88.0625,20.7031 88.1563,21.1094 C88.2188,21.5156 88.25,21.6406 88.3906,21.7656 C88.5313,21.9063 88.7656,22.0156 88.9844,22.0156 C89.25,22.0156 89.5156,21.875 89.6875,21.6563 C89.7969,21.5 89.8281,21.3125 89.8281,20.8906 L89.8281,19.4688 C89.8281,19.0313 89.8125,18.9063 89.7188,18.75 C89.5625,18.4844 89.2813,18.3438 88.9844,18.3438 C88.6875,18.3438 88.4844,18.4375 88.2656,18.75 L88.0938,18.6719 Z " fill="#000000"/><text fill="#000000" font-family="sans-serif" font-size="14" lengthAdjust="spacing" textLength="27" x="106.25" y="27.8467">Cell</text><line style="stroke:#181818;stroke-width:0.5;" x1="8" x2="199" y1="39" y2="39"/><rect fill="none" height="6" style="stroke:#C82930;stroke-width:1.0;" width="6" x="15" y="49.6484"/><text fill="#000000" font-family="sans-serif" font-size="14" lengthAdjust="spacing" textLength="122" x="27" y="55.9951">cellValue: Object</text><line style="stroke:#181818;stroke-width:0.5;" x1="8" x2="199" y1="63.2969" y2="63.2969"/><ellipse cx="18" cy="76.9453" fill="#84BE84" rx="3" ry="3" style="stroke:#038048;stroke-width:1.0;"/><text fill="#000000" font-family="sans-serif" font-size="14" lengthAdjust="spacing" textLength="167" x="27" y="80.292">setCellValue(newValue)</text></g><!--class Empty--><g id="elem_Empty"><rect codeLine="6" fill="#F1F1F1" height="80.5938" id="Empty" rx="2.5" ry="2.5" style="stroke:#181818;stroke-width:0.5;" width="193" x="7" y="148"/><ellipse cx="75.25" cy="164" fill="#ADD1B2" rx="11" ry="11" style="stroke:#181818;stroke-width:1.0;"/><path d="M77.5938,159.6719 C76.6563,159.2344 76.0625,159.0938 75.1875,159.0938 C72.5625,159.0938 70.5625,161.1719 70.5625,163.8906 L70.5625,165.0156 C70.5625,167.5938 72.6719,169.4844 75.5625,169.4844 C76.7813,169.4844 77.9375,169.1875 78.6875,168.6406 C79.2656,168.2344 79.5938,167.7813 79.5938,167.3906 C79.5938,166.9375 79.2031,166.5469 78.7344,166.5469 C78.5156,166.5469 78.3125,166.625 78.125,166.8125 C77.6719,167.2969 77.6719,167.2969 77.4844,167.3906 C77.0625,167.6563 76.375,167.7813 75.6094,167.7813 C73.5625,167.7813 72.2656,166.6875 72.2656,164.9844 L72.2656,163.8906 C72.2656,162.1094 73.5156,160.7969 75.25,160.7969 C75.8281,160.7969 76.4375,160.9531 76.9063,161.2031 C77.3906,161.4844 77.5625,161.7031 77.6563,162.1094 C77.7188,162.5156 77.75,162.6406 77.8906,162.7656 C78.0313,162.9063 78.2656,163.0156 78.4844,163.0156 C78.75,163.0156 79.0156,162.875 79.1875,162.6563 C79.2969,162.5 79.3281,162.3125 79.3281,161.8906 L79.3281,160.4688 C79.3281,160.0313 79.3125,159.9063 79.2188,159.75 C79.0625,159.4844 78.7813,159.3438 78.4844,159.3438 C78.1875,159.3438 77.9844,159.4375 77.7656,159.75 L77.5938,159.6719 Z " fill="#000000"/><text fill="#000000" font-family="sans-serif" font-size="14" lengthAdjust="spacing" textLength="48" x="95.75" y="168.8467">Empty</text><line style="stroke:#181818;stroke-width:0.5;" x1="8" x2="199" y1="180" y2="180"/><rect fill="none" height="6" style="stroke:#C82930;stroke-width:1.0;" width="6" x="15" y="190.6484"/><text fill="#000000" font-family="sans-serif" font-size="14" lengthAdjust="spacing" textLength="98" x="27" y="196.9951">cellValue: null</text><line style="stroke:#181818;stroke-width:0.5;" x1="8" x2="199" y1="204.2969" y2="204.2969"/><ellipse cx="18" cy="217.9453" fill="#84BE84" rx="3" ry="3" style="stroke:#038048;stroke-width:1.0;"/><text fill="#000000" font-family="sans-serif" font-size="14" lengthAdjust="spacing" textLength="167" x="27" y="221.292">setCellValue(newValue)</text></g><!--class WithValue--><g id="elem_WithValue"><rect codeLine="11" fill="#F1F1F1" height="80.5938" id="WithValue" rx="2.5" ry="2.5" style="stroke:#181818;stroke-width:0.5;" width="193" x="7" y="289"/><ellipse cx="62.75" cy="305" fill="#ADD1B2" rx="11" ry="11" style="stroke:#181818;stroke-width:1.0;"/><path d="M65.0938,300.6719 C64.1563,300.2344 63.5625,300.0938 62.6875,300.0938 C60.0625,300.0938 58.0625,302.1719 58.0625,304.8906 L58.0625,306.0156 C58.0625,308.5938 60.1719,310.4844 63.0625,310.4844 C64.2813,310.4844 65.4375,310.1875 66.1875,309.6406 C66.7656,309.2344 67.0938,308.7813 67.0938,308.3906 C67.0938,307.9375 66.7031,307.5469 66.2344,307.5469 C66.0156,307.5469 65.8125,307.625 65.625,307.8125 C65.1719,308.2969 65.1719,308.2969 64.9844,308.3906 C64.5625,308.6563 63.875,308.7813 63.1094,308.7813 C61.0625,308.7813 59.7656,307.6875 59.7656,305.9844 L59.7656,304.8906 C59.7656,303.1094 61.0156,301.7969 62.75,301.7969 C63.3281,301.7969 63.9375,301.9531 64.4063,302.2031 C64.8906,302.4844 65.0625,302.7031 65.1563,303.1094 C65.2188,303.5156 65.25,303.6406 65.3906,303.7656 C65.5313,303.9063 65.7656,304.0156 65.9844,304.0156 C66.25,304.0156 66.5156,303.875 66.6875,303.6563 C66.7969,303.5 66.8281,303.3125 66.8281,302.8906 L66.8281,301.4688 C66.8281,301.0313 66.8125,300.9063 66.7188,300.75 C66.5625,300.4844 66.2813,300.3438 65.9844,300.3438 C65.6875,300.3438 65.4844,300.4375 65.2656,300.75 L65.0938,300.6719 Z " fill="#000000"/><text fill="#000000" font-family="sans-serif" font-size="14" lengthAdjust="spacing" textLength="73" x="83.25" y="309.8467">WithValue</text><line style="stroke:#181818;stroke-width:0.5;" x1="8" x2="199" y1="321" y2="321"/><rect fill="none" height="6" style="stroke:#C82930;stroke-width:1.0;" width="6" x="15" y="331.6484"/><text fill="#000000" font-family="sans-serif" font-size="14" lengthAdjust="spacing" textLength="122" x="27" y="337.9951">cellValue: Object</text><line style="stroke:#181818;stroke-width:0.5;" x1="8" x2="199" y1="345.2969" y2="345.2969"/><ellipse cx="18" cy="358.9453" fill="#84BE84" rx="3" ry="3" style="stroke:#038048;stroke-width:1.0;"/><text fill="#000000" font-family="sans-serif" font-size="14" lengthAdjust="spacing" textLength="167" x="27" y="362.292">setCellValue(newValue)</text></g><!--reverse link Cell to Empty--><g id="link_Cell_Empty"><path codeLine="16" d="M103.5,100.332 C103.5,118.944 103.5,129.05 103.5,147.662 " fill="none" id="Cell-backto-Empty" style="stroke:#181818;stroke-width:1.0;"/><polygon fill="none" points="103.5,88.332,99.5,94.332,103.5,100.332,107.5,94.332,103.5,88.332" style="stroke:#181818;stroke-width:1.0;"/></g><!--link Empty to WithValue--><g id="link_Empty_WithValue"><path codeLine="17" d="M91.8443,229.332 C90.3854,247.944 89.9164,264.0682 91.3751,282.6807 " fill="none" id="Empty-to-WithValue" style="stroke:#181818;stroke-width:1.0;"/><polygon fill="#181818" points="91.8439,288.6624,95.1285,279.3774,91.4532,283.6777,87.1529,280.0024,91.8439,288.6624" style="stroke:#181818;stroke-width:1.0;"/></g><!--link WithValue to Empty--><g id="link_WithValue_Empty"><path codeLine="19" d="M115.842,288.6624 C117.386,270.0499 117.8824,253.9234 116.3374,235.3114 " fill="none" id="WithValue-to-Empty" style="stroke:#181818;stroke-width:1.0;"/><polygon fill="#181818" points="115.841,229.332,112.5992,238.6321,116.2546,234.3149,120.5718,237.9702,115.841,229.332" style="stroke:#181818;stroke-width:1.0;"/></g><!--link WithValue to WithValue--><g id="link_WithValue_WithValue"><path codeLine="18" d="M200.121,304.1348 C220.392,306.7578 235,315.2129 235,329.5 C235,343.7871 220.392,352.2422 200.121,354.8652 " fill="none" id="WithValue-WithValue" style="stroke:#181818;stroke-width:1.0;"/></g><!--SRC=[Iyv9B2vMS4xDoL6evb800bs5P20dB36dDDLAmJyfApMv12okhL2SMk8CazB8Ioq7CpIvQhcuai66kEOMb5HYCoMlD2U7I3F2Cqiom68Kk0RicNnTNQY3k22KhguTakbS22PG8GvnEuW90000]--></g></svg>