<?xml version="1.0" encoding="us-ascii" standalone="no"?><svg xmlns="http://www.w3.org/2000/svg" xmlns:xlink="http://www.w3.org/1999/xlink" contentStyleType="text/css" height="270px" preserveAspectRatio="none" style="width:341px;height:270px;background:#FFFFFF;" version="1.1" viewBox="0 0 341 270" width="341px" zoomAndPan="magnify"><defs/><g><ellipse cx="77.1255" cy="16" fill="#222222" rx="10" ry="10" style="stroke:#222222;stroke-width:1.0;"/><g id="Empty"><rect fill="#F1F1F1" height="50.2656" rx="12.5" ry="12.5" style="stroke:#181818;stroke-width:0.5;" width="112" x="21.1255" y="87"/><line style="stroke:#181818;stroke-width:0.5;" x1="21.1255" x2="133.1255" y1="113.2969" y2="113.2969"/><text fill="#000000" font-family="sans-serif" font-size="14" lengthAdjust="spacing" textLength="48" x="53.1255" y="104.9951">Empty</text><text fill="#000000" font-family="sans-serif" font-size="12" lengthAdjust="spacing" textLength="92" x="26.1255" y="129.4355">cellValue = null</text></g><g id="WithValue"><rect fill="#F1F1F1" height="50.2656" rx="12.5" ry="12.5" style="stroke:#181818;stroke-width:0.5;" width="117" x="18.6255" y="214"/><line style="stroke:#181818;stroke-width:0.5;" x1="18.6255" x2="135.6255" y1="240.2969" y2="240.2969"/><text fill="#000000" font-family="sans-serif" font-size="14" lengthAdjust="spacing" textLength="73" x="40.6255" y="231.9951">WithValue</text><text fill="#000000" font-family="sans-serif" font-size="12" lengthAdjust="spacing" textLength="97" x="23.6255" y="256.4355">cellValue != null</text></g><!--link *start* to Empty--><g id="link_*start*_Empty"><path d="M77.1255,26.013 C77.1255,39.891 77.1255,60.965 77.1255,80.84 " fill="none" id="*start*-to-Empty" style="stroke:#181818;stroke-width:1.0;"/><polygon fill="#181818" points="77.1255,86.84,81.1255,77.84,77.1255,81.84,73.1255,77.84,77.1255,86.84" style="stroke:#181818;stroke-width:1.0;"/></g><!--link Empty to WithValue--><g id="link_Empty_WithValue"><path d="M38.514,137.088 C28.7296,145.276 19.4828,155.352 14.1255,167 C6,184.6666 14.027,197.4317 30.1347,210.0494 " fill="none" id="Empty-to-WithValue" style="stroke:#181818;stroke-width:1.0;"/><polygon fill="#181818" points="34.8581,213.7494,30.2397,205.0505,30.9219,210.6661,25.3064,211.3484,34.8581,213.7494" style="stroke:#181818;stroke-width:1.0;"/><text fill="#000000" font-family="sans-serif" font-size="13" lengthAdjust="spacing" textLength="79" x="15.1255" y="180.0669">setCellValue</text></g><!--link WithValue to Empty--><g id="link_WithValue_Empty"><path d="M90.9481,213.6876 C97.0538,200.1286 102.2264,182.8299 99.1255,167 C97.1406,156.867 95.6383,151.7379 91.6696,142.6149 " fill="none" id="WithValue-to-Empty" style="stroke:#181818;stroke-width:1.0;"/><polygon fill="#181818" points="89.2761,137.113,89.1983,146.9616,91.2706,141.6979,96.5342,143.7703,89.2761,137.113" style="stroke:#181818;stroke-width:1.0;"/><text fill="#000000" font-family="sans-serif" font-size="13" lengthAdjust="spacing" textLength="111" x="100.1255" y="180.0669">setCellValue(null)</text></g><!--link WithValue to WithValue--><g id="link_WithValue_WithValue"><path d="M136.0185,227.3757 C155.2845,227.4358 170.6255,231.3105 170.6255,239 C170.6255,246.6895 161.2845,250.5455 142.0185,250.6056 " fill="none" id="WithValue-to-WithValue" style="stroke:#181818;stroke-width:1.0;"/><polygon fill="#181818" points="136.0185,250.6243,145.0309,254.5962,141.0185,250.6087,145.006,246.5962,136.0185,250.6243" style="stroke:#181818;stroke-width:1.0;"/><text fill="#000000" font-family="sans-serif" font-size="13" lengthAdjust="spacing" textLength="152" x="176.6255" y="243.5669">setCellValue(newValue)</text></g><!--SRC=[YzQALT3LjLDmpIqegUG2amfM2icfEJbXYJcbgGgs2dcbEJbG2P32yCoI38YKbK9nQeapJ2KNiWH2loBK08GiFaCqybBBmGnDD0qmXw4g1Xgi2G00]--></g></svg>