<?xml version="1.0" encoding="us-ascii" standalone="no"?><svg xmlns="http://www.w3.org/2000/svg" xmlns:xlink="http://www.w3.org/1999/xlink" contentStyleType="text/css" height="557px" preserveAspectRatio="none" style="width:377px;height:557px;background:#FFFFFF;" version="1.1" viewBox="0 0 377 557" width="377px" zoomAndPan="magnify"><defs/><g><ellipse cx="185.25" cy="20" fill="#222222" rx="10" ry="10" style="stroke:#222222;stroke-width:1.0;"/><rect fill="#F1F1F1" height="33.9688" rx="12.5" ry="12.5" style="stroke:#181818;stroke-width:0.5;" width="48" x="161.25" y="50"/><text fill="#000000" font-family="sans-serif" font-size="12" lengthAdjust="spacing" textLength="28" x="171.25" y="71.1387">Start</text><rect fill="none" height="254.2031" style="stroke:#000000;stroke-width:1.5;" width="321" x="11" y="93.9688"/><path d="M110,93.9688 L110,103.2656 L100,113.2656 L11,113.2656 " fill="none" style="stroke:#000000;stroke-width:1.5;"/><text fill="#000000" font-family="sans-serif" font-size="14" lengthAdjust="spacing" textLength="89" x="14" y="107.9639">setCellValue</text><rect fill="#F1F1F1" height="33.9688" rx="12.5" ry="12.5" style="stroke:#181818;stroke-width:0.5;" width="87" x="141.75" y="130.2656"/><text fill="#000000" font-family="sans-serif" font-size="12" lengthAdjust="spacing" textLength="67" x="151.75" y="151.4043">Enter value</text><polygon fill="#F1F1F1" points="144.25,184.2344,226.25,184.2344,238.25,196.2344,226.25,208.2344,144.25,208.2344,132.25,196.2344,144.25,184.2344" style="stroke:#181818;stroke-width:0.5;"/><text fill="#000000" font-family="sans-serif" font-size="11" lengthAdjust="spacing" textLength="82" x="144.25" y="200.0425">Is value valid?</text><text fill="#000000" font-family="sans-serif" font-size="11" lengthAdjust="spacing" textLength="21" x="111.25" y="193.6401">yes</text><text fill="#000000" font-family="sans-serif" font-size="11" lengthAdjust="spacing" textLength="14" x="238.25" y="193.6401">no</text><rect fill="#F1F1F1" height="33.9688" rx="12.5" ry="12.5" style="stroke:#181818;stroke-width:0.5;" width="170" x="23" y="218.2344"/><text fill="#000000" font-family="sans-serif" font-size="12" lengthAdjust="spacing" textLength="150" x="33" y="239.373">Assign value to cellValue</text><rect fill="#F1F1F1" height="33.9688" rx="12.5" ry="12.5" style="stroke:#181818;stroke-width:0.5;" width="90" x="63" y="272.2031"/><text fill="#000000" font-family="sans-serif" font-size="12" lengthAdjust="spacing" textLength="70" x="73" y="293.3418">Value is set</text><rect fill="#F1F1F1" height="33.9688" rx="12.5" ry="12.5" style="stroke:#181818;stroke-width:0.5;" width="93" x="216" y="218.2344"/><text fill="#000000" font-family="sans-serif" font-size="12" lengthAdjust="spacing" textLength="73" x="226" y="239.373">Reject value</text><rect fill="#F1F1F1" height="33.9688" rx="12.5" ry="12.5" style="stroke:#181818;stroke-width:0.5;" width="99" x="213" y="272.2031"/><text fill="#000000" font-family="sans-serif" font-size="12" lengthAdjust="spacing" textLength="79" x="223" y="293.3418">Value not set</text><polygon fill="#F1F1F1" points="185.25,312.1719,197.25,324.1719,185.25,336.1719,173.25,324.1719,185.25,312.1719" style="stroke:#181818;stroke-width:0.5;"/><rect fill="none" height="146.2656" style="stroke:#000000;stroke-width:1.5;" width="342" x="24.75" y="358.1719"/><path d="M125.75,358.1719 L125.75,367.4688 L115.75,377.4688 L24.75,377.4688 " fill="none" style="stroke:#000000;stroke-width:1.5;"/><text fill="#000000" font-family="sans-serif" font-size="14" lengthAdjust="spacing" textLength="91" x="27.75" y="372.167">getCellValue</text><polygon fill="#F1F1F1" points="138.25,394.4688,232.25,394.4688,244.25,406.4688,232.25,418.4688,138.25,418.4688,126.25,406.4688,138.25,394.4688" style="stroke:#181818;stroke-width:0.5;"/><text fill="#000000" font-family="sans-serif" font-size="11" lengthAdjust="spacing" textLength="94" x="138.25" y="410.2769">Is cellValue set?</text><text fill="#000000" font-family="sans-serif" font-size="11" lengthAdjust="spacing" textLength="21" x="105.25" y="403.8745">yes</text><text fill="#000000" font-family="sans-serif" font-size="11" lengthAdjust="spacing" textLength="14" x="244.25" y="403.8745">no</text><rect fill="#F1F1F1" height="33.9688" rx="12.5" ry="12.5" style="stroke:#181818;stroke-width:0.5;" width="116" x="44.75" y="428.4688"/><text fill="#000000" font-family="sans-serif" font-size="12" lengthAdjust="spacing" textLength="96" x="54.75" y="449.6074">Return cellValue</text><rect fill="#F1F1F1" height="33.9688" rx="12.5" ry="12.5" style="stroke:#181818;stroke-width:0.5;" width="174" x="180.75" y="428.4688"/><text fill="#000000" font-family="sans-serif" font-size="12" lengthAdjust="spacing" textLength="154" x="190.75" y="449.6074">Return "Value is not valid"</text><polygon fill="#F1F1F1" points="185.25,468.4375,197.25,480.4375,185.25,492.4375,173.25,480.4375,185.25,468.4375" style="stroke:#181818;stroke-width:0.5;"/><ellipse cx="185.25" cy="535.4375" fill="none" rx="11" ry="11" style="stroke:#222222;stroke-width:1.0;"/><ellipse cx="185.25" cy="535.4375" fill="#222222" rx="6" ry="6" style="stroke:#222222;stroke-width:1.0;"/><line style="stroke:#181818;stroke-width:1.0;" x1="185.25" x2="185.25" y1="30" y2="50"/><polygon fill="#181818" points="181.25,40,185.25,50,189.25,40,185.25,44" style="stroke:#181818;stroke-width:1.0;"/><line style="stroke:#181818;stroke-width:1.0;" x1="108" x2="108" y1="252.2031" y2="272.2031"/><polygon fill="#181818" points="104,262.2031,108,272.2031,112,262.2031,108,266.2031" style="stroke:#181818;stroke-width:1.0;"/><line style="stroke:#181818;stroke-width:1.0;" x1="262.5" x2="262.5" y1="252.2031" y2="272.2031"/><polygon fill="#181818" points="258.5,262.2031,262.5,272.2031,266.5,262.2031,262.5,266.2031" style="stroke:#181818;stroke-width:1.0;"/><line style="stroke:#181818;stroke-width:1.0;" x1="132.25" x2="108" y1="196.2344" y2="196.2344"/><line style="stroke:#181818;stroke-width:1.0;" x1="108" x2="108" y1="196.2344" y2="218.2344"/><polygon fill="#181818" points="104,208.2344,108,218.2344,112,208.2344,108,212.2344" style="stroke:#181818;stroke-width:1.0;"/><line style="stroke:#181818;stroke-width:1.0;" x1="238.25" x2="262.5" y1="196.2344" y2="196.2344"/><line style="stroke:#181818;stroke-width:1.0;" x1="262.5" x2="262.5" y1="196.2344" y2="218.2344"/><polygon fill="#181818" points="258.5,208.2344,262.5,218.2344,266.5,208.2344,262.5,212.2344" style="stroke:#181818;stroke-width:1.0;"/><line style="stroke:#181818;stroke-width:1.0;" x1="108" x2="108" y1="306.1719" y2="324.1719"/><line style="stroke:#181818;stroke-width:1.0;" x1="108" x2="173.25" y1="324.1719" y2="324.1719"/><polygon fill="#181818" points="163.25,320.1719,173.25,324.1719,163.25,328.1719,167.25,324.1719" style="stroke:#181818;stroke-width:1.0;"/><line style="stroke:#181818;stroke-width:1.0;" x1="262.5" x2="262.5" y1="306.1719" y2="324.1719"/><line style="stroke:#181818;stroke-width:1.0;" x1="262.5" x2="197.25" y1="324.1719" y2="324.1719"/><polygon fill="#181818" points="207.25,320.1719,197.25,324.1719,207.25,328.1719,203.25,324.1719" style="stroke:#181818;stroke-width:1.0;"/><line style="stroke:#181818;stroke-width:1.0;" x1="185.25" x2="185.25" y1="164.2344" y2="184.2344"/><polygon fill="#181818" points="181.25,174.2344,185.25,184.2344,189.25,174.2344,185.25,178.2344" style="stroke:#181818;stroke-width:1.0;"/><line style="stroke:#181818;stroke-width:1.0;" x1="185.25" x2="185.25" y1="83.9688" y2="130.2656"/><polygon fill="#181818" points="181.25,120.2656,185.25,130.2656,189.25,120.2656,185.25,124.2656" style="stroke:#181818;stroke-width:1.0;"/><line style="stroke:#181818;stroke-width:1.0;" x1="126.25" x2="102.75" y1="406.4688" y2="406.4688"/><line style="stroke:#181818;stroke-width:1.0;" x1="102.75" x2="102.75" y1="406.4688" y2="428.4688"/><polygon fill="#181818" points="98.75,418.4688,102.75,428.4688,106.75,418.4688,102.75,422.4688" style="stroke:#181818;stroke-width:1.0;"/><line style="stroke:#181818;stroke-width:1.0;" x1="244.25" x2="267.75" y1="406.4688" y2="406.4688"/><line style="stroke:#181818;stroke-width:1.0;" x1="267.75" x2="267.75" y1="406.4688" y2="428.4688"/><polygon fill="#181818" points="263.75,418.4688,267.75,428.4688,271.75,418.4688,267.75,422.4688" style="stroke:#181818;stroke-width:1.0;"/><line style="stroke:#181818;stroke-width:1.0;" x1="102.75" x2="102.75" y1="462.4375" y2="480.4375"/><line style="stroke:#181818;stroke-width:1.0;" x1="102.75" x2="173.25" y1="480.4375" y2="480.4375"/><polygon fill="#181818" points="163.25,476.4375,173.25,480.4375,163.25,484.4375,167.25,480.4375" style="stroke:#181818;stroke-width:1.0;"/><line style="stroke:#181818;stroke-width:1.0;" x1="267.75" x2="267.75" y1="462.4375" y2="480.4375"/><line style="stroke:#181818;stroke-width:1.0;" x1="267.75" x2="197.25" y1="480.4375" y2="480.4375"/><polygon fill="#181818" points="207.25,476.4375,197.25,480.4375,207.25,484.4375,203.25,480.4375" style="stroke:#181818;stroke-width:1.0;"/><line style="stroke:#181818;stroke-width:1.0;" x1="185.25" x2="185.25" y1="336.1719" y2="394.4688"/><polygon fill="#181818" points="181.25,384.4688,185.25,394.4688,189.25,384.4688,185.25,388.4688" style="stroke:#181818;stroke-width:1.0;"/><line style="stroke:#181818;stroke-width:1.0;" x1="185.25" x2="185.25" y1="492.4375" y2="524.4375"/><polygon fill="#181818" points="181.25,514.4375,185.25,524.4375,189.25,514.4375,185.25,518.4375" style="stroke:#181818;stroke-width:1.0;"/><!--SRC=[TL113e8m4Bpt5PkUu0jmCCPuy8g9Tm8BrZHRmYuanlXtQK6i1dlOffEPsPcobBsexEolN7NJD68SWMQK0rfxAUs06XuAffCTIR27qMDvG4m3oObdn4zJxrAGAn8aT-GqS89opsnQMeZYe7fxvnzEU8DXc7RFC5f6ICX5HWNUi98uGwGb9v6OQjEeProgtIYrL5W3UOC_9GgKeQVVx9iX0r6lZNomy3twEnkBwru0]--></g></svg>