<?xml version="1.0" encoding="us-ascii" standalone="no"?><svg xmlns="http://www.w3.org/2000/svg" xmlns:xlink="http://www.w3.org/1999/xlink" contentStyleType="text/css" height="514px" preserveAspectRatio="none" style="width:658px;height:514px;background:#FFFFFF;" version="1.1" viewBox="0 0 658 514" width="658px" zoomAndPan="magnify"><defs/><g><g id="elem_spreadsheet"><rect fill="#F1F1F1" height="117.6563" style="stroke:#181818;stroke-width:0.5;" width="182" x="231" y="7"/><text fill="#000000" font-family="sans-serif" font-size="14" lengthAdjust="spacing" textLength="168" x="238" y="23.5332">spreadsheet: Spreadsheet</text><line style="stroke:#181818;stroke-width:0.5;" x1="232" x2="412" y1="28.6094" y2="28.6094"/><rect fill="none" height="6" style="stroke:#C82930;stroke-width:1.0;" width="6" x="239" y="39.9141"/><text fill="#000000" font-family="sans-serif" font-size="14" lengthAdjust="spacing" textLength="84" x="251" y="47.1426">sheet : Sheet</text><rect fill="none" height="6" style="stroke:#C82930;stroke-width:1.0;" width="6" x="239" y="57.5234"/><text fill="#000000" font-family="sans-serif" font-size="14" lengthAdjust="spacing" textLength="142" x="251" y="64.752">movement : Movement</text><rect fill="none" height="6" style="stroke:#C82930;stroke-width:1.0;" width="6" x="239" y="75.1328"/><text fill="#000000" font-family="sans-serif" font-size="14" lengthAdjust="spacing" textLength="96" x="251" y="82.3613">input : Scanner</text><rect fill="none" height="6" style="stroke:#C82930;stroke-width:1.0;" width="6" x="239" y="92.7422"/><text fill="#000000" font-family="sans-serif" font-size="14" lengthAdjust="spacing" textLength="56" x="251" y="99.9707">rows : int</text><rect fill="none" height="6" style="stroke:#C82930;stroke-width:1.0;" width="6" x="239" y="110.3516"/><text fill="#000000" font-family="sans-serif" font-size="14" lengthAdjust="spacing" textLength="79" x="251" y="117.5801">columns : int</text></g><g id="elem_cell"><rect fill="#F1F1F1" height="82.4375" style="stroke:#181818;stroke-width:0.5;" width="132" x="309" y="425"/><text fill="#000000" font-family="sans-serif" font-size="14" lengthAdjust="spacing" textLength="53" x="348.5" y="441.5332">cell: Cell</text><line style="stroke:#181818;stroke-width:0.5;" x1="310" x2="440" y1="446.6094" y2="446.6094"/><rect fill="none" height="6" style="stroke:#C82930;stroke-width:1.0;" width="6" x="317" y="457.9141"/><text fill="#000000" font-family="sans-serif" font-size="14" lengthAdjust="spacing" textLength="33" x="329" y="465.1426">x : int</text><rect fill="none" height="6" style="stroke:#C82930;stroke-width:1.0;" width="6" x="317" y="475.5234"/><text fill="#000000" font-family="sans-serif" font-size="14" lengthAdjust="spacing" textLength="34" x="329" y="482.752">y : int</text><rect fill="none" height="6" style="stroke:#C82930;stroke-width:1.0;" width="6" x="317" y="493.1328"/><text fill="#000000" font-family="sans-serif" font-size="14" lengthAdjust="spacing" textLength="106" x="329" y="500.3613">cellValue : String</text></g><g id="elem_mathOperations"><rect fill="#F1F1F1" height="37.6094" style="stroke:#181818;stroke-width:0.5;" width="224" x="428" y="185"/><text fill="#000000" font-family="sans-serif" font-size="14" lengthAdjust="spacing" textLength="210" x="435" y="201.5332">mathOperations: MathOperations</text><line style="stroke:#181818;stroke-width:0.5;" x1="429" x2="651" y1="206.6094" y2="206.6094"/></g><g id="elem_menu"><rect fill="#F1F1F1" height="37.6094" style="stroke:#181818;stroke-width:0.5;" width="92" x="448" y="47"/><text fill="#000000" font-family="sans-serif" font-size="14" lengthAdjust="spacing" textLength="78" x="455" y="63.5332">menu: Menu</text><line style="stroke:#181818;stroke-width:0.5;" x1="449" x2="539" y1="68.6094" y2="68.6094"/></g><g id="elem_movement"><rect fill="#F1F1F1" height="37.6094" style="stroke:#181818;stroke-width:0.5;" width="152" x="7" y="185"/><text fill="#000000" font-family="sans-serif" font-size="14" lengthAdjust="spacing" textLength="138" x="14" y="201.5332">movement: Movement</text><line style="stroke:#181818;stroke-width:0.5;" x1="8" x2="158" y1="206.6094" y2="206.6094"/></g><g id="elem_settings"><rect fill="#F1F1F1" height="37.6094" style="stroke:#181818;stroke-width:0.5;" width="122" x="74" y="47"/><text fill="#000000" font-family="sans-serif" font-size="14" lengthAdjust="spacing" textLength="108" x="81" y="63.5332">settings: Settings</text><line style="stroke:#181818;stroke-width:0.5;" x1="75" x2="195" y1="68.6094" y2="68.6094"/></g><g id="elem_sheet"><rect fill="#F1F1F1" height="82.4375" style="stroke:#181818;stroke-width:0.5;" width="144" x="303" y="283"/><text fill="#000000" font-family="sans-serif" font-size="14" lengthAdjust="spacing" textLength="80" x="335" y="299.5332">sheet: Sheet</text><line style="stroke:#181818;stroke-width:0.5;" x1="304" x2="446" y1="304.6094" y2="304.6094"/><rect fill="none" height="6" style="stroke:#C82930;stroke-width:1.0;" width="6" x="311" y="315.9141"/><text fill="#000000" font-family="sans-serif" font-size="14" lengthAdjust="spacing" textLength="117" x="323" y="323.1426">sheetData : Cell[][]</text><rect fill="none" height="6" style="stroke:#C82930;stroke-width:1.0;" width="6" x="311" y="333.5234"/><text fill="#000000" font-family="sans-serif" font-size="14" lengthAdjust="spacing" textLength="118" x="323" y="340.752">currentCell : String</text><rect fill="none" height="6" style="stroke:#C82930;stroke-width:1.0;" width="6" x="311" y="351.1328"/><text fill="#000000" font-family="sans-serif" font-size="14" lengthAdjust="spacing" textLength="76" x="323" y="358.3613">spacing : int</text></g><g id="elem_viewport"><rect fill="#F1F1F1" height="37.6094" style="stroke:#181818;stroke-width:0.5;" width="128" x="194" y="185"/><text fill="#000000" font-family="sans-serif" font-size="14" lengthAdjust="spacing" textLength="114" x="201" y="201.5332">viewport: Viewport</text><line style="stroke:#181818;stroke-width:0.5;" x1="195" x2="321" y1="206.6094" y2="206.6094"/></g><!--link spreadsheet to sheet--><g id="link_spreadsheet_sheet"><path codeLine="32" d="M336.4613,136.8411 C346.4113,184.9311 356.6531,234.3947 365.4331,276.7847 " fill="none" id="spreadsheet-sheet" style="stroke:#181818;stroke-width:1.0;"/><polygon fill="#181818" points="334.03,125.09,331.3286,131.776,336.4613,136.8411,339.1627,130.1551,334.03,125.09" style="stroke:#181818;stroke-width:1.0;"/><polygon fill="#181818" points="366.65,282.66,368.7415,273.0358,365.6359,277.7639,360.9078,274.6583,366.65,282.66" style="stroke:#181818;stroke-width:1.0;"/></g><!--link spreadsheet to movement--><g id="link_spreadsheet_movement"><path codeLine="33" d="M220.5306,124.7353 C179.6406,148.0053 149.6649,165.0626 120.0349,181.9226 " fill="none" id="spreadsheet-movement" style="stroke:#181818;stroke-width:1.0;"/><polygon fill="#181818" points="230.96,118.8,223.7669,118.2912,220.5306,124.7353,227.7237,125.2441,230.96,118.8" style="stroke:#181818;stroke-width:1.0;"/><polygon fill="#181818" points="114.82,184.89,124.6205,183.9155,119.1657,182.4172,120.6641,176.9624,114.82,184.89" style="stroke:#181818;stroke-width:1.0;"/></g><!--reverse link settings to spreadsheet--><g id="link_settings_spreadsheet"><path codeLine="34" d="M214.36,66 C225.81,66 219.26,66 230.71,66 " fill="none" id="settings-backto-spreadsheet" style="stroke:#181818;stroke-width:1.0;"/><polygon fill="none" points="196.36,66,214.36,72,214.36,60,196.36,66" style="stroke:#181818;stroke-width:1.0;"/></g><!--link spreadsheet to viewport--><g id="link_spreadsheet_viewport"><path codeLine="35" d="M294.67,125.07 C284.55,146.59 281.4559,153.164 274.2259,168.524 " fill="none" id="spreadsheet-to-viewport" style="stroke:#181818;stroke-width:1.0;"/><polygon fill="none" points="266.56,184.81,279.6546,171.0793,268.7972,165.9687,266.56,184.81" style="stroke:#181818;stroke-width:1.0;"/></g><!--link spreadsheet to mathOperations--><g id="link_spreadsheet_mathOperations"><path codeLine="36" d="M413.19,123.89 C448.19,145.72 470.4382,159.6026 495.5082,175.2426 " fill="none" id="spreadsheet-to-mathOperations" style="stroke:#181818;stroke-width:1.0;"/><polygon fill="none" points="510.78,184.77,498.684,170.152,492.3324,180.3332,510.78,184.77" style="stroke:#181818;stroke-width:1.0;"/></g><!--link spreadsheet to menu--><g id="link_spreadsheet_menu"><path codeLine="37" d="M413.04,66 C424.64,66 418.23,66 429.83,66 " fill="none" id="spreadsheet-to-menu" style="stroke:#181818;stroke-width:1.0;"/><polygon fill="none" points="447.83,66,429.83,60,429.83,72,447.83,66" style="stroke:#181818;stroke-width:1.0;"/></g><!--link movement to settings--><g id="link_movement_settings"><path codeLine="38" d="M89.93,184.87 C99.9,158.81 111.7243,127.884 121.6643,101.874 " fill="none" id="movement-to-settings" style="stroke:#181818;stroke-width:1.0;"/><polygon fill="none" points="128.09,85.06,116.0597,99.7321,127.269,104.0159,128.09,85.06" style="stroke:#181818;stroke-width:1.0;"/></g><!--link viewport to sheet--><g id="link_viewport_sheet"><path codeLine="39" d="M276.02,223.18 C291.67,238.95 310.6564,258.0984 330.6664,278.2884 " fill="none" id="viewport-to-sheet" style="stroke:#181818;stroke-width:1.0;stroke-dasharray:7.0,7.0;"/><polygon fill="#181818" points="334.89,282.55,331.3957,273.3419,331.3703,278.9987,325.7135,278.9733,334.89,282.55" style="stroke:#181818;stroke-width:1.0;"/></g><!--link viewport to settings--><g id="link_viewport_settings"><path codeLine="40" d="M241.6,184.87 C218.04,158.81 186.9356,124.4184 163.4056,98.4084 " fill="none" id="viewport-to-settings" style="stroke:#181818;stroke-width:1.0;"/><polygon fill="none" points="151.33,85.06,158.9562,102.4336,167.8551,94.3832,151.33,85.06" style="stroke:#181818;stroke-width:1.0;"/></g><!--link mathOperations to sheet--><g id="link_mathOperations_sheet"><path codeLine="41" d="M514.58,223.18 C492.43,239.02 464.4003,259.0696 436.1003,279.3096 " fill="none" id="mathOperations-to-sheet" style="stroke:#181818;stroke-width:1.0;stroke-dasharray:7.0,7.0;"/><polygon fill="#181818" points="431.22,282.8,440.8674,280.818,435.2869,279.8914,436.2135,274.3109,431.22,282.8" style="stroke:#181818;stroke-width:1.0;"/></g><!--link sheet to cell--><g id="link_sheet_cell"><path codeLine="42" d="M375,365.12 C375,383.86 375,400.13 375,418.88 " fill="none" id="sheet-to-cell" style="stroke:#181818;stroke-width:1.0;"/><polygon fill="#181818" points="375,424.88,379,415.88,375,419.88,371,415.88,375,424.88" style="stroke:#181818;stroke-width:1.0;"/></g><!--SRC=[PLAxRWCX4Epv2kGo4lu05swIDafXoOtbWfnNCT4Td7ZOYPByUnPOEF1TmUtE3ZlxmBn_mk3vniqMvCLT0VoE7nPdmwNZJP3_C8wVuDb3RlmJDfaRJA0Z_4ecHPIUGs8FKckmX5fpTmYgIXlC62PTi3_639Ktm3Zk-3EUgQ3erag-kXJVVK8a7kKO86fxg_H7ctMI_lesWvLU6UsmwCvFIZsbkGewu0KyCmsD9aZDBsF8f3AJIdJWFTQ4qWUoyhp9QOYqc6KbwsMyI2zv7jBfV3gN2GHhKJEYomperYm7zDRJlYcupyQYu96if5bWnje7yIGkOfyhUC0HhYst4J6At_tIP1UAaQgpYZnieulRH8XxgCzGT3ebBTzkIxqLweYzIaCdfTXlV5Zi7m00]--></g></svg>