<?xml version="1.0" encoding="us-ascii" standalone="no"?><svg xmlns="http://www.w3.org/2000/svg" xmlns:xlink="http://www.w3.org/1999/xlink" contentStyleType="text/css" height="920px" preserveAspectRatio="none" style="width:1802px;height:920px;background:#FFFFFF;" version="1.1" viewBox="0 0 1802 920" width="1802px" zoomAndPan="magnify"><defs/><g><!--class Spreadsheet--><g id="elem_Spreadsheet"><rect codeLine="2" fill="#F1F1F1" height="171.2656" id="Spreadsheet" rx="2.5" ry="2.5" style="stroke:#181818;stroke-width:0.5;" width="168" x="870.5" y="7"/><ellipse cx="910.25" cy="23" fill="#ADD1B2" rx="11" ry="11" style="stroke:#181818;stroke-width:1.0;"/><path d="M913.0156,18.875 Q913.1719,18.6563 913.3594,18.5469 Q913.5469,18.4375 913.7656,18.4375 Q914.1406,18.4375 914.375,18.7031 Q914.6094,18.9531 914.6094,19.5625 L914.6094,21.0156 Q914.6094,21.625 914.375,21.8906 Q914.1406,22.1563 913.7656,22.1563 Q913.4219,22.1563 913.2188,21.9531 Q913.0156,21.7656 912.9063,21.25 Q912.8594,20.8906 912.6719,20.7031 Q912.3438,20.3281 911.7344,20.1094 Q911.125,19.8906 910.5,19.8906 Q909.7344,19.8906 909.0938,20.2188 Q908.4688,20.5469 907.9688,21.2969 Q907.4844,22.0469 907.4844,23.0781 L907.4844,24.1719 Q907.4844,25.4063 908.375,26.2344 Q909.2656,27.0469 910.8594,27.0469 Q911.7969,27.0469 912.4531,26.7969 Q912.8438,26.6406 913.2656,26.2031 Q913.5313,25.9375 913.6719,25.8594 Q913.8281,25.7813 914.0313,25.7813 Q914.3594,25.7813 914.6094,26.0469 Q914.875,26.2969 914.875,26.6406 Q914.875,26.9844 914.5313,27.3906 Q914.0313,27.9688 913.2344,28.2969 Q912.1563,28.75 910.8594,28.75 Q909.3438,28.75 908.1406,28.125 Q907.1563,27.625 906.4688,26.5625 Q905.7813,25.4844 905.7813,24.2031 L905.7813,23.0469 Q905.7813,21.7188 906.3906,20.5781 Q907.0156,19.4219 908.1094,18.8125 Q909.2031,18.1875 910.4375,18.1875 Q911.1719,18.1875 911.8125,18.3594 Q912.4688,18.5156 913.0156,18.875 Z " fill="#000000"/><text fill="#000000" font-family="sans-serif" font-size="14" lengthAdjust="spacing" textLength="81" x="929.75" y="28.7285">Spreadsheet</text><line style="stroke:#181818;stroke-width:0.5;" x1="871.5" x2="1037.5" y1="39" y2="39"/><rect fill="none" height="6" style="stroke:#C82930;stroke-width:1.0;" width="6" x="878.5" y="50.3047"/><text fill="#000000" font-family="sans-serif" font-size="14" lengthAdjust="spacing" textLength="84" x="890.5" y="57.5332">sheet : Sheet</text><rect fill="none" height="6" style="stroke:#C82930;stroke-width:1.0;" width="6" x="878.5" y="67.9141"/><text fill="#000000" font-family="sans-serif" font-size="14" lengthAdjust="spacing" textLength="142" x="890.5" y="75.1426">movement : Movement</text><rect fill="none" height="6" style="stroke:#C82930;stroke-width:1.0;" width="6" x="878.5" y="85.5234"/><text fill="#000000" font-family="sans-serif" font-size="14" lengthAdjust="spacing" textLength="96" x="890.5" y="92.752">input : Scanner</text><rect fill="none" height="6" style="stroke:#C82930;stroke-width:1.0;" width="6" x="878.5" y="103.1328"/><text fill="#000000" font-family="sans-serif" font-size="14" lengthAdjust="spacing" textLength="56" x="890.5" y="110.3613">rows : int</text><rect fill="none" height="6" style="stroke:#C82930;stroke-width:1.0;" width="6" x="878.5" y="120.7422"/><text fill="#000000" font-family="sans-serif" font-size="14" lengthAdjust="spacing" textLength="79" x="890.5" y="127.9707">columns : int</text><line style="stroke:#181818;stroke-width:0.5;" x1="871.5" x2="1037.5" y1="135.0469" y2="135.0469"/><ellipse cx="881.5" cy="149.3516" fill="#84BE84" rx="3" ry="3" style="stroke:#038048;stroke-width:1.0;"/><text fill="#000000" font-family="sans-serif" font-size="14" lengthAdjust="spacing" textLength="91" x="890.5" y="153.5801">Spreadsheet()</text><ellipse cx="881.5" cy="166.9609" fill="#84BE84" rx="3" ry="3" style="stroke:#038048;stroke-width:1.0;"/><text fill="#000000" font-family="sans-serif" font-size="14" lengthAdjust="spacing" textLength="69" x="890.5" y="171.1895">run() : void</text></g><!--class Cell--><g id="elem_Cell"><rect codeLine="12" fill="#F1F1F1" height="259.3125" id="Cell" rx="2.5" ry="2.5" style="stroke:#181818;stroke-width:0.5;" width="255" x="517" y="654"/><ellipse cx="628.25" cy="670" fill="#ADD1B2" rx="11" ry="11" style="stroke:#181818;stroke-width:1.0;"/><path d="M631.0156,665.875 Q631.1719,665.6563 631.3594,665.5469 Q631.5469,665.4375 631.7656,665.4375 Q632.1406,665.4375 632.375,665.7031 Q632.6094,665.9531 632.6094,666.5625 L632.6094,668.0156 Q632.6094,668.625 632.375,668.8906 Q632.1406,669.1563 631.7656,669.1563 Q631.4219,669.1563 631.2188,668.9531 Q631.0156,668.7656 630.9063,668.25 Q630.8594,667.8906 630.6719,667.7031 Q630.3438,667.3281 629.7344,667.1094 Q629.125,666.8906 628.5,666.8906 Q627.7344,666.8906 627.0938,667.2188 Q626.4688,667.5469 625.9688,668.2969 Q625.4844,669.0469 625.4844,670.0781 L625.4844,671.1719 Q625.4844,672.4063 626.375,673.2344 Q627.2656,674.0469 628.8594,674.0469 Q629.7969,674.0469 630.4531,673.7969 Q630.8438,673.6406 631.2656,673.2031 Q631.5313,672.9375 631.6719,672.8594 Q631.8281,672.7813 632.0313,672.7813 Q632.3594,672.7813 632.6094,673.0469 Q632.875,673.2969 632.875,673.6406 Q632.875,673.9844 632.5313,674.3906 Q632.0313,674.9688 631.2344,675.2969 Q630.1563,675.75 628.8594,675.75 Q627.3438,675.75 626.1406,675.125 Q625.1563,674.625 624.4688,673.5625 Q623.7813,672.4844 623.7813,671.2031 L623.7813,670.0469 Q623.7813,668.7188 624.3906,667.5781 Q625.0156,666.4219 626.1094,665.8125 Q627.2031,665.1875 628.4375,665.1875 Q629.1719,665.1875 629.8125,665.3594 Q630.4688,665.5156 631.0156,665.875 Z " fill="#000000"/><text fill="#000000" font-family="sans-serif" font-size="14" lengthAdjust="spacing" textLength="24" x="648.75" y="675.7285">Cell</text><line style="stroke:#181818;stroke-width:0.5;" x1="518" x2="771" y1="686" y2="686"/><rect fill="none" height="6" style="stroke:#C82930;stroke-width:1.0;" width="6" x="525" y="697.3047"/><text fill="#000000" font-family="sans-serif" font-size="14" lengthAdjust="spacing" textLength="33" x="537" y="704.5332">x : int</text><rect fill="none" height="6" style="stroke:#C82930;stroke-width:1.0;" width="6" x="525" y="714.9141"/><text fill="#000000" font-family="sans-serif" font-size="14" lengthAdjust="spacing" textLength="34" x="537" y="722.1426">y : int</text><rect fill="none" height="6" style="stroke:#C82930;stroke-width:1.0;" width="6" x="525" y="732.5234"/><text fill="#000000" font-family="sans-serif" font-size="14" lengthAdjust="spacing" textLength="106" x="537" y="739.752">cellValue : String</text><line style="stroke:#181818;stroke-width:0.5;" x1="518" x2="771" y1="746.8281" y2="746.8281"/><ellipse cx="528" cy="761.1328" fill="#84BE84" rx="3" ry="3" style="stroke:#038048;stroke-width:1.0;"/><text fill="#000000" font-family="sans-serif" font-size="14" lengthAdjust="spacing" textLength="101" x="537" y="765.3613">Cell(x: int, y: int)</text><ellipse cx="528" cy="778.7422" fill="#84BE84" rx="3" ry="3" style="stroke:#038048;stroke-width:1.0;"/><text fill="#000000" font-family="sans-serif" font-size="14" lengthAdjust="spacing" textLength="211" x="537" y="782.9707">Cell(x: int, y: int, cellValue: String)</text><ellipse cx="528" cy="796.3516" fill="#84BE84" rx="3" ry="3" style="stroke:#038048;stroke-width:1.0;"/><text fill="#000000" font-family="sans-serif" font-size="14" lengthAdjust="spacing" textLength="65" x="537" y="800.5801">getX() : int</text><ellipse cx="528" cy="813.9609" fill="#84BE84" rx="3" ry="3" style="stroke:#038048;stroke-width:1.0;"/><text fill="#000000" font-family="sans-serif" font-size="14" lengthAdjust="spacing" textLength="104" x="537" y="818.1895">setX(x: int) : void</text><ellipse cx="528" cy="831.5703" fill="#84BE84" rx="3" ry="3" style="stroke:#038048;stroke-width:1.0;"/><text fill="#000000" font-family="sans-serif" font-size="14" lengthAdjust="spacing" textLength="66" x="537" y="835.7988">getY() : int</text><ellipse cx="528" cy="849.1797" fill="#84BE84" rx="3" ry="3" style="stroke:#038048;stroke-width:1.0;"/><text fill="#000000" font-family="sans-serif" font-size="14" lengthAdjust="spacing" textLength="106" x="537" y="853.4082">setY(y: int) : void</text><ellipse cx="528" cy="866.7891" fill="#84BE84" rx="3" ry="3" style="stroke:#038048;stroke-width:1.0;"/><text fill="#000000" font-family="sans-serif" font-size="14" lengthAdjust="spacing" textLength="139" x="537" y="871.0176">getCellValue() : String</text><ellipse cx="528" cy="884.3984" fill="#84BE84" rx="3" ry="3" style="stroke:#038048;stroke-width:1.0;"/><text fill="#000000" font-family="sans-serif" font-size="14" lengthAdjust="spacing" textLength="229" x="537" y="888.627">setCellValue(cellValue: String) : void</text><ellipse cx="528" cy="902.0078" fill="#84BE84" rx="3" ry="3" style="stroke:#038048;stroke-width:1.0;"/><text fill="#000000" font-family="sans-serif" font-size="14" lengthAdjust="spacing" textLength="108" x="537" y="906.2363">toString() : String</text></g><!--class MathOperations--><g id="elem_MathOperations"><rect codeLine="27" fill="#F1F1F1" height="153.6563" id="MathOperations" rx="2.5" ry="2.5" style="stroke:#181818;stroke-width:0.5;" width="435" x="7" y="369.5"/><ellipse cx="169.75" cy="385.5" fill="#ADD1B2" rx="11" ry="11" style="stroke:#181818;stroke-width:1.0;"/><path d="M172.5156,381.375 Q172.6719,381.1563 172.8594,381.0469 Q173.0469,380.9375 173.2656,380.9375 Q173.6406,380.9375 173.875,381.2031 Q174.1094,381.4531 174.1094,382.0625 L174.1094,383.5156 Q174.1094,384.125 173.875,384.3906 Q173.6406,384.6563 173.2656,384.6563 Q172.9219,384.6563 172.7188,384.4531 Q172.5156,384.2656 172.4063,383.75 Q172.3594,383.3906 172.1719,383.2031 Q171.8438,382.8281 171.2344,382.6094 Q170.625,382.3906 170,382.3906 Q169.2344,382.3906 168.5938,382.7188 Q167.9688,383.0469 167.4688,383.7969 Q166.9844,384.5469 166.9844,385.5781 L166.9844,386.6719 Q166.9844,387.9063 167.875,388.7344 Q168.7656,389.5469 170.3594,389.5469 Q171.2969,389.5469 171.9531,389.2969 Q172.3438,389.1406 172.7656,388.7031 Q173.0313,388.4375 173.1719,388.3594 Q173.3281,388.2813 173.5313,388.2813 Q173.8594,388.2813 174.1094,388.5469 Q174.375,388.7969 174.375,389.1406 Q174.375,389.4844 174.0313,389.8906 Q173.5313,390.4688 172.7344,390.7969 Q171.6563,391.25 170.3594,391.25 Q168.8438,391.25 167.6406,390.625 Q166.6563,390.125 165.9688,389.0625 Q165.2813,387.9844 165.2813,386.7031 L165.2813,385.5469 Q165.2813,384.2188 165.8906,383.0781 Q166.5156,381.9219 167.6094,381.3125 Q168.7031,380.6875 169.9375,380.6875 Q170.6719,380.6875 171.3125,380.8594 Q171.9688,381.0156 172.5156,381.375 Z " fill="#000000"/><text fill="#000000" font-family="sans-serif" font-size="14" lengthAdjust="spacing" textLength="101" x="190.25" y="391.2285">MathOperations</text><line style="stroke:#181818;stroke-width:0.5;" x1="8" x2="441" y1="401.5" y2="401.5"/><line style="stroke:#181818;stroke-width:0.5;" x1="8" x2="441" y1="409.5" y2="409.5"/><ellipse cx="18" cy="423.8047" fill="#84BE84" rx="3" ry="3" style="stroke:#038048;stroke-width:1.0;"/><text fill="#000000" font-family="sans-serif" font-size="14" lengthAdjust="spacing" textLength="345" x="27" y="428.0332">evaluateFormula(formula: String, sheet: Sheet) : String</text><rect fill="#F24D5C" height="6" style="stroke:#C82930;stroke-width:1.0;" width="6" x="15" y="438.4141"/><text fill="#000000" font-family="sans-serif" font-size="14" lengthAdjust="spacing" textLength="389" x="27" y="445.6426">evaluateExpression(expression: String, sheet: Sheet) : double</text><rect fill="#F24D5C" height="6" style="stroke:#C82930;stroke-width:1.0;" width="6" x="15" y="456.0234"/><text fill="#000000" font-family="sans-serif" font-size="14" lengthAdjust="spacing" textLength="365" x="27" y="463.252">getCellValue(cellReference: String, sheet: Sheet) : double</text><rect fill="#F24D5C" height="6" style="stroke:#C82930;stroke-width:1.0;" width="6" x="15" y="473.6328"/><text fill="#000000" font-family="sans-serif" font-size="14" lengthAdjust="spacing" textLength="183" x="27" y="480.8613">isOperator(c: char) : boolean</text><rect fill="#F24D5C" height="6" style="stroke:#C82930;stroke-width:1.0;" width="6" x="15" y="491.2422"/><text fill="#000000" font-family="sans-serif" font-size="14" lengthAdjust="spacing" textLength="202" x="27" y="498.4707">precedence(operator: char) : int</text><rect fill="#F24D5C" height="6" style="stroke:#C82930;stroke-width:1.0;" width="6" x="15" y="508.8516"/><text fill="#000000" font-family="sans-serif" font-size="14" lengthAdjust="spacing" textLength="409" x="27" y="516.0801">applyOperation(numbers: Deque&lt;Double&gt;, operator: char) : void</text></g><!--class Menu--><g id="elem_Menu"><rect codeLine="36" fill="#F1F1F1" height="65.6094" id="Menu" rx="2.5" ry="2.5" style="stroke:#181818;stroke-width:0.5;" width="320" x="515.5" y="59.5"/><ellipse cx="653.75" cy="75.5" fill="#ADD1B2" rx="11" ry="11" style="stroke:#181818;stroke-width:1.0;"/><path d="M656.5156,71.375 Q656.6719,71.1563 656.8594,71.0469 Q657.0469,70.9375 657.2656,70.9375 Q657.6406,70.9375 657.875,71.2031 Q658.1094,71.4531 658.1094,72.0625 L658.1094,73.5156 Q658.1094,74.125 657.875,74.3906 Q657.6406,74.6563 657.2656,74.6563 Q656.9219,74.6563 656.7188,74.4531 Q656.5156,74.2656 656.4063,73.75 Q656.3594,73.3906 656.1719,73.2031 Q655.8438,72.8281 655.2344,72.6094 Q654.625,72.3906 654,72.3906 Q653.2344,72.3906 652.5938,72.7188 Q651.9688,73.0469 651.4688,73.7969 Q650.9844,74.5469 650.9844,75.5781 L650.9844,76.6719 Q650.9844,77.9063 651.875,78.7344 Q652.7656,79.5469 654.3594,79.5469 Q655.2969,79.5469 655.9531,79.2969 Q656.3438,79.1406 656.7656,78.7031 Q657.0313,78.4375 657.1719,78.3594 Q657.3281,78.2813 657.5313,78.2813 Q657.8594,78.2813 658.1094,78.5469 Q658.375,78.7969 658.375,79.1406 Q658.375,79.4844 658.0313,79.8906 Q657.5313,80.4688 656.7344,80.7969 Q655.6563,81.25 654.3594,81.25 Q652.8438,81.25 651.6406,80.625 Q650.6563,80.125 649.9688,79.0625 Q649.2813,77.9844 649.2813,76.7031 L649.2813,75.5469 Q649.2813,74.2188 649.8906,73.0781 Q650.5156,71.9219 651.6094,71.3125 Q652.7031,70.6875 653.9375,70.6875 Q654.6719,70.6875 655.3125,70.8594 Q655.9688,71.0156 656.5156,71.375 Z " fill="#000000"/><text fill="#000000" font-family="sans-serif" font-size="14" lengthAdjust="spacing" textLength="35" x="674.25" y="81.2285">Menu</text><line style="stroke:#181818;stroke-width:0.5;" x1="516.5" x2="834.5" y1="91.5" y2="91.5"/><line style="stroke:#181818;stroke-width:0.5;" x1="516.5" x2="834.5" y1="99.5" y2="99.5"/><ellipse cx="526.5" cy="113.8047" fill="#84BE84" rx="3" ry="3" style="stroke:#038048;stroke-width:1.0;"/><text fill="#000000" font-family="sans-serif" font-size="14" lengthAdjust="spacing" textLength="294" x="535.5" y="118.0332">showMovementMenu(currentCell: String) : void</text></g><!--class Movement--><g id="elem_Movement"><rect codeLine="40" fill="#F1F1F1" height="100.8281" id="Movement" rx="2.5" ry="2.5" style="stroke:#181818;stroke-width:0.5;" width="420" x="1375.5" y="396"/><ellipse cx="1548.75" cy="412" fill="#ADD1B2" rx="11" ry="11" style="stroke:#181818;stroke-width:1.0;"/><path d="M1551.5156,407.875 Q1551.6719,407.6563 1551.8594,407.5469 Q1552.0469,407.4375 1552.2656,407.4375 Q1552.6406,407.4375 1552.875,407.7031 Q1553.1094,407.9531 1553.1094,408.5625 L1553.1094,410.0156 Q1553.1094,410.625 1552.875,410.8906 Q1552.6406,411.1563 1552.2656,411.1563 Q1551.9219,411.1563 1551.7188,410.9531 Q1551.5156,410.7656 1551.4063,410.25 Q1551.3594,409.8906 1551.1719,409.7031 Q1550.8438,409.3281 1550.2344,409.1094 Q1549.625,408.8906 1549,408.8906 Q1548.2344,408.8906 1547.5938,409.2188 Q1546.9688,409.5469 1546.4688,410.2969 Q1545.9844,411.0469 1545.9844,412.0781 L1545.9844,413.1719 Q1545.9844,414.4063 1546.875,415.2344 Q1547.7656,416.0469 1549.3594,416.0469 Q1550.2969,416.0469 1550.9531,415.7969 Q1551.3438,415.6406 1551.7656,415.2031 Q1552.0313,414.9375 1552.1719,414.8594 Q1552.3281,414.7813 1552.5313,414.7813 Q1552.8594,414.7813 1553.1094,415.0469 Q1553.375,415.2969 1553.375,415.6406 Q1553.375,415.9844 1553.0313,416.3906 Q1552.5313,416.9688 1551.7344,417.2969 Q1550.6563,417.75 1549.3594,417.75 Q1547.8438,417.75 1546.6406,417.125 Q1545.6563,416.625 1544.9688,415.5625 Q1544.2813,414.4844 1544.2813,413.2031 L1544.2813,412.0469 Q1544.2813,410.7188 1544.8906,409.5781 Q1545.5156,408.4219 1546.6094,407.8125 Q1547.7031,407.1875 1548.9375,407.1875 Q1549.6719,407.1875 1550.3125,407.3594 Q1550.9688,407.5156 1551.5156,407.875 Z " fill="#000000"/><text fill="#000000" font-family="sans-serif" font-size="14" lengthAdjust="spacing" textLength="65" x="1569.25" y="417.7285">Movement</text><line style="stroke:#181818;stroke-width:0.5;" x1="1376.5" x2="1794.5" y1="428" y2="428"/><line style="stroke:#181818;stroke-width:0.5;" x1="1376.5" x2="1794.5" y1="436" y2="436"/><ellipse cx="1386.5" cy="450.3047" fill="#84BE84" rx="3" ry="3" style="stroke:#038048;stroke-width:1.0;"/><text fill="#000000" font-family="sans-serif" font-size="14" lengthAdjust="spacing" textLength="263" x="1395.5" y="454.5332">getFormattedRow(currentCell: String) : int</text><ellipse cx="1386.5" cy="467.9141" fill="#84BE84" rx="3" ry="3" style="stroke:#038048;stroke-width:1.0;"/><text fill="#000000" font-family="sans-serif" font-size="14" lengthAdjust="spacing" textLength="284" x="1395.5" y="472.1426">getFormattedColumn(currentCell: String) : int</text><ellipse cx="1386.5" cy="485.5234" fill="#84BE84" rx="3" ry="3" style="stroke:#038048;stroke-width:1.0;"/><text fill="#000000" font-family="sans-serif" font-size="14" lengthAdjust="spacing" textLength="394" x="1395.5" y="489.752">handleCommand(command: String, currentCell: String) : String</text></g><!--class Settings--><g id="elem_Settings"><rect codeLine="46" fill="#F1F1F1" height="153.6563" id="Settings" rx="2.5" ry="2.5" style="stroke:#181818;stroke-width:0.5;" width="279" x="1074" y="15.5"/><ellipse cx="1183.75" cy="31.5" fill="#ADD1B2" rx="11" ry="11" style="stroke:#181818;stroke-width:1.0;"/><path d="M1186.5156,27.375 Q1186.6719,27.1563 1186.8594,27.0469 Q1187.0469,26.9375 1187.2656,26.9375 Q1187.6406,26.9375 1187.875,27.2031 Q1188.1094,27.4531 1188.1094,28.0625 L1188.1094,29.5156 Q1188.1094,30.125 1187.875,30.3906 Q1187.6406,30.6563 1187.2656,30.6563 Q1186.9219,30.6563 1186.7188,30.4531 Q1186.5156,30.2656 1186.4063,29.75 Q1186.3594,29.3906 1186.1719,29.2031 Q1185.8438,28.8281 1185.2344,28.6094 Q1184.625,28.3906 1184,28.3906 Q1183.2344,28.3906 1182.5938,28.7188 Q1181.9688,29.0469 1181.4688,29.7969 Q1180.9844,30.5469 1180.9844,31.5781 L1180.9844,32.6719 Q1180.9844,33.9063 1181.875,34.7344 Q1182.7656,35.5469 1184.3594,35.5469 Q1185.2969,35.5469 1185.9531,35.2969 Q1186.3438,35.1406 1186.7656,34.7031 Q1187.0313,34.4375 1187.1719,34.3594 Q1187.3281,34.2813 1187.5313,34.2813 Q1187.8594,34.2813 1188.1094,34.5469 Q1188.375,34.7969 1188.375,35.1406 Q1188.375,35.4844 1188.0313,35.8906 Q1187.5313,36.4688 1186.7344,36.7969 Q1185.6563,37.25 1184.3594,37.25 Q1182.8438,37.25 1181.6406,36.625 Q1180.6563,36.125 1179.9688,35.0625 Q1179.2813,33.9844 1179.2813,32.7031 L1179.2813,31.5469 Q1179.2813,30.2188 1179.8906,29.0781 Q1180.5156,27.9219 1181.6094,27.3125 Q1182.7031,26.6875 1183.9375,26.6875 Q1184.6719,26.6875 1185.3125,26.8594 Q1185.9688,27.0156 1186.5156,27.375 Z " fill="#000000"/><text fill="#000000" font-family="sans-serif" font-size="14" lengthAdjust="spacing" textLength="51" x="1204.25" y="37.2285">Settings</text><line style="stroke:#181818;stroke-width:0.5;" x1="1075" x2="1352" y1="47.5" y2="47.5"/><ellipse cx="1085" cy="61.8047" fill="none" rx="3" ry="3" style="stroke:#038048;stroke-width:1.0;"/><text fill="#000000" font-family="sans-serif" font-size="14" lengthAdjust="spacing" textLength="158" x="1094" y="66.0332">VIEWPORT_HEIGHT : int</text><ellipse cx="1085" cy="79.4141" fill="none" rx="3" ry="3" style="stroke:#038048;stroke-width:1.0;"/><text fill="#000000" font-family="sans-serif" font-size="14" lengthAdjust="spacing" textLength="152" x="1094" y="83.6426">VIEWPORT_WIDTH : int</text><ellipse cx="1085" cy="97.0234" fill="none" rx="3" ry="3" style="stroke:#038048;stroke-width:1.0;"/><text fill="#000000" font-family="sans-serif" font-size="14" lengthAdjust="spacing" textLength="106" x="1094" y="101.252">MAX_ROWS : int</text><ellipse cx="1085" cy="114.6328" fill="none" rx="3" ry="3" style="stroke:#038048;stroke-width:1.0;"/><text fill="#000000" font-family="sans-serif" font-size="14" lengthAdjust="spacing" textLength="195" x="1094" y="118.8613">MAX_COLUMNS_NUMBER : int</text><ellipse cx="1085" cy="132.2422" fill="none" rx="3" ry="3" style="stroke:#038048;stroke-width:1.0;"/><text fill="#000000" font-family="sans-serif" font-size="14" lengthAdjust="spacing" textLength="189" x="1094" y="136.4707">MAX_COLUMNS_CHAR : char</text><line style="stroke:#181818;stroke-width:0.5;" x1="1075" x2="1352" y1="143.5469" y2="143.5469"/><rect fill="#F24D5C" height="6" style="stroke:#C82930;stroke-width:1.0;" width="6" x="1082" y="154.8516"/><text fill="#000000" font-family="sans-serif" font-size="14" lengthAdjust="spacing" textLength="253" x="1094" y="162.0801">getMaxColumns(maxColumns: int) : char</text></g><!--class Sheet--><g id="elem_Sheet"><rect codeLine="55" fill="#F1F1F1" height="294.5313" id="Sheet" rx="2.5" ry="2.5" style="stroke:#181818;stroke-width:0.5;" width="334" x="477.5" y="299"/><ellipse cx="621.75" cy="315" fill="#ADD1B2" rx="11" ry="11" style="stroke:#181818;stroke-width:1.0;"/><path d="M624.5156,310.875 Q624.6719,310.6563 624.8594,310.5469 Q625.0469,310.4375 625.2656,310.4375 Q625.6406,310.4375 625.875,310.7031 Q626.1094,310.9531 626.1094,311.5625 L626.1094,313.0156 Q626.1094,313.625 625.875,313.8906 Q625.6406,314.1563 625.2656,314.1563 Q624.9219,314.1563 624.7188,313.9531 Q624.5156,313.7656 624.4063,313.25 Q624.3594,312.8906 624.1719,312.7031 Q623.8438,312.3281 623.2344,312.1094 Q622.625,311.8906 622,311.8906 Q621.2344,311.8906 620.5938,312.2188 Q619.9688,312.5469 619.4688,313.2969 Q618.9844,314.0469 618.9844,315.0781 L618.9844,316.1719 Q618.9844,317.4063 619.875,318.2344 Q620.7656,319.0469 622.3594,319.0469 Q623.2969,319.0469 623.9531,318.7969 Q624.3438,318.6406 624.7656,318.2031 Q625.0313,317.9375 625.1719,317.8594 Q625.3281,317.7813 625.5313,317.7813 Q625.8594,317.7813 626.1094,318.0469 Q626.375,318.2969 626.375,318.6406 Q626.375,318.9844 626.0313,319.3906 Q625.5313,319.9688 624.7344,320.2969 Q623.6563,320.75 622.3594,320.75 Q620.8438,320.75 619.6406,320.125 Q618.6563,319.625 617.9688,318.5625 Q617.2813,317.4844 617.2813,316.2031 L617.2813,315.0469 Q617.2813,313.7188 617.8906,312.5781 Q618.5156,311.4219 619.6094,310.8125 Q620.7031,310.1875 621.9375,310.1875 Q622.6719,310.1875 623.3125,310.3594 Q623.9688,310.5156 624.5156,310.875 Z " fill="#000000"/><text fill="#000000" font-family="sans-serif" font-size="14" lengthAdjust="spacing" textLength="37" x="642.25" y="320.7285">Sheet</text><line style="stroke:#181818;stroke-width:0.5;" x1="478.5" x2="810.5" y1="331" y2="331"/><rect fill="none" height="6" style="stroke:#C82930;stroke-width:1.0;" width="6" x="485.5" y="342.3047"/><text fill="#000000" font-family="sans-serif" font-size="14" lengthAdjust="spacing" textLength="117" x="497.5" y="349.5332">sheetData : Cell[][]</text><rect fill="none" height="6" style="stroke:#C82930;stroke-width:1.0;" width="6" x="485.5" y="359.9141"/><text fill="#000000" font-family="sans-serif" font-size="14" lengthAdjust="spacing" textLength="118" x="497.5" y="367.1426">currentCell : String</text><rect fill="none" height="6" style="stroke:#C82930;stroke-width:1.0;" width="6" x="485.5" y="377.5234"/><text fill="#000000" font-family="sans-serif" font-size="14" lengthAdjust="spacing" textLength="76" x="497.5" y="384.752">spacing : int</text><line style="stroke:#181818;stroke-width:0.5;" x1="478.5" x2="810.5" y1="391.8281" y2="391.8281"/><ellipse cx="488.5" cy="406.1328" fill="#84BE84" rx="3" ry="3" style="stroke:#038048;stroke-width:1.0;"/><text fill="#000000" font-family="sans-serif" font-size="14" lengthAdjust="spacing" textLength="182" x="497.5" y="410.3613">Sheet(rows: int, columns: int)</text><ellipse cx="488.5" cy="423.7422" fill="#84BE84" rx="3" ry="3" style="stroke:#038048;stroke-width:1.0;"/><text fill="#000000" font-family="sans-serif" font-size="14" lengthAdjust="spacing" textLength="263" x="497.5" y="427.9707">fillSheetData(rows: int, columns: int) : void</text><ellipse cx="488.5" cy="441.3516" fill="#84BE84" rx="3" ry="3" style="stroke:#038048;stroke-width:1.0;"/><text fill="#000000" font-family="sans-serif" font-size="14" lengthAdjust="spacing" textLength="213" x="497.5" y="445.5801">getCellContent(i: int, j: int) : String</text><ellipse cx="488.5" cy="458.9609" fill="#84BE84" rx="3" ry="3" style="stroke:#038048;stroke-width:1.0;"/><text fill="#000000" font-family="sans-serif" font-size="14" lengthAdjust="spacing" textLength="108" x="497.5" y="463.1895">getSpacing() : int</text><ellipse cx="488.5" cy="476.5703" fill="#84BE84" rx="3" ry="3" style="stroke:#038048;stroke-width:1.0;"/><text fill="#000000" font-family="sans-serif" font-size="14" lengthAdjust="spacing" textLength="151" x="497.5" y="480.7988">getCurrentCell() : String</text><ellipse cx="488.5" cy="494.1797" fill="#84BE84" rx="3" ry="3" style="stroke:#038048;stroke-width:1.0;"/><text fill="#000000" font-family="sans-serif" font-size="14" lengthAdjust="spacing" textLength="253" x="497.5" y="498.4082">setCurrentCell(currentCell: String) : void</text><ellipse cx="488.5" cy="511.7891" fill="#84BE84" rx="3" ry="3" style="stroke:#038048;stroke-width:1.0;"/><text fill="#000000" font-family="sans-serif" font-size="14" lengthAdjust="spacing" textLength="308" x="497.5" y="516.0176">setCellValue(row: int, col: int, value: String) : void</text><ellipse cx="488.5" cy="529.3984" fill="#84BE84" rx="3" ry="3" style="stroke:#038048;stroke-width:1.0;"/><text fill="#000000" font-family="sans-serif" font-size="14" lengthAdjust="spacing" textLength="149" x="497.5" y="533.627">getSheetData() : Cell[][]</text><ellipse cx="488.5" cy="547.0078" fill="#84BE84" rx="3" ry="3" style="stroke:#038048;stroke-width:1.0;"/><text fill="#000000" font-family="sans-serif" font-size="14" lengthAdjust="spacing" textLength="91" x="497.5" y="551.2363">getRows() : int</text><ellipse cx="488.5" cy="564.6172" fill="#84BE84" rx="3" ry="3" style="stroke:#038048;stroke-width:1.0;"/><text fill="#000000" font-family="sans-serif" font-size="14" lengthAdjust="spacing" textLength="112" x="497.5" y="568.8457">getColumns() : int</text><ellipse cx="488.5" cy="582.2266" fill="#84BE84" rx="3" ry="3" style="stroke:#038048;stroke-width:1.0;"/><text fill="#000000" font-family="sans-serif" font-size="14" lengthAdjust="spacing" textLength="164" x="497.5" y="586.4551">setCellSize(size: int) : void</text></g><!--class Viewport--><g id="elem_Viewport"><rect codeLine="72" fill="#F1F1F1" height="118.4375" id="Viewport" rx="2.5" ry="2.5" style="stroke:#181818;stroke-width:0.5;" width="493" x="847" y="387.5"/><ellipse cx="1062.25" cy="403.5" fill="#ADD1B2" rx="11" ry="11" style="stroke:#181818;stroke-width:1.0;"/><path d="M1065.0156,399.375 Q1065.1719,399.1563 1065.3594,399.0469 Q1065.5469,398.9375 1065.7656,398.9375 Q1066.1406,398.9375 1066.375,399.2031 Q1066.6094,399.4531 1066.6094,400.0625 L1066.6094,401.5156 Q1066.6094,402.125 1066.375,402.3906 Q1066.1406,402.6563 1065.7656,402.6563 Q1065.4219,402.6563 1065.2188,402.4531 Q1065.0156,402.2656 1064.9063,401.75 Q1064.8594,401.3906 1064.6719,401.2031 Q1064.3438,400.8281 1063.7344,400.6094 Q1063.125,400.3906 1062.5,400.3906 Q1061.7344,400.3906 1061.0938,400.7188 Q1060.4688,401.0469 1059.9688,401.7969 Q1059.4844,402.5469 1059.4844,403.5781 L1059.4844,404.6719 Q1059.4844,405.9063 1060.375,406.7344 Q1061.2656,407.5469 1062.8594,407.5469 Q1063.7969,407.5469 1064.4531,407.2969 Q1064.8438,407.1406 1065.2656,406.7031 Q1065.5313,406.4375 1065.6719,406.3594 Q1065.8281,406.2813 1066.0313,406.2813 Q1066.3594,406.2813 1066.6094,406.5469 Q1066.875,406.7969 1066.875,407.1406 Q1066.875,407.4844 1066.5313,407.8906 Q1066.0313,408.4688 1065.2344,408.7969 Q1064.1563,409.25 1062.8594,409.25 Q1061.3438,409.25 1060.1406,408.625 Q1059.1563,408.125 1058.4688,407.0625 Q1057.7813,405.9844 1057.7813,404.7031 L1057.7813,403.5469 Q1057.7813,402.2188 1058.3906,401.0781 Q1059.0156,399.9219 1060.1094,399.3125 Q1061.2031,398.6875 1062.4375,398.6875 Q1063.1719,398.6875 1063.8125,398.8594 Q1064.4688,399.0156 1065.0156,399.375 Z " fill="#000000"/><text fill="#000000" font-family="sans-serif" font-size="14" lengthAdjust="spacing" textLength="54" x="1082.75" y="409.2285">Viewport</text><line style="stroke:#181818;stroke-width:0.5;" x1="848" x2="1339" y1="419.5" y2="419.5"/><line style="stroke:#181818;stroke-width:0.5;" x1="848" x2="1339" y1="427.5" y2="427.5"/><ellipse cx="858" cy="441.8047" fill="#84BE84" rx="3" ry="3" style="stroke:#038048;stroke-width:1.0;"/><text fill="#000000" font-family="sans-serif" font-size="14" lengthAdjust="spacing" textLength="467" x="867" y="446.0332">showSheet(sheet: Sheet, cursorRow: int, cursorCol: int, spacing: int) : void</text><rect fill="#F24D5C" height="6" style="stroke:#C82930;stroke-width:1.0;" width="6" x="855" y="456.4141"/><text fill="#000000" font-family="sans-serif" font-size="14" lengthAdjust="spacing" textLength="367" x="867" y="463.6426">printHeaders(spacing: int, startRow: int, startCol: int) : void</text><rect fill="#F24D5C" height="6" style="stroke:#C82930;stroke-width:1.0;" width="6" x="855" y="474.0234"/><text fill="#000000" font-family="sans-serif" font-size="14" lengthAdjust="spacing" textLength="245" x="867" y="481.252">printIndex(spacing: int, index: int) : void</text><rect fill="#F24D5C" height="6" style="stroke:#C82930;stroke-width:1.0;" width="6" x="855" y="491.6328"/><text fill="#000000" font-family="sans-serif" font-size="14" lengthAdjust="spacing" textLength="192" x="867" y="498.8613">printBottom(spacing: int) : void</text></g><!--link Spreadsheet to Sheet--><g id="link_Spreadsheet_Sheet"><path codeLine="79" d="M871.9189,187.2655 C840.0289,223.4755 813.7653,253.2971 777.5453,294.4271 " fill="none" id="Spreadsheet-Sheet" style="stroke:#181818;stroke-width:1.0;"/><polygon fill="#181818" points="879.85,178.26,872.8826,180.119,871.9189,187.2655,878.8863,185.4064,879.85,178.26" style="stroke:#181818;stroke-width:1.0;"/><polygon fill="#181818" points="773.58,298.93,782.5299,294.8192,776.8845,295.1776,776.5261,289.5321,773.58,298.93" style="stroke:#181818;stroke-width:1.0;"/></g><!--link Spreadsheet to Movement--><g id="link_Spreadsheet_Movement"><path codeLine="80" d="M1048.626,173.3854 C1054.486,177.4554 1050.57,174.47 1056.5,178 C1180.39,251.76 1229.39,232.85 1357.5,299 C1412.68,327.5 1466.6285,362.1714 1510.7285,392.3514 " fill="none" id="Spreadsheet-Movement" style="stroke:#181818;stroke-width:1.0;"/><polygon fill="#181818" points="1038.77,166.54,1041.4162,173.248,1048.626,173.3854,1045.9798,166.6774,1038.77,166.54" style="stroke:#181818;stroke-width:1.0;"/><polygon fill="#181818" points="1515.68,395.74,1510.5118,387.3561,1511.5537,392.9162,1505.9937,393.9581,1515.68,395.74" style="stroke:#181818;stroke-width:1.0;"/></g><!--link Spreadsheet to Settings--><g id="link_Spreadsheet_Settings"><path codeLine="81" d="M1038.73,92.5 C1050.45,92.5 1044.17,92.5 1055.89,92.5 " fill="none" id="Spreadsheet-to-Settings" style="stroke:#181818;stroke-width:1.0;"/><polygon fill="none" points="1073.89,92.5,1055.89,86.5,1055.89,98.5,1073.89,92.5" style="stroke:#181818;stroke-width:1.0;"/></g><!--link Spreadsheet to Viewport--><g id="link_Spreadsheet_Viewport"><path codeLine="82" d="M987.97,178.26 C1013.52,242.95 1041.4305,313.6274 1063.9205,370.5974 " fill="none" id="Spreadsheet-to-Viewport" style="stroke:#181818;stroke-width:1.0;"/><polygon fill="none" points="1070.53,387.34,1069.5014,368.3942,1058.3397,372.8005,1070.53,387.34" style="stroke:#181818;stroke-width:1.0;"/></g><!--link Spreadsheet to MathOperations--><g id="link_Spreadsheet_MathOperations"><path codeLine="83" d="M870.27,167.32 C864.42,171.17 858.47,174.78 852.5,178 C691.7,264.86 625.77,223.14 459.5,299 C416.64,318.56 387.3075,334.9018 348.7275,359.6118 " fill="none" id="Spreadsheet-to-MathOperations" style="stroke:#181818;stroke-width:1.0;"/><polygon fill="none" points="333.57,369.32,351.9636,364.6643,345.4915,354.5593,333.57,369.32" style="stroke:#181818;stroke-width:1.0;"/></g><!--reverse link Menu to Spreadsheet--><g id="link_Menu_Spreadsheet"><path codeLine="84" d="M853.71,92.5 C865.15,92.5 858.6,92.5 870.05,92.5 " fill="none" id="Menu-backto-Spreadsheet" style="stroke:#181818;stroke-width:1.0;"/><polygon fill="none" points="835.71,92.5,853.71,98.5,853.71,86.5,835.71,92.5" style="stroke:#181818;stroke-width:1.0;"/></g><!--reverse link Settings to Movement--><g id="link_Settings_Movement"><path codeLine="85" d="M1307.295,182.2511 C1379.735,250.7911 1470.87,337.03 1533.02,395.84 " fill="none" id="Settings-backto-Movement" style="stroke:#181818;stroke-width:1.0;"/><polygon fill="none" points="1294.22,169.88,1303.1713,186.6094,1311.4187,177.8928,1294.22,169.88" style="stroke:#181818;stroke-width:1.0;"/></g><!--reverse link Sheet to Viewport--><g id="link_Sheet_Viewport"><path codeLine="86" d="M817.56,446.5 C829.31,446.5 835.05,446.5 846.8,446.5 " fill="none" id="Sheet-backto-Viewport" style="stroke:#181818;stroke-width:1.0;stroke-dasharray:7.0,7.0;"/><polygon fill="#181818" points="811.56,446.5,820.56,450.5,816.56,446.5,820.56,442.5,811.56,446.5" style="stroke:#181818;stroke-width:1.0;"/></g><!--reverse link Settings to Viewport--><g id="link_Settings_Viewport"><path codeLine="87" d="M1181.653,186.9176 C1159.393,252.2276 1133.63,327.79 1113.36,387.25 " fill="none" id="Settings-backto-Viewport" style="stroke:#181818;stroke-width:1.0;"/><polygon fill="none" points="1187.46,169.88,1175.9738,184.9819,1187.3322,188.8532,1187.46,169.88" style="stroke:#181818;stroke-width:1.0;"/></g><!--link MathOperations to Sheet--><g id="link_MathOperations_Sheet"><path codeLine="88" d="M442.29,446.5 C454.01,446.5 459.73,446.5 471.44,446.5 " fill="none" id="MathOperations-to-Sheet" style="stroke:#181818;stroke-width:1.0;stroke-dasharray:7.0,7.0;"/><polygon fill="#181818" points="477.44,446.5,468.44,442.5,472.44,446.5,468.44,450.5,477.44,446.5" style="stroke:#181818;stroke-width:1.0;"/></g><!--link Sheet to Cell--><g id="link_Sheet_Cell"><path codeLine="89" d="M644.5,594.44 C644.5,614.21 644.5,628.38 644.5,647.81 " fill="none" id="Sheet-to-Cell" style="stroke:#181818;stroke-width:1.0;"/><polygon fill="#181818" points="644.5,653.81,648.5,644.81,644.5,648.81,640.5,644.81,644.5,653.81" style="stroke:#181818;stroke-width:1.0;"/></g><!--SRC=[ZLPRRvim57xFh-3HsK9-G3LLQacsH1hD5BfUL5ML2wSD4s1ccrpMxR_FDiR6NBhb8TZdVEVpkVb0d676lAYaW1Es0-3UsyGJFz-hTsTU99zQbfCzv518SQYNMfCMPQNGCIuAe5fAoO49OMfWCScgl6ZBFhOFHrCjerM1fWAr9sao-JEPnChD0BBC-7TqY4_kCG9uWxCAf4USfiMhvfKCwAYWC- -adjDnrSmIDJmD-XNudVBGni6ag2OmhXlmVHzyZquZuA0vLHav0R2sjk-TIyL9BMxJc6I6cEys9L3CKo8gygPjO2y8COVFXEPLXj5B_MpiPtLVwBRekESRw-LH59KnmOp0BCSv4b8zPw0vNhiXRk45A1Gn_2T1okgu24NncHVlC9MGPq8om8N629zYI2Gf8XfieRQHS5bc9vCbL5JvCr1svYtWPmMV5khKyvdNft0RDuIYCXbcEt9eRezKeBYY8ZmLTA-GbgAvUc-sJsIDCEUGRCbXZCMsNDiWKFVmtpOxN2GP12JFnGB5zTEMOSI-sseHS2u4jibkrilRRvljzTDgkVwokdQEDBhRzU9wvQZ2YxkdxUOswWc3pTVluLNqTFKzl5nkHzN1wa8gPOrihuNuM6U3eTmipSLKM1j8Vq8kCCS29rFmyFZms0mWcvZk5M4bZiNE7O5g-CbfsSoTjXiQz99cMTGSEGeU72O1ARXm1wNQueV1EiD5eAFQEzHhdS16D3oLMlht6dfWZ8bGR2HwjNzdh4atJHwctUGhlRWGR206NUVUA9O4KVeB41D_RXvDxMzIE9I4SkSUruLhJoDrAHYXMnkKsWScDDq0_NB9gIHaA_4s54C6jN72YcFABQdQDfn3BEiYWME78vMoKOjBmZd9qQ1x8WljRuGFVkAVwoy3LwuKvjkWhVEf__lSZ09N9Qo4hidmaCvzMxc8J07499sO8UbNpc6cTlDitlXjP1rivxqudrDZKbz_5QBicCbV]--></g></svg>