<svg xmlns="http://www.w3.org/2000/svg" xmlns:xlink="http://www.w3.org/1999/xlink" contentStyleType="text/css" height="597px" preserveAspectRatio="none" style="width:600px;height:597px;background:#FFFFFF;" version="1.1" viewBox="0 0 600 597" width="600px" zoomAndPan="magnify"><defs/><g><!--class Spreadsheet--><g id="elem_Spreadsheet"><rect codeLine="1" fill="#F1F1F1" height="129.4844" id="Spreadsheet" rx="2.5" ry="2.5" style="stroke:#181818;stroke-width:0.5;" width="121" x="218.24" y="7"/><ellipse cx="233.24" cy="23" fill="#ADD1B2" rx="11" ry="11" style="stroke:#181818;stroke-width:1.0;"/><path d="M236.2088,28.6406 Q235.6306,28.9375 234.99,29.0781 Q234.3494,29.2344 233.6463,29.2344 Q231.1463,29.2344 229.8181,27.5938 Q228.5056,25.9375 228.5056,22.8125 Q228.5056,19.6875 229.8181,18.0313 Q231.1463,16.375 233.6463,16.375 Q234.3494,16.375 234.99,16.5313 Q235.6463,16.6875 236.2088,16.9844 L236.2088,19.7031 Q235.5838,19.125 234.99,18.8594 Q234.3963,18.5781 233.7713,18.5781 Q232.4275,18.5781 231.74,19.6563 Q231.0525,20.7188 231.0525,22.8125 Q231.0525,24.9063 231.74,25.9844 Q232.4275,27.0469 233.7713,27.0469 Q234.3963,27.0469 234.99,26.7813 Q235.5838,26.5 236.2088,25.9219 L236.2088,28.6406 Z " fill="#000000"/><text fill="#000000" font-family="sans-serif" font-size="14" lengthAdjust="spacing" textLength="89" x="247.24" y="27.8467">Spreadsheet</text><line style="stroke:#181818;stroke-width:0.5;" x1="219.24" x2="338.24" y1="39" y2="39"/><rect fill="none" height="6" style="stroke:#C82930;stroke-width:1.0;" width="6" x="226.24" y="49.6484"/><text fill="#000000" font-family="sans-serif" font-size="14" lengthAdjust="spacing" textLength="40" x="238.24" y="55.9951">sheet</text><rect fill="none" height="6" style="stroke:#C82930;stroke-width:1.0;" width="6" x="226.24" y="65.9453"/><text fill="#000000" font-family="sans-serif" font-size="14" lengthAdjust="spacing" textLength="64" x="238.24" y="72.292">Navigator</text><rect fill="none" height="6" style="stroke:#C82930;stroke-width:1.0;" width="6" x="226.24" y="82.2422"/><text fill="#000000" font-family="sans-serif" font-size="14" lengthAdjust="spacing" textLength="35" x="238.24" y="88.5889">input</text><rect fill="none" height="6" style="stroke:#C82930;stroke-width:1.0;" width="6" x="226.24" y="98.5391"/><text fill="#000000" font-family="sans-serif" font-size="14" lengthAdjust="spacing" textLength="33" x="238.24" y="104.8857">rows</text><rect fill="none" height="6" style="stroke:#C82930;stroke-width:1.0;" width="6" x="226.24" y="114.8359"/><text fill="#000000" font-family="sans-serif" font-size="14" lengthAdjust="spacing" textLength="59" x="238.24" y="121.1826">columns</text><line style="stroke:#181818;stroke-width:0.5;" x1="219.24" x2="338.24" y1="128.4844" y2="128.4844"/></g><!--class Cell--><g id="elem_Cell"><rect codeLine="9" fill="#F1F1F1" height="96.8906" id="Cell" rx="2.5" ry="2.5" style="stroke:#181818;stroke-width:0.5;" width="87" x="435.24" y="493.97"/><ellipse cx="463.74" cy="509.97" fill="#ADD1B2" rx="11" ry="11" style="stroke:#181818;stroke-width:1.0;"/><path d="M466.7088,515.6106 Q466.1306,515.9075 465.49,516.0481 Q464.8494,516.2044 464.1463,516.2044 Q461.6463,516.2044 460.3181,514.5638 Q459.0056,512.9075 459.0056,509.7825 Q459.0056,506.6575 460.3181,505.0013 Q461.6463,503.345 464.1463,503.345 Q464.8494,503.345 465.49,503.5013 Q466.1463,503.6575 466.7088,503.9544 L466.7088,506.6731 Q466.0838,506.095 465.49,505.8294 Q464.8963,505.5481 464.2713,505.5481 Q462.9275,505.5481 462.24,506.6263 Q461.5525,507.6888 461.5525,509.7825 Q461.5525,511.8763 462.24,512.9544 Q462.9275,514.0169 464.2713,514.0169 Q464.8963,514.0169 465.49,513.7513 Q466.0838,513.47 466.7088,512.8919 L466.7088,515.6106 Z " fill="#000000"/><text fill="#000000" font-family="sans-serif" font-size="14" lengthAdjust="spacing" textLength="25" x="480.74" y="514.8167">Cell</text><line style="stroke:#181818;stroke-width:0.5;" x1="436.24" x2="521.24" y1="525.97" y2="525.97"/><rect fill="none" height="6" style="stroke:#C82930;stroke-width:1.0;" width="6" x="443.24" y="536.6184"/><text fill="#000000" font-family="sans-serif" font-size="14" lengthAdjust="spacing" textLength="7" x="455.24" y="542.9651">x</text><rect fill="none" height="6" style="stroke:#C82930;stroke-width:1.0;" width="6" x="443.24" y="552.9153"/><text fill="#000000" font-family="sans-serif" font-size="14" lengthAdjust="spacing" textLength="7" x="455.24" y="559.262">y</text><rect fill="none" height="6" style="stroke:#C82930;stroke-width:1.0;" width="6" x="443.24" y="569.2122"/><text fill="#000000" font-family="sans-serif" font-size="14" lengthAdjust="spacing" textLength="61" x="455.24" y="575.5589">cellValue</text><line style="stroke:#181818;stroke-width:0.5;" x1="436.24" x2="521.24" y1="582.8606" y2="582.8606"/></g><!--class MathOperations--><g id="elem_MathOperations"><rect codeLine="15" fill="#F1F1F1" height="48" id="MathOperations" rx="2.5" ry="2.5" style="stroke:#181818;stroke-width:0.5;" width="142" x="407.74" y="196.48"/><ellipse cx="422.74" cy="212.48" fill="#ADD1B2" rx="11" ry="11" style="stroke:#181818;stroke-width:1.0;"/><path d="M425.7088,218.1206 Q425.1306,218.4175 424.49,218.5581 Q423.8494,218.7144 423.1463,218.7144 Q420.6463,218.7144 419.3181,217.0738 Q418.0056,215.4175 418.0056,212.2925 Q418.0056,209.1675 419.3181,207.5113 Q420.6463,205.855 423.1463,205.855 Q423.8494,205.855 424.49,206.0113 Q425.1463,206.1675 425.7088,206.4644 L425.7088,209.1831 Q425.0838,208.605 424.49,208.3394 Q423.8963,208.0581 423.2713,208.0581 Q421.9275,208.0581 421.24,209.1363 Q420.5525,210.1988 420.5525,212.2925 Q420.5525,214.3863 421.24,215.4644 Q421.9275,216.5269 423.2713,216.5269 Q423.8963,216.5269 424.49,216.2613 Q425.0838,215.98 425.7088,215.4019 L425.7088,218.1206 Z " fill="#000000"/><text fill="#000000" font-family="sans-serif" font-size="14" lengthAdjust="spacing" textLength="110" x="436.74" y="217.3267">MathOperations</text><line style="stroke:#181818;stroke-width:0.5;" x1="408.74" x2="548.74" y1="228.48" y2="228.48"/><line style="stroke:#181818;stroke-width:0.5;" x1="408.74" x2="548.74" y1="236.48" y2="236.48"/></g><!--class Menu--><g id="elem_Menu"><rect codeLine="17" fill="#F1F1F1" height="48" id="Menu" rx="2.5" ry="2.5" style="stroke:#181818;stroke-width:0.5;" width="71" x="302.24" y="196.48"/><ellipse cx="317.24" cy="212.48" fill="#ADD1B2" rx="11" ry="11" style="stroke:#181818;stroke-width:1.0;"/><path d="M320.2088,218.1206 Q319.6306,218.4175 318.99,218.5581 Q318.3494,218.7144 317.6463,218.7144 Q315.1463,218.7144 313.8181,217.0738 Q312.5056,215.4175 312.5056,212.2925 Q312.5056,209.1675 313.8181,207.5113 Q315.1463,205.855 317.6463,205.855 Q318.3494,205.855 318.99,206.0113 Q319.6463,206.1675 320.2088,206.4644 L320.2088,209.1831 Q319.5838,208.605 318.99,208.3394 Q318.3963,208.0581 317.7713,208.0581 Q316.4275,208.0581 315.74,209.1363 Q315.0525,210.1988 315.0525,212.2925 Q315.0525,214.3863 315.74,215.4644 Q316.4275,216.5269 317.7713,216.5269 Q318.3963,216.5269 318.99,216.2613 Q319.5838,215.98 320.2088,215.4019 L320.2088,218.1206 Z " fill="#000000"/><text fill="#000000" font-family="sans-serif" font-size="14" lengthAdjust="spacing" textLength="39" x="331.24" y="217.3267">Menu</text><line style="stroke:#181818;stroke-width:0.5;" x1="303.24" x2="372.24" y1="228.48" y2="228.48"/><line style="stroke:#181818;stroke-width:0.5;" x1="303.24" x2="372.24" y1="236.48" y2="236.48"/></g><!--class Navigator--><g id="elem_Navigator"><rect codeLine="19" fill="#F1F1F1" height="48" id="Navigator" rx="2.5" ry="2.5" style="stroke:#181818;stroke-width:0.5;" width="96" x="43.74" y="196.48"/><ellipse cx="58.74" cy="212.48" fill="#ADD1B2" rx="11" ry="11" style="stroke:#181818;stroke-width:1.0;"/><path d="M61.7088,218.1206 Q61.1306,218.4175 60.49,218.5581 Q59.8494,218.7144 59.1463,218.7144 Q56.6463,218.7144 55.3181,217.0738 Q54.0056,215.4175 54.0056,212.2925 Q54.0056,209.1675 55.3181,207.5113 Q56.6463,205.855 59.1463,205.855 Q59.8494,205.855 60.49,206.0113 Q61.1463,206.1675 61.7088,206.4644 L61.7088,209.1831 Q61.0838,208.605 60.49,208.3394 Q59.8963,208.0581 59.2713,208.0581 Q57.9275,208.0581 57.24,209.1363 Q56.5525,210.1988 56.5525,212.2925 Q56.5525,214.3863 57.24,215.4644 Q57.9275,216.5269 59.2713,216.5269 Q59.8963,216.5269 60.49,216.2613 Q61.0838,215.98 61.7088,215.4019 L61.7088,218.1206 Z " fill="#000000"/><text fill="#000000" font-family="sans-serif" font-size="14" lengthAdjust="spacing" textLength="64" x="72.74" y="217.3267">Navigator</text><line style="stroke:#181818;stroke-width:0.5;" x1="44.74" x2="138.74" y1="228.48" y2="228.48"/><line style="stroke:#181818;stroke-width:0.5;" x1="44.74" x2="138.74" y1="236.48" y2="236.48"/></g><!--class Settings--><g id="elem_Settings"><rect codeLine="21" fill="#F1F1F1" height="129.4844" id="Settings" rx="2.5" ry="2.5" style="stroke:#181818;stroke-width:0.5;" width="169" x="7.24" y="304.49"/><ellipse cx="58.99" cy="320.49" fill="#ADD1B2" rx="11" ry="11" style="stroke:#181818;stroke-width:1.0;"/><path d="M61.9588,326.1306 Q61.3806,326.4275 60.74,326.5681 Q60.0994,326.7244 59.3963,326.7244 Q56.8963,326.7244 55.5681,325.0838 Q54.2556,323.4275 54.2556,320.3025 Q54.2556,317.1775 55.5681,315.5213 Q56.8963,313.865 59.3963,313.865 Q60.0994,313.865 60.74,314.0213 Q61.3963,314.1775 61.9588,314.4744 L61.9588,317.1931 Q61.3338,316.615 60.74,316.3494 Q60.1463,316.0681 59.5213,316.0681 Q58.1775,316.0681 57.49,317.1463 Q56.8025,318.2088 56.8025,320.3025 Q56.8025,322.3963 57.49,323.4744 Q58.1775,324.5369 59.5213,324.5369 Q60.1463,324.5369 60.74,324.2713 Q61.3338,323.99 61.9588,323.4119 L61.9588,326.1306 Z " fill="#000000"/><text fill="#000000" font-family="sans-serif" font-size="14" lengthAdjust="spacing" textLength="57" x="79.49" y="325.3367">Settings</text><line style="stroke:#181818;stroke-width:0.5;" x1="8.24" x2="175.24" y1="336.49" y2="336.49"/><ellipse cx="18.24" cy="350.1384" fill="none" rx="3" ry="3" style="stroke:#038048;stroke-width:1.0;"/><text fill="#000000" font-family="sans-serif" font-size="14" lengthAdjust="spacing" textLength="105" x="27.24" y="353.4851">ViewportHeight</text><ellipse cx="18.24" cy="366.4353" fill="none" rx="3" ry="3" style="stroke:#038048;stroke-width:1.0;"/><text fill="#000000" font-family="sans-serif" font-size="14" lengthAdjust="spacing" textLength="99" x="27.24" y="369.782">ViewportWidth</text><ellipse cx="18.24" cy="382.7322" fill="none" rx="3" ry="3" style="stroke:#038048;stroke-width:1.0;"/><text fill="#000000" font-family="sans-serif" font-size="14" lengthAdjust="spacing" textLength="65" x="27.24" y="386.0789">MaxRows</text><ellipse cx="18.24" cy="399.0291" fill="none" rx="3" ry="3" style="stroke:#038048;stroke-width:1.0;"/><text fill="#000000" font-family="sans-serif" font-size="14" lengthAdjust="spacing" textLength="143" x="27.24" y="402.3757">MaxColumnsNumber</text><ellipse cx="18.24" cy="415.3259" fill="none" rx="3" ry="3" style="stroke:#038048;stroke-width:1.0;"/><text fill="#000000" font-family="sans-serif" font-size="14" lengthAdjust="spacing" textLength="120" x="27.24" y="418.6726">MaxColumnsChar</text><line style="stroke:#181818;stroke-width:0.5;" x1="8.24" x2="175.24" y1="425.9744" y2="425.9744"/></g><!--class Sheet--><g id="elem_Sheet"><rect codeLine="29" fill="#F1F1F1" height="96.8906" id="Sheet" rx="2.5" ry="2.5" style="stroke:#181818;stroke-width:0.5;" width="101" x="428.24" y="320.78"/><ellipse cx="455.84" cy="336.78" fill="#ADD1B2" rx="11" ry="11" style="stroke:#181818;stroke-width:1.0;"/><path d="M458.8088,342.4206 Q458.2306,342.7175 457.59,342.8581 Q456.9494,343.0144 456.2463,343.0144 Q453.7463,343.0144 452.4181,341.3738 Q451.1056,339.7175 451.1056,336.5925 Q451.1056,333.4675 452.4181,331.8113 Q453.7463,330.155 456.2463,330.155 Q456.9494,330.155 457.59,330.3113 Q458.2463,330.4675 458.8088,330.7644 L458.8088,333.4831 Q458.1838,332.905 457.59,332.6394 Q456.9963,332.3581 456.3713,332.3581 Q455.0275,332.3581 454.34,333.4363 Q453.6525,334.4988 453.6525,336.5925 Q453.6525,338.6863 454.34,339.7644 Q455.0275,340.8269 456.3713,340.8269 Q456.9963,340.8269 457.59,340.5613 Q458.1838,340.28 458.8088,339.7019 L458.8088,342.4206 Z " fill="#000000"/><text fill="#000000" font-family="sans-serif" font-size="14" lengthAdjust="spacing" textLength="41" x="472.64" y="341.6267">Sheet</text><line style="stroke:#181818;stroke-width:0.5;" x1="429.24" x2="528.24" y1="352.78" y2="352.78"/><rect fill="none" height="6" style="stroke:#C82930;stroke-width:1.0;" width="6" x="436.24" y="363.4284"/><text fill="#000000" font-family="sans-serif" font-size="14" lengthAdjust="spacing" textLength="72" x="448.24" y="369.7751">sheetData</text><rect fill="none" height="6" style="stroke:#C82930;stroke-width:1.0;" width="6" x="436.24" y="379.7253"/><text fill="#000000" font-family="sans-serif" font-size="14" lengthAdjust="spacing" textLength="75" x="448.24" y="386.072">currentCell</text><rect fill="none" height="6" style="stroke:#C82930;stroke-width:1.0;" width="6" x="436.24" y="396.0222"/><text fill="#000000" font-family="sans-serif" font-size="14" lengthAdjust="spacing" textLength="54" x="448.24" y="402.3689">spacing</text><line style="stroke:#181818;stroke-width:0.5;" x1="429.24" x2="528.24" y1="409.6706" y2="409.6706"/></g><!--class Viewport--><g id="elem_Viewport"><rect codeLine="35" fill="#F1F1F1" height="48" id="Viewport" rx="2.5" ry="2.5" style="stroke:#181818;stroke-width:0.5;" width="92" x="174.74" y="196.48"/><ellipse cx="189.74" cy="212.48" fill="#ADD1B2" rx="11" ry="11" style="stroke:#181818;stroke-width:1.0;"/><path d="M192.7088,218.1206 Q192.1306,218.4175 191.49,218.5581 Q190.8494,218.7144 190.1463,218.7144 Q187.6463,218.7144 186.3181,217.0738 Q185.0056,215.4175 185.0056,212.2925 Q185.0056,209.1675 186.3181,207.5113 Q187.6463,205.855 190.1463,205.855 Q190.8494,205.855 191.49,206.0113 Q192.1463,206.1675 192.7088,206.4644 L192.7088,209.1831 Q192.0838,208.605 191.49,208.3394 Q190.8963,208.0581 190.2713,208.0581 Q188.9275,208.0581 188.24,209.1363 Q187.5525,210.1988 187.5525,212.2925 Q187.5525,214.3863 188.24,215.4644 Q188.9275,216.5269 190.2713,216.5269 Q190.8963,216.5269 191.49,216.2613 Q192.0838,215.98 192.7088,215.4019 L192.7088,218.1206 Z " fill="#000000"/><text fill="#000000" font-family="sans-serif" font-size="14" lengthAdjust="spacing" textLength="60" x="203.74" y="217.3267">Viewport</text><line style="stroke:#181818;stroke-width:0.5;" x1="175.74" x2="265.74" y1="228.48" y2="228.48"/><line style="stroke:#181818;stroke-width:0.5;" x1="175.74" x2="265.74" y1="236.48" y2="236.48"/></g><!--link Spreadsheet to Sheet--><g id="link_Spreadsheet_Sheet"><path codeLine="37" d="M351.4526,81.4275 C419.9726,92.6375 516.45,120.14 566.74,196.48 C593.37,236.91 565.9513,281.9943 533.4913,317.4543 " fill="none" id="Spreadsheet-Sheet" style="stroke:#181818;stroke-width:1.0;"/><polygon fill="#181818" points="339.61,79.49,344.8855,84.4063,351.4526,81.4275,346.1771,76.5112,339.61,79.49" style="stroke:#181818;stroke-width:1.0;"/><polygon fill="#181818" points="529.44,321.88,538.4674,317.9423,532.8161,318.1919,532.5665,312.5406,529.44,321.88" style="stroke:#181818;stroke-width:1.0;"/></g><!--link Spreadsheet to Navigator--><g id="link_Spreadsheet_Navigator"><path codeLine="38" d="M208.3287,127.9969 C176.0287,153.3369 151.9796,172.2053 126.1696,192.4653 " fill="none" id="Spreadsheet-Navigator" style="stroke:#181818;stroke-width:1.0;"/><polygon fill="#181818" points="217.77,120.59,210.5804,121.1463,208.3287,127.9969,215.5183,127.4405,217.77,120.59" style="stroke:#181818;stroke-width:1.0;"/><polygon fill="#181818" points="121.45,196.17,130.9993,193.7593,125.383,193.0827,126.0596,187.4665,121.45,196.17" style="stroke:#181818;stroke-width:1.0;"/></g><!--link Spreadsheet to Settings--><g id="link_Spreadsheet_Settings"><path codeLine="39" d="M217.81,83.63 C157.49,98.01 68.3,129.78 26.74,196.48 C6,229.77 10.869,255.3174 31.219,288.8874 " fill="none" id="Spreadsheet-to-Settings" style="stroke:#181818;stroke-width:1.0;"/><polygon fill="none" points="40.55,304.28,36.3499,285.777,26.0882,291.9977,40.55,304.28" style="stroke:#181818;stroke-width:1.0;"/></g><!--link Spreadsheet to Viewport--><g id="link_Spreadsheet_Viewport"><path codeLine="40" d="M253.47,136.68 C245.1,157.84 242.9368,163.3303 236.5768,179.4203 " fill="none" id="Spreadsheet-to-Viewport" style="stroke:#181818;stroke-width:1.0;"/><polygon fill="none" points="229.96,196.16,242.1567,181.6259,230.9969,177.2147,229.96,196.16" style="stroke:#181818;stroke-width:1.0;"/></g><!--link Spreadsheet to MathOperations--><g id="link_Spreadsheet_MathOperations"><path codeLine="41" d="M339.56,117.37 C374.96,143.34 403.6165,164.3731 432.4065,185.4931 " fill="none" id="Spreadsheet-to-MathOperations" style="stroke:#181818;stroke-width:1.0;"/><polygon fill="none" points="446.92,196.14,435.9555,180.6552,428.8575,190.3309,446.92,196.14" style="stroke:#181818;stroke-width:1.0;"/></g><!--link Spreadsheet to Menu--><g id="link_Spreadsheet_Menu"><path codeLine="42" d="M304.45,136.68 C312.96,157.84 315.1746,163.3696 321.6446,179.4596 " fill="none" id="Spreadsheet-to-Menu" style="stroke:#181818;stroke-width:1.0;"/><polygon fill="none" points="328.36,196.16,327.2114,177.2211,316.0778,181.6981,328.36,196.16" style="stroke:#181818;stroke-width:1.0;"/></g><!--link Navigator to Settings--><g id="link_Navigator_Settings"><path codeLine="43" d="M91.74,244.74 C91.74,260.82 91.74,265.05 91.74,286.23 " fill="none" id="Navigator-to-Settings" style="stroke:#181818;stroke-width:1.0;"/><polygon fill="none" points="91.74,304.23,97.74,286.23,85.74,286.23,91.74,304.23" style="stroke:#181818;stroke-width:1.0;"/></g><!--link Viewport to Sheet--><g id="link_Viewport_Sheet"><path codeLine="44" d="M261.91,244.9 C307,270.55 374.1647,308.7433 422.7547,336.3833 " fill="none" id="Viewport-to-Sheet" style="stroke:#181818;stroke-width:1.0;stroke-dasharray:7.0,7.0;"/><polygon fill="#181818" points="427.97,339.35,422.1249,331.4232,423.6239,336.8778,418.1693,338.3769,427.97,339.35" style="stroke:#181818;stroke-width:1.0;"/></g><!--link Viewport to Settings--><g id="link_Viewport_Settings"><path codeLine="45" d="M200.3,244.74 C186.16,260.82 178.4911,269.5282 159.8811,290.7082 " fill="none" id="Viewport-to-Settings" style="stroke:#181818;stroke-width:1.0;"/><polygon fill="none" points="148,304.23,164.3884,294.6685,155.3738,286.7478,148,304.23" style="stroke:#181818;stroke-width:1.0;"/></g><!--link MathOperations to Sheet--><g id="link_MathOperations_Sheet"><path codeLine="46" d="M478.74,244.74 C478.74,265.02 478.74,289.1 478.74,314.49 " fill="none" id="MathOperations-to-Sheet" style="stroke:#181818;stroke-width:1.0;stroke-dasharray:7.0,7.0;"/><polygon fill="#181818" points="478.74,320.49,482.74,311.49,478.74,315.49,474.74,311.49,478.74,320.49" style="stroke:#181818;stroke-width:1.0;"/></g><!--link Sheet to Cell--><g id="link_Sheet_Cell"><path codeLine="47" d="M478.74,417.91 C478.74,441.56 478.74,464.04 478.74,487.69 " fill="none" id="Sheet-to-Cell" style="stroke:#181818;stroke-width:1.0;"/><polygon fill="#181818" points="478.74,493.69,482.74,484.69,478.74,488.69,474.74,484.69,478.74,493.69" style="stroke:#181818;stroke-width:1.0;"/></g><!--SRC=[PL2xRiCm3Dpr5PfRA9-GnHsw90Lg89rPcx04E98XKNMAjlzUsNhufKNa7N4yNjE3SxmUB4Bh92Bn7yR34tpkKds5BzK16PjwfGUVEMj6byh6zFwk7VjZh9brA-px8lX8_tUU3kGDUe_B_0L8lWreWPG9EXb5xNEzE4b0ZKHATovkURuf70TZwHLL9scBVQYMP8Gky7ZFlgUcYiwl_lw9bk_XIe9TJDR7c5w085_bhKLDq-LvOe0cE5m4iX_6rha_YLQSe_WE3_1ozfeIeZMZ5h_daiAE3anPTc1sOH_vAVQoE69bJvRbfrCsNQ3Du7RBQZp6E1yzXVKF]--></g></svg>