<?xml version="1.0" encoding="us-ascii" standalone="no"?><svg xmlns="http://www.w3.org/2000/svg" xmlns:xlink="http://www.w3.org/1999/xlink" contentStyleType="text/css" height="243px" preserveAspectRatio="none" style="width:224px;height:243px;background:#FFFFFF;" version="1.1" viewBox="0 0 224 243" width="224px" zoomAndPan="magnify"><defs/><g><ellipse cx="41" cy="16" fill="#222222" rx="10" ry="10" style="stroke:#222222;stroke-width:1.0;"/><g id="Inactive"><rect fill="#F1F1F1" height="50" rx="12.5" ry="12.5" style="stroke:#181818;stroke-width:0.5;" width="68" x="7" y="87"/><line style="stroke:#181818;stroke-width:0.5;" x1="7" x2="75" y1="114.6094" y2="114.6094"/><text fill="#000000" font-family="sans-serif" font-size="14" lengthAdjust="spacing" textLength="48" x="17" y="106.5332">Inactive</text></g><g id="Running"><rect fill="#F1F1F1" height="50" rx="12.5" ry="12.5" style="stroke:#181818;stroke-width:0.5;" width="73" x="144.5" y="87"/><line style="stroke:#181818;stroke-width:0.5;" x1="144.5" x2="217.5" y1="114.6094" y2="114.6094"/><text fill="#000000" font-family="sans-serif" font-size="14" lengthAdjust="spacing" textLength="53" x="154.5" y="106.5332">Running</text></g><ellipse cx="41" cy="226" fill="none" rx="11" ry="11" style="stroke:#222222;stroke-width:1.0;"/><ellipse cx="41" cy="226" fill="#222222" rx="6" ry="6" style="stroke:#222222;stroke-width:1.0;"/><!--link *start* to Inactive--><g id="link_*start*_Inactive"><path d="M41,26.01 C41,39.89 41,60.97 41,80.84 " fill="none" id="*start*-to-Inactive" style="stroke:#181818;stroke-width:1.0;"/><polygon fill="#181818" points="41,86.84,45,77.84,41,81.84,37,77.84,41,86.84" style="stroke:#181818;stroke-width:1.0;"/></g><!--link Inactive to Running--><g id="link_Inactive_Running"><path d="M75.2,127.3 C81.89,129.67 88.94,131.74 95.75,133 C107.99,135.27 111.5,135.18 123.75,133 C130.53,131.8 131.8562,131.7423 138.5662,129.5123 " fill="none" id="Inactive-to-Running" style="stroke:#181818;stroke-width:1.0;"/><polygon fill="#181818" points="144.26,127.62,134.4578,126.6625,139.5152,129.1969,136.9808,134.2543,144.26,127.62" style="stroke:#181818;stroke-width:1.0;"/><text fill="#000000" font-family="sans-serif" font-size="13" lengthAdjust="spacing" textLength="26" x="96.75" y="129.4951">run()</text></g><!--reverse link Inactive to Running--><g id="link_Inactive_Running"><path d="M81.25,112 C102.13,112 122.82,112 144.16,112 " fill="none" id="Inactive-backto-Running" style="stroke:#181818;stroke-width:1.0;"/><polygon fill="#181818" points="75.25,112,84.25,116,80.25,112,84.25,108,75.25,112" style="stroke:#181818;stroke-width:1.0;"/><text fill="#000000" font-family="sans-serif" font-size="13" lengthAdjust="spacing" textLength="33" x="93.25" y="105.4951">stop()</text></g><!--link Inactive to *end*--><g id="link_Inactive_*end*"><path d="M41,137.03 C41,161.19 41,191.31 41,208.79 " fill="none" id="Inactive-to-*end*" style="stroke:#181818;stroke-width:1.0;"/><polygon fill="#181818" points="41,214.79,45,205.79,41,209.79,37,205.79,41,214.79" style="stroke:#181818;stroke-width:1.0;"/><text fill="#000000" font-family="sans-serif" font-size="13" lengthAdjust="spacing" textLength="51" x="42" y="181.4951">destroy()</text></g><!--SRC=[YzQALT1DqRLJyCnBJ2x9B4lbueAn57IBWE91fNbvcNdf2bOAHQLv6ffSN301tHmaNK3fufBy0g0yGZV8r6YWyLOAAQd59KNvbK1P0000]--></g></svg>