<?xml version="1.0" encoding="us-ascii" standalone="no"?><svg xmlns="http://www.w3.org/2000/svg" xmlns:xlink="http://www.w3.org/1999/xlink" contentStyleType="text/css" height="399px" preserveAspectRatio="none" style="width:424px;height:399px;background:#FFFFFF;" version="1.1" viewBox="0 0 424 399" width="424px" zoomAndPan="magnify"><defs/><g><ellipse cx="203.96" cy="16" fill="#222222" rx="10" ry="10" style="stroke:#222222;stroke-width:1.0;"/><g id="Inactive"><rect fill="#F1F1F1" height="50" rx="12.5" ry="12.5" style="stroke:#181818;stroke-width:0.5;" width="68" x="169.96" y="87"/><line style="stroke:#181818;stroke-width:0.5;" x1="169.96" x2="237.96" y1="114.6094" y2="114.6094"/><text fill="#000000" font-family="sans-serif" font-size="14" lengthAdjust="spacing" textLength="48" x="179.96" y="106.5332">Inactive</text></g><g id="ViewingSpreadsheet"><rect fill="#F1F1F1" height="50" rx="12.5" ry="12.5" style="stroke:#181818;stroke-width:0.5;" width="149" x="129.46" y="215"/><line style="stroke:#181818;stroke-width:0.5;" x1="129.46" x2="278.46" y1="242.6094" y2="242.6094"/><text fill="#000000" font-family="sans-serif" font-size="14" lengthAdjust="spacing" textLength="129" x="139.46" y="234.5332">ViewingSpreadsheet</text></g><g id="Moving"><rect fill="#F1F1F1" height="50" rx="12.5" ry="12.5" style="stroke:#181818;stroke-width:0.5;" width="65" x="18.46" y="343"/><line style="stroke:#181818;stroke-width:0.5;" x1="18.46" x2="83.46" y1="370.6094" y2="370.6094"/><text fill="#000000" font-family="sans-serif" font-size="14" lengthAdjust="spacing" textLength="45" x="28.46" y="362.5332">Moving</text></g><g id="Editing"><rect fill="#F1F1F1" height="50" rx="12.5" ry="12.5" style="stroke:#181818;stroke-width:0.5;" width="63" x="141.46" y="343"/><line style="stroke:#181818;stroke-width:0.5;" x1="141.46" x2="204.46" y1="370.6094" y2="370.6094"/><text fill="#000000" font-family="sans-serif" font-size="14" lengthAdjust="spacing" textLength="43" x="151.46" y="362.5332">Editing</text></g><g id="ChangingSize"><rect fill="#F1F1F1" height="50" rx="12.5" ry="12.5" style="stroke:#181818;stroke-width:0.5;" width="107" x="310.46" y="343"/><line style="stroke:#181818;stroke-width:0.5;" x1="310.46" x2="417.46" y1="370.6094" y2="370.6094"/><text fill="#000000" font-family="sans-serif" font-size="14" lengthAdjust="spacing" textLength="87" x="320.46" y="362.5332">ChangingSize</text></g><ellipse cx="336.96" cy="112" fill="none" rx="11" ry="11" style="stroke:#222222;stroke-width:1.0;"/><ellipse cx="336.96" cy="112" fill="#222222" rx="6" ry="6" style="stroke:#222222;stroke-width:1.0;"/><!--link *start* to Inactive--><g id="link_*start*_Inactive"><path d="M203.96,26.01 C203.96,39.89 203.96,60.97 203.96,80.84 " fill="none" id="*start*-to-Inactive" style="stroke:#181818;stroke-width:1.0;"/><polygon fill="#181818" points="203.96,86.84,207.96,77.84,203.96,81.84,199.96,77.84,203.96,86.84" style="stroke:#181818;stroke-width:1.0;"/></g><!--link Inactive to ViewingSpreadsheet--><g id="link_Inactive_ViewingSpreadsheet"><path d="M182.84,137.16 C176.45,145.95 170.26,156.36 166.96,167 C161.77,183.78 166.8531,196.5527 177.1131,210.1327 " fill="none" id="Inactive-to-ViewingSpreadsheet" style="stroke:#181818;stroke-width:1.0;"/><polygon fill="#181818" points="180.73,214.92,178.4962,205.3278,177.7159,210.9306,172.1131,210.1503,180.73,214.92" style="stroke:#181818;stroke-width:1.0;"/><text fill="#000000" font-family="sans-serif" font-size="13" lengthAdjust="spacing" textLength="26" x="167.96" y="181.4951">run()</text></g><!--link ViewingSpreadsheet to Inactive--><g id="link_ViewingSpreadsheet_Inactive"><path d="M203.96,214.78 C203.96,192.49 203.96,165.61 203.96,143.29 " fill="none" id="ViewingSpreadsheet-to-Inactive" style="stroke:#181818;stroke-width:1.0;"/><polygon fill="#181818" points="203.96,137.29,199.96,146.29,203.96,142.29,207.96,146.29,203.96,137.29" style="stroke:#181818;stroke-width:1.0;"/><text fill="#000000" font-family="sans-serif" font-size="13" lengthAdjust="spacing" textLength="33" x="204.96" y="181.4951">stop()</text></g><!--link ViewingSpreadsheet to Moving--><g id="link_ViewingSpreadsheet_Moving"><path d="M129.33,253.17 C83.45,262.34 30.88,276.5 16.96,295 C6,309.58 11.6482,323.5717 23.3082,338.2517 " fill="none" id="ViewingSpreadsheet-to-Moving" style="stroke:#181818;stroke-width:1.0;"/><polygon fill="#181818" points="27.04,342.95,24.5746,333.4147,23.9302,339.0348,18.3102,338.3904,27.04,342.95" style="stroke:#181818;stroke-width:1.0;"/><text fill="#000000" font-family="sans-serif" font-size="13" lengthAdjust="spacing" textLength="62" x="17.96" y="309.4951">move cell()</text></g><!--link Moving to ViewingSpreadsheet--><g id="link_Moving_ViewingSpreadsheet"><path d="M80.11,342.99 C107.18,320.7 142.649,291.4949 169.829,269.1049 " fill="none" id="Moving-to-ViewingSpreadsheet" style="stroke:#181818;stroke-width:1.0;"/><polygon fill="#181818" points="174.46,265.29,164.9702,267.925,170.6008,268.4691,170.0567,274.0997,174.46,265.29" style="stroke:#181818;stroke-width:1.0;"/></g><!--link ViewingSpreadsheet to Editing--><g id="link_ViewingSpreadsheet_Editing"><path d="M179.81,265.01 C172.64,273.71 165.7,284.1 161.96,295 C156.67,310.43 157.8303,322.827 161.9503,337.047 " fill="none" id="ViewingSpreadsheet-to-Editing" style="stroke:#181818;stroke-width:1.0;"/><polygon fill="#181818" points="163.62,342.81,164.9574,333.0524,162.2286,338.0075,157.2734,335.2787,163.62,342.81" style="stroke:#181818;stroke-width:1.0;"/><text fill="#000000" font-family="sans-serif" font-size="13" lengthAdjust="spacing" textLength="53" x="162.96" y="309.4951">edit cell()</text></g><!--link Editing to ViewingSpreadsheet--><g id="link_Editing_ViewingSpreadsheet"><path d="M201.27,342.74 C209.19,334.23 216.77,324.02 220.96,313 C226.85,297.51 224.7507,284.9078 218.9707,270.6978 " fill="none" id="Editing-to-ViewingSpreadsheet" style="stroke:#181818;stroke-width:1.0;"/><polygon fill="#181818" points="216.71,265.14,216.3958,274.9838,218.5939,269.7715,223.8062,271.9696,216.71,265.14" style="stroke:#181818;stroke-width:1.0;"/></g><!--link ViewingSpreadsheet to ChangingSize--><g id="link_ViewingSpreadsheet_ChangingSize"><path d="M234.81,265.29 C263.24,287.68 300.4558,316.9883 328.7658,339.2783 " fill="none" id="ViewingSpreadsheet-to-ChangingSize" style="stroke:#181818;stroke-width:1.0;"/><polygon fill="#181818" points="333.48,342.99,328.8832,334.2797,329.5515,339.8969,323.9343,340.5652,333.48,342.99" style="stroke:#181818;stroke-width:1.0;"/><text fill="#000000" font-family="sans-serif" font-size="13" lengthAdjust="spacing" textLength="102" x="294.96" y="309.4951">change cell size()</text></g><!--link ChangingSize to ViewingSpreadsheet--><g id="link_ChangingSize_ViewingSpreadsheet"><path d="M392.8,342.69 C406.41,328.26 417.42,309.92 405.96,295 C390.21,274.48 335.323,261.0981 284.503,252.3481 " fill="none" id="ChangingSize-to-ViewingSpreadsheet" style="stroke:#181818;stroke-width:1.0;"/><polygon fill="#181818" points="278.59,251.33,286.7808,256.7991,283.5175,252.1784,288.1382,248.9151,278.59,251.33" style="stroke:#181818;stroke-width:1.0;"/></g><!--link Inactive to *end*--><g id="link_Inactive_*end*"><path d="M238.21,112 C267.15,112 300.84,112 319.89,112 " fill="none" id="Inactive-to-*end*" style="stroke:#181818;stroke-width:1.0;"/><polygon fill="#181818" points="325.89,112,316.89,108,320.89,112,316.89,116,325.89,112" style="stroke:#181818;stroke-width:1.0;"/><text fill="#000000" font-family="sans-serif" font-size="13" lengthAdjust="spacing" textLength="51" x="256.46" y="105.4951">destroy()</text></g><!--SRC=[YzQALT1DqRLJyCnBJ2x9B4lbueAn8E9XcQdbcNdfmGL5gOafnHcfgIKALWf5fNaQcbnOf7IHJ0AgAox9Bm0gnANIDxyCA0fKbviFL9wScfC3L0mLrCLkDqwpN5CoIo26fG9PCCDWegIQvfoHc9SE4i-i0laZ6SI5k52X62W4D1b51NRZaOEo2AWY6XZMLWefgSKbHVcLG2C0]--></g></svg>