<svg xmlns="http://www.w3.org/2000/svg" xmlns:xlink="http://www.w3.org/1999/xlink" contentStyleType="text/css" height="527px" preserveAspectRatio="none" style="width:843px;height:527px;background:#FFFFFF;" version="1.1" viewBox="0 0 843 527" width="843px" zoomAndPan="magnify"><defs/><g><g id="elem_spreadsheet"><rect fill="#F1F1F1" height="109.7813" style="stroke:#181818;stroke-width:0.5;" width="200" x="278.28" y="7"/><text fill="#000000" font-family="sans-serif" font-size="14" lengthAdjust="spacing" textLength="186" x="285.28" y="21.9951">spreadsheet: Spreadsheet</text><line style="stroke:#181818;stroke-width:0.5;" x1="279.28" x2="477.28" y1="27.2969" y2="27.2969"/><rect fill="none" height="6" style="stroke:#C82930;stroke-width:1.0;" width="6" x="286.28" y="37.9453"/><text fill="#000000" font-family="sans-serif" font-size="14" lengthAdjust="spacing" textLength="90" x="298.28" y="44.292">sheet: Sheet</text><rect fill="none" height="6" style="stroke:#C82930;stroke-width:1.0;" width="6" x="286.28" y="54.2422"/><text fill="#000000" font-family="sans-serif" font-size="14" lengthAdjust="spacing" textLength="136" x="298.28" y="60.5889">navigator: Navigator</text><rect fill="none" height="6" style="stroke:#C82930;stroke-width:1.0;" width="6" x="286.28" y="70.5391"/><text fill="#000000" font-family="sans-serif" font-size="14" lengthAdjust="spacing" textLength="35" x="298.28" y="76.8857">input</text><rect fill="none" height="6" style="stroke:#C82930;stroke-width:1.0;" width="6" x="286.28" y="86.8359"/><text fill="#000000" font-family="sans-serif" font-size="14" lengthAdjust="spacing" textLength="60" x="298.28" y="93.1826">rows: 12</text><rect fill="none" height="6" style="stroke:#C82930;stroke-width:1.0;" width="6" x="286.28" y="103.1328"/><text fill="#000000" font-family="sans-serif" font-size="14" lengthAdjust="spacing" textLength="86" x="298.28" y="109.4795">columns: 12</text></g><g id="elem_cell"><rect fill="#F1F1F1" height="77.1875" style="stroke:#181818;stroke-width:0.5;" width="87" x="621.78" y="442.86"/><text fill="#000000" font-family="sans-serif" font-size="14" lengthAdjust="spacing" textLength="57" x="636.78" y="457.8551">cell: Cell</text><line style="stroke:#181818;stroke-width:0.5;" x1="622.78" x2="707.78" y1="463.1569" y2="463.1569"/><rect fill="none" height="6" style="stroke:#C82930;stroke-width:1.0;" width="6" x="629.78" y="473.8053"/><text fill="#000000" font-family="sans-serif" font-size="14" lengthAdjust="spacing" textLength="7" x="641.78" y="480.152">x</text><rect fill="none" height="6" style="stroke:#C82930;stroke-width:1.0;" width="6" x="629.78" y="490.1022"/><text fill="#000000" font-family="sans-serif" font-size="14" lengthAdjust="spacing" textLength="7" x="641.78" y="496.4489">y</text><rect fill="none" height="6" style="stroke:#C82930;stroke-width:1.0;" width="6" x="629.78" y="506.3991"/><text fill="#000000" font-family="sans-serif" font-size="14" lengthAdjust="spacing" textLength="61" x="641.78" y="512.7457">cellValue</text></g><g id="elem_mathOperations"><rect fill="#F1F1F1" height="36.2969" style="stroke:#181818;stroke-width:0.5;" width="244" x="543.28" y="176.78"/><text fill="#000000" font-family="sans-serif" font-size="14" lengthAdjust="spacing" textLength="230" x="550.28" y="191.7751">mathOperations: MathOperations</text><line style="stroke:#181818;stroke-width:0.5;" x1="544.28" x2="786.28" y1="197.0769" y2="197.0769"/></g><g id="elem_menu"><rect fill="#F1F1F1" height="36.2969" style="stroke:#181818;stroke-width:0.5;" width="102" x="406.28" y="176.78"/><text fill="#000000" font-family="sans-serif" font-size="14" lengthAdjust="spacing" textLength="88" x="413.28" y="191.7751">menu: Menu</text><line style="stroke:#181818;stroke-width:0.5;" x1="407.28" x2="507.28" y1="197.0769" y2="197.0769"/></g><g id="elem_navigator"><rect fill="#F1F1F1" height="36.2969" style="stroke:#181818;stroke-width:0.5;" width="150" x="45.28" y="176.78"/><text fill="#000000" font-family="sans-serif" font-size="14" lengthAdjust="spacing" textLength="136" x="52.28" y="191.7751">navigator: Navigator</text><line style="stroke:#181818;stroke-width:0.5;" x1="46.28" x2="194.28" y1="197.0769" y2="197.0769"/></g><g id="elem_settings"><rect fill="#F1F1F1" height="109.7813" style="stroke:#181818;stroke-width:0.5;" width="197" x="21.78" y="273.08"/><text fill="#000000" font-family="sans-serif" font-size="14" lengthAdjust="spacing" textLength="122" x="59.28" y="288.0751">settings: Settings</text><line style="stroke:#181818;stroke-width:0.5;" x1="22.78" x2="217.78" y1="293.3769" y2="293.3769"/><ellipse cx="32.78" cy="307.0253" fill="none" rx="3" ry="3" style="stroke:#038048;stroke-width:1.0;"/><text fill="#000000" font-family="sans-serif" font-size="14" lengthAdjust="spacing" textLength="121" x="41.78" y="310.372">viewportHeight: 5</text><ellipse cx="32.78" cy="323.3222" fill="none" rx="3" ry="3" style="stroke:#038048;stroke-width:1.0;"/><text fill="#000000" font-family="sans-serif" font-size="14" lengthAdjust="spacing" textLength="115" x="41.78" y="326.6689">viewportWidth: 5</text><ellipse cx="32.78" cy="339.6191" fill="none" rx="3" ry="3" style="stroke:#038048;stroke-width:1.0;"/><text fill="#000000" font-family="sans-serif" font-size="14" lengthAdjust="spacing" textLength="93" x="41.78" y="342.9657">maxRows: 12</text><ellipse cx="32.78" cy="355.9159" fill="none" rx="3" ry="3" style="stroke:#038048;stroke-width:1.0;"/><text fill="#000000" font-family="sans-serif" font-size="14" lengthAdjust="spacing" textLength="171" x="41.78" y="359.2626">maxColumnsNumber: 12</text><ellipse cx="32.78" cy="372.2128" fill="none" rx="3" ry="3" style="stroke:#038048;stroke-width:1.0;"/><text fill="#000000" font-family="sans-serif" font-size="14" lengthAdjust="spacing" textLength="148" x="41.78" y="375.5595">maxColumnsChar: 12</text></g><g id="elem_sheet"><rect fill="#F1F1F1" height="77.1875" style="stroke:#181818;stroke-width:0.5;" width="152" x="589.28" y="289.38"/><text fill="#000000" font-family="sans-serif" font-size="14" lengthAdjust="spacing" textLength="90" x="620.28" y="304.3751">sheet: Sheet</text><line style="stroke:#181818;stroke-width:0.5;" x1="590.28" x2="740.28" y1="309.6769" y2="309.6769"/><rect fill="none" height="6" style="stroke:#C82930;stroke-width:1.0;" width="6" x="597.28" y="320.3253"/><text fill="#000000" font-family="sans-serif" font-size="14" lengthAdjust="spacing" textLength="126" x="609.28" y="326.672">sheetData: Cell[][]</text><rect fill="none" height="6" style="stroke:#C82930;stroke-width:1.0;" width="6" x="597.28" y="336.6222"/><text fill="#000000" font-family="sans-serif" font-size="14" lengthAdjust="spacing" textLength="109" x="609.28" y="342.9689">currentCell: Cell</text><rect fill="none" height="6" style="stroke:#C82930;stroke-width:1.0;" width="6" x="597.28" y="352.9191"/><text fill="#000000" font-family="sans-serif" font-size="14" lengthAdjust="spacing" textLength="72" x="609.28" y="359.2657">spacing: 5</text></g><g id="elem_viewport"><rect fill="#F1F1F1" height="36.2969" style="stroke:#181818;stroke-width:0.5;" width="141" x="229.78" y="176.78"/><text fill="#000000" font-family="sans-serif" font-size="14" lengthAdjust="spacing" textLength="127" x="236.78" y="191.7751">viewport: Viewport</text><line style="stroke:#181818;stroke-width:0.5;" x1="230.78" x2="369.78" y1="197.0769" y2="197.0769"/></g><!--link spreadsheet to sheet--><g id="link_spreadsheet_sheet"><path codeLine="37" d="M490.6533,77.2994 C603.9633,93.8994 765.76,125.33 805.28,176.78 C836.45,217.35 793.8003,256.5023 745.8003,285.8223 " fill="none" id="spreadsheet-sheet" style="stroke:#181818;stroke-width:1.0;"/><polygon fill="#181818" points="478.78,75.56,484.1368,80.3875,490.6533,77.2994,485.2964,72.472,478.78,75.56" style="stroke:#181818;stroke-width:1.0;"/><polygon fill="#181818" points="740.68,288.95,750.4456,287.6721,744.9469,286.3436,746.2754,280.845,740.68,288.95" style="stroke:#181818;stroke-width:1.0;"/></g><!--link spreadsheet to navigator--><g id="link_spreadsheet_navigator"><path codeLine="38" d="M267.0911,119.3644 C223.6611,141.4244 191.7291,157.6421 160.2791,173.6221 " fill="none" id="spreadsheet-navigator" style="stroke:#181818;stroke-width:1.0;"/><polygon fill="#181818" points="277.79,113.93,270.6291,113.0809,267.0911,119.3644,274.252,120.2135,277.79,113.93" style="stroke:#181818;stroke-width:1.0;"/><polygon fill="#181818" points="154.93,176.34,164.7656,175.8292,159.3876,174.0751,161.1417,168.697,154.93,176.34" style="stroke:#181818;stroke-width:1.0;"/></g><!--link spreadsheet to settings--><g id="link_spreadsheet_settings"><path codeLine="39" d="M278.15,65.29 C196.19,73.2 84.89,98.84 28.28,176.78 C6,207.46 14.5497,230.556 42.0197,259.726 " fill="none" id="spreadsheet-to-settings" style="stroke:#181818;stroke-width:1.0;"/><polygon fill="none" points="54.36,272.83,46.3877,255.6125,37.6516,263.8394,54.36,272.83" style="stroke:#181818;stroke-width:1.0;"/></g><!--link spreadsheet to viewport--><g id="link_spreadsheet_viewport"><path codeLine="40" d="M346.11,116.95 C333.43,138.24 328.9787,145.7339 319.8987,160.9839 " fill="none" id="spreadsheet-to-viewport" style="stroke:#181818;stroke-width:1.0;"/><polygon fill="none" points="310.69,176.45,325.054,164.0535,314.7433,157.9143,310.69,176.45" style="stroke:#181818;stroke-width:1.0;"/></g><!--link spreadsheet to mathOperations--><g id="link_spreadsheet_mathOperations"><path codeLine="41" d="M478.66,108.72 C529.74,132.05 572.4868,151.5622 610.2568,168.8122 " fill="none" id="spreadsheet-to-mathOperations" style="stroke:#181818;stroke-width:1.0;"/><polygon fill="none" points="626.63,176.29,612.7494,163.3544,607.7642,174.2699,626.63,176.29" style="stroke:#181818;stroke-width:1.0;"/></g><!--link spreadsheet to menu--><g id="link_spreadsheet_menu"><path codeLine="42" d="M410.87,116.95 C423.71,138.24 428.2594,145.783 437.4494,161.033 " fill="none" id="spreadsheet-to-menu" style="stroke:#181818;stroke-width:1.0;"/><polygon fill="none" points="446.74,176.45,442.5884,157.9361,432.3104,164.1299,446.74,176.45" style="stroke:#181818;stroke-width:1.0;"/></g><!--link navigator to settings--><g id="link_navigator_settings"><path codeLine="43" d="M120.28,213.33 C120.28,228.51 120.28,233.37 120.28,254.61 " fill="none" id="navigator-to-settings" style="stroke:#181818;stroke-width:1.0;"/><polygon fill="none" points="120.28,272.61,126.28,254.61,114.28,254.61,120.28,272.61" style="stroke:#181818;stroke-width:1.0;"/></g><!--link viewport to sheet--><g id="link_viewport_sheet"><path codeLine="44" d="M349.13,213.47 C410.61,235.54 511.2429,271.6727 583.4429,297.5927 " fill="none" id="viewport-to-sheet" style="stroke:#181818;stroke-width:1.0;stroke-dasharray:7.0,7.0;"/><polygon fill="#181818" points="589.09,299.62,581.9709,292.8143,584.3841,297.9306,579.2678,300.3437,589.09,299.62" style="stroke:#181818;stroke-width:1.0;"/></g><!--link viewport to settings--><g id="link_viewport_settings"><path codeLine="45" d="M276.38,213.33 C255.53,228.51 238.6929,240.777 209.5129,262.017 " fill="none" id="viewport-to-settings" style="stroke:#181818;stroke-width:1.0;"/><polygon fill="none" points="194.96,272.61,213.0439,266.868,205.9819,257.166,194.96,272.61" style="stroke:#181818;stroke-width:1.0;"/></g><!--link mathOperations to sheet--><g id="link_mathOperations_sheet"><path codeLine="46" d="M665.28,213.33 C665.28,232.55 665.28,258.07 665.28,283.05 " fill="none" id="mathOperations-to-sheet" style="stroke:#181818;stroke-width:1.0;stroke-dasharray:7.0,7.0;"/><polygon fill="#181818" points="665.28,289.05,669.28,280.05,665.28,284.05,661.28,280.05,665.28,289.05" style="stroke:#181818;stroke-width:1.0;"/></g><!--link sheet to cell--><g id="link_sheet_cell"><path codeLine="47" d="M665.28,366.81 C665.28,389.94 665.28,413.44 665.28,436.58 " fill="none" id="sheet-to-cell" style="stroke:#181818;stroke-width:1.0;"/><polygon fill="#181818" points="665.28,442.58,669.28,433.58,665.28,437.58,661.28,433.58,665.28,442.58" style="stroke:#181818;stroke-width:1.0;"/></g><!--SRC=[RL8zRuCm4Dtv5QUChOZKIbqOMEZGfQdKIEaGPN3W18x0HiPEKhNzxpN-mf0mcBltxkwTxyoF9ombh8PU8Ac61b5ci9sS5P018X9-4j1V2Zvq_3c8aJEjYUGYWuqt7KLPhtoOu9SXWwTdvvQyLHspo5-ISDTGYMsRGQ5FqyBe1ksh-t_x4fhSaLPXNA0ZildeKH19-LZ-VUQRelEGA1MPqWdwj67QcCXxjpHXWPXY1vIIibghRvrbv-aSTw57E5Eyz5p8DwHrewVwii2_Q2MR2Ux8zJCUea4AEyUDweuexb95GyHopF4QRM-tMtubajXLx0_xWv-v4WAPBCAQV4PFIdstiTb8nbyaWvspZ9Y7aoH-OWzfbUPMUe5hU9foJEcCtppCTKwDJ12wOHPlu9OVbnz4BHPqV5bOhtt30Pe5pbMYyD1-RbxnFm00]--></g></svg>