<?xml version="1.0" encoding="us-ascii" standalone="no"?><svg xmlns="http://www.w3.org/2000/svg" xmlns:xlink="http://www.w3.org/1999/xlink" contentStyleType="text/css" height="776px" preserveAspectRatio="none" style="width:1001px;height:776px;background:#FFFFFF;" version="1.1" viewBox="0 0 1001 776" width="1001px" zoomAndPan="magnify"><defs/><g><!--class Cell--><g id="elem_Cell"><rect codeLine="1" fill="#F1F1F1" height="96.8906" id="Cell" rx="2.5" ry="2.5" style="stroke:#181818;stroke-width:0.5;" width="281" x="431" y="673"/><ellipse cx="553.75" cy="689" fill="#ADD1B2" rx="11" ry="11" style="stroke:#181818;stroke-width:1.0;"/><path d="M556.0938,684.6719 C555.1563,684.2344 554.5625,684.0938 553.6875,684.0938 C551.0625,684.0938 549.0625,686.1719 549.0625,688.8906 L549.0625,690.0156 C549.0625,692.5938 551.1719,694.4844 554.0625,694.4844 C555.2813,694.4844 556.4375,694.1875 557.1875,693.6406 C557.7656,693.2344 558.0938,692.7813 558.0938,692.3906 C558.0938,691.9375 557.7031,691.5469 557.2344,691.5469 C557.0156,691.5469 556.8125,691.625 556.625,691.8125 C556.1719,692.2969 556.1719,692.2969 555.9844,692.3906 C555.5625,692.6563 554.875,692.7813 554.1094,692.7813 C552.0625,692.7813 550.7656,691.6875 550.7656,689.9844 L550.7656,688.8906 C550.7656,687.1094 552.0156,685.7969 553.75,685.7969 C554.3281,685.7969 554.9375,685.9531 555.4063,686.2031 C555.8906,686.4844 556.0625,686.7031 556.1563,687.1094 C556.2188,687.5156 556.25,687.6406 556.3906,687.7656 C556.5313,687.9063 556.7656,688.0156 556.9844,688.0156 C557.25,688.0156 557.5156,687.875 557.6875,687.6563 C557.7969,687.5 557.8281,687.3125 557.8281,686.8906 L557.8281,685.4688 C557.8281,685.0313 557.8125,684.9063 557.7188,684.75 C557.5625,684.4844 557.2813,684.3438 556.9844,684.3438 C556.6875,684.3438 556.4844,684.4375 556.2656,684.75 L556.0938,684.6719 Z " fill="#000000"/><text fill="#000000" font-family="sans-serif" font-size="14" lengthAdjust="spacing" textLength="27" x="574.25" y="693.8467">Cell</text><line style="stroke:#181818;stroke-width:0.5;" x1="432" x2="711" y1="705" y2="705"/><rect fill="none" height="6" style="stroke:#C82930;stroke-width:1.0;" width="6" x="439" y="715.6484"/><text fill="#000000" font-family="sans-serif" font-size="14" lengthAdjust="spacing" textLength="117" x="451" y="721.9951">cellValue: String</text><line style="stroke:#181818;stroke-width:0.5;" x1="432" x2="711" y1="729.2969" y2="729.2969"/><ellipse cx="442" cy="742.9453" fill="#84BE84" rx="3" ry="3" style="stroke:#038048;stroke-width:1.0;"/><text fill="#000000" font-family="sans-serif" font-size="14" lengthAdjust="spacing" textLength="154" x="451" y="746.292">getCellValue(): String</text><ellipse cx="442" cy="759.2422" fill="#84BE84" rx="3" ry="3" style="stroke:#038048;stroke-width:1.0;"/><text fill="#000000" font-family="sans-serif" font-size="14" lengthAdjust="spacing" textLength="255" x="451" y="762.5889">setCellValue(cellValue: String): void</text></g><!--class Movement--><g id="elem_Movement"><rect codeLine="7" fill="#F1F1F1" height="194.6719" id="Movement" rx="2.5" ry="2.5" style="stroke:#181818;stroke-width:0.5;" width="475" x="7" y="361"/><ellipse cx="201.75" cy="377" fill="#ADD1B2" rx="11" ry="11" style="stroke:#181818;stroke-width:1.0;"/><path d="M204.0938,372.6719 C203.1563,372.2344 202.5625,372.0938 201.6875,372.0938 C199.0625,372.0938 197.0625,374.1719 197.0625,376.8906 L197.0625,378.0156 C197.0625,380.5938 199.1719,382.4844 202.0625,382.4844 C203.2813,382.4844 204.4375,382.1875 205.1875,381.6406 C205.7656,381.2344 206.0938,380.7813 206.0938,380.3906 C206.0938,379.9375 205.7031,379.5469 205.2344,379.5469 C205.0156,379.5469 204.8125,379.625 204.625,379.8125 C204.1719,380.2969 204.1719,380.2969 203.9844,380.3906 C203.5625,380.6563 202.875,380.7813 202.1094,380.7813 C200.0625,380.7813 198.7656,379.6875 198.7656,377.9844 L198.7656,376.8906 C198.7656,375.1094 200.0156,373.7969 201.75,373.7969 C202.3281,373.7969 202.9375,373.9531 203.4063,374.2031 C203.8906,374.4844 204.0625,374.7031 204.1563,375.1094 C204.2188,375.5156 204.25,375.6406 204.3906,375.7656 C204.5313,375.9063 204.7656,376.0156 204.9844,376.0156 C205.25,376.0156 205.5156,375.875 205.6875,375.6563 C205.7969,375.5 205.8281,375.3125 205.8281,374.8906 L205.8281,373.4688 C205.8281,373.0313 205.8125,372.9063 205.7188,372.75 C205.5625,372.4844 205.2813,372.3438 204.9844,372.3438 C204.6875,372.3438 204.4844,372.4375 204.2656,372.75 L204.0938,372.6719 Z " fill="#000000"/><text fill="#000000" font-family="sans-serif" font-size="14" lengthAdjust="spacing" textLength="77" x="222.25" y="381.8467">Movement</text><line style="stroke:#181818;stroke-width:0.5;" x1="8" x2="481" y1="393" y2="393"/><rect fill="none" height="6" style="stroke:#C82930;stroke-width:1.0;" width="6" x="15" y="403.6484"/><text fill="#000000" font-family="sans-serif" font-size="14" lengthAdjust="spacing" textLength="112" x="27" y="409.9951">currentRow: int</text><rect fill="none" height="6" style="stroke:#C82930;stroke-width:1.0;" width="6" x="15" y="419.9453"/><text fill="#000000" font-family="sans-serif" font-size="14" lengthAdjust="spacing" textLength="136" x="27" y="426.292">currentColumn: int</text><line style="stroke:#181818;stroke-width:0.5;" x1="8" x2="481" y1="433.5938" y2="433.5938"/><ellipse cx="18" cy="447.2422" fill="#84BE84" rx="3" ry="3" style="stroke:#038048;stroke-width:1.0;"/><text fill="#000000" font-family="sans-serif" font-size="14" lengthAdjust="spacing" textLength="282" x="27" y="450.5889">getCurrentRow(currentCell: String): int</text><ellipse cx="18" cy="463.5391" fill="#84BE84" rx="3" ry="3" style="stroke:#038048;stroke-width:1.0;"/><text fill="#000000" font-family="sans-serif" font-size="14" lengthAdjust="spacing" textLength="306" x="27" y="466.8857">getCurrentColumn(currentCell: String): int</text><ellipse cx="18" cy="479.8359" fill="#84BE84" rx="3" ry="3" style="stroke:#038048;stroke-width:1.0;"/><text fill="#000000" font-family="sans-serif" font-size="14" lengthAdjust="spacing" textLength="449" x="27" y="483.1826">handleCommand(command: String, currentCell: String): String</text><rect fill="#F24D5C" height="6" style="stroke:#C82930;stroke-width:1.0;" width="6" x="15" y="493.1328"/><text fill="#000000" font-family="sans-serif" font-size="14" lengthAdjust="spacing" textLength="255" x="27" y="499.4795">moveUp(currentCell: String): String</text><rect fill="#F24D5C" height="6" style="stroke:#C82930;stroke-width:1.0;" width="6" x="15" y="509.4297"/><text fill="#000000" font-family="sans-serif" font-size="14" lengthAdjust="spacing" textLength="276" x="27" y="515.7764">moveDown(currentCell: String): String</text><rect fill="#F24D5C" height="6" style="stroke:#C82930;stroke-width:1.0;" width="6" x="15" y="525.7266"/><text fill="#000000" font-family="sans-serif" font-size="14" lengthAdjust="spacing" textLength="266" x="27" y="532.0732">moveLeft(currentCell: String): String</text><rect fill="#F24D5C" height="6" style="stroke:#C82930;stroke-width:1.0;" width="6" x="15" y="542.0234"/><text fill="#000000" font-family="sans-serif" font-size="14" lengthAdjust="spacing" textLength="275" x="27" y="548.3701">moveRight(currentCell: String): String</text></g><!--class Sheet--><g id="elem_Sheet"><rect codeLine="19" fill="#F1F1F1" height="308.75" id="Sheet" rx="2.5" ry="2.5" style="stroke:#181818;stroke-width:0.5;" width="406" x="517.5" y="304"/><ellipse cx="694.75" cy="320" fill="#ADD1B2" rx="11" ry="11" style="stroke:#181818;stroke-width:1.0;"/><path d="M697.0938,315.6719 C696.1563,315.2344 695.5625,315.0938 694.6875,315.0938 C692.0625,315.0938 690.0625,317.1719 690.0625,319.8906 L690.0625,321.0156 C690.0625,323.5938 692.1719,325.4844 695.0625,325.4844 C696.2813,325.4844 697.4375,325.1875 698.1875,324.6406 C698.7656,324.2344 699.0938,323.7813 699.0938,323.3906 C699.0938,322.9375 698.7031,322.5469 698.2344,322.5469 C698.0156,322.5469 697.8125,322.625 697.625,322.8125 C697.1719,323.2969 697.1719,323.2969 696.9844,323.3906 C696.5625,323.6563 695.875,323.7813 695.1094,323.7813 C693.0625,323.7813 691.7656,322.6875 691.7656,320.9844 L691.7656,319.8906 C691.7656,318.1094 693.0156,316.7969 694.75,316.7969 C695.3281,316.7969 695.9375,316.9531 696.4063,317.2031 C696.8906,317.4844 697.0625,317.7031 697.1563,318.1094 C697.2188,318.5156 697.25,318.6406 697.3906,318.7656 C697.5313,318.9063 697.7656,319.0156 697.9844,319.0156 C698.25,319.0156 698.5156,318.875 698.6875,318.6563 C698.7969,318.5 698.8281,318.3125 698.8281,317.8906 L698.8281,316.4688 C698.8281,316.0313 698.8125,315.9063 698.7188,315.75 C698.5625,315.4844 698.2813,315.3438 697.9844,315.3438 C697.6875,315.3438 697.4844,315.4375 697.2656,315.75 L697.0938,315.6719 Z " fill="#000000"/><text fill="#000000" font-family="sans-serif" font-size="14" lengthAdjust="spacing" textLength="43" x="715.25" y="324.8467">Sheet</text><line style="stroke:#181818;stroke-width:0.5;" x1="518.5" x2="922.5" y1="336" y2="336"/><rect fill="none" height="6" style="stroke:#C82930;stroke-width:1.0;" width="6" x="525.5" y="346.6484"/><text fill="#000000" font-family="sans-serif" font-size="14" lengthAdjust="spacing" textLength="62" x="537.5" y="352.9951">rows: int</text><rect fill="none" height="6" style="stroke:#C82930;stroke-width:1.0;" width="6" x="525.5" y="362.9453"/><text fill="#000000" font-family="sans-serif" font-size="14" lengthAdjust="spacing" textLength="88" x="537.5" y="369.292">columns: int</text><rect fill="none" height="6" style="stroke:#C82930;stroke-width:1.0;" width="6" x="525.5" y="379.2422"/><text fill="#000000" font-family="sans-serif" font-size="14" lengthAdjust="spacing" textLength="148" x="537.5" y="385.5889">sheetData: String[][]</text><rect fill="none" height="6" style="stroke:#C82930;stroke-width:1.0;" width="6" x="525.5" y="395.5391"/><text fill="#000000" font-family="sans-serif" font-size="14" lengthAdjust="spacing" textLength="133" x="537.5" y="401.8857">currentCell: String</text><rect fill="none" height="6" style="stroke:#C82930;stroke-width:1.0;" width="6" x="525.5" y="411.8359"/><text fill="#000000" font-family="sans-serif" font-size="14" lengthAdjust="spacing" textLength="119" x="537.5" y="418.1826">spacing: final int</text><line style="stroke:#181818;stroke-width:0.5;" x1="518.5" x2="922.5" y1="425.4844" y2="425.4844"/><ellipse cx="528.5" cy="439.1328" fill="#84BE84" rx="3" ry="3" style="stroke:#038048;stroke-width:1.0;"/><text fill="#000000" font-family="sans-serif" font-size="14" lengthAdjust="spacing" textLength="211" x="537.5" y="442.4795">Sheet(rows: int, columns: int)</text><ellipse cx="528.5" cy="455.4297" fill="#84BE84" rx="3" ry="3" style="stroke:#038048;stroke-width:1.0;"/><text fill="#000000" font-family="sans-serif" font-size="14" lengthAdjust="spacing" textLength="298" x="537.5" y="458.7764">getCellValue(row: int, column: int): String</text><ellipse cx="528.5" cy="471.7266" fill="#84BE84" rx="3" ry="3" style="stroke:#038048;stroke-width:1.0;"/><text fill="#000000" font-family="sans-serif" font-size="14" lengthAdjust="spacing" textLength="380" x="537.5" y="475.0732">setCellValue(row: int, column: int, value: String): void</text><ellipse cx="528.5" cy="488.0234" fill="#84BE84" rx="3" ry="3" style="stroke:#038048;stroke-width:1.0;"/><text fill="#000000" font-family="sans-serif" font-size="14" lengthAdjust="spacing" textLength="170" x="537.5" y="491.3701">getCurrentCell(): String</text><ellipse cx="528.5" cy="504.3203" fill="#84BE84" rx="3" ry="3" style="stroke:#038048;stroke-width:1.0;"/><text fill="#000000" font-family="sans-serif" font-size="14" lengthAdjust="spacing" textLength="232" x="537.5" y="507.667">setCurrentCell(cell: String): void</text><ellipse cx="528.5" cy="520.6172" fill="#84BE84" rx="3" ry="3" style="stroke:#038048;stroke-width:1.0;"/><text fill="#000000" font-family="sans-serif" font-size="14" lengthAdjust="spacing" textLength="227" x="537.5" y="523.9639">getCurrentRow(cell: String): int</text><ellipse cx="528.5" cy="536.9141" fill="#84BE84" rx="3" ry="3" style="stroke:#038048;stroke-width:1.0;"/><text fill="#000000" font-family="sans-serif" font-size="14" lengthAdjust="spacing" textLength="251" x="537.5" y="540.2607">getCurrentColumn(cell: String): int</text><ellipse cx="528.5" cy="553.2109" fill="#84BE84" rx="3" ry="3" style="stroke:#038048;stroke-width:1.0;"/><text fill="#000000" font-family="sans-serif" font-size="14" lengthAdjust="spacing" textLength="249" x="537.5" y="556.5576">getCellContent(i: int, j: int): String</text><ellipse cx="528.5" cy="569.5078" fill="#84BE84" rx="3" ry="3" style="stroke:#038048;stroke-width:1.0;"/><text fill="#000000" font-family="sans-serif" font-size="14" lengthAdjust="spacing" textLength="349" x="537.5" y="572.8545">setCellValue(row: int, col: int, value: String): void</text><ellipse cx="528.5" cy="585.8047" fill="#84BE84" rx="3" ry="3" style="stroke:#038048;stroke-width:1.0;"/><text fill="#000000" font-family="sans-serif" font-size="14" lengthAdjust="spacing" textLength="185" x="537.5" y="589.1514">getSheetData(): String[][]</text><ellipse cx="528.5" cy="602.1016" fill="#84BE84" rx="3" ry="3" style="stroke:#038048;stroke-width:1.0;"/><text fill="#000000" font-family="sans-serif" font-size="14" lengthAdjust="spacing" textLength="230" x="537.5" y="605.4482">getCellName(i: int, j: int): String</text></g><!--class Menu--><g id="elem_Menu"><rect codeLine="38" fill="#F1F1F1" height="64.2969" id="Menu" rx="2.5" ry="2.5" style="stroke:#181818;stroke-width:0.5;" width="247" x="747" y="689.5"/><ellipse cx="847.25" cy="705.5" fill="#ADD1B2" rx="11" ry="11" style="stroke:#181818;stroke-width:1.0;"/><path d="M849.5938,701.1719 C848.6563,700.7344 848.0625,700.5938 847.1875,700.5938 C844.5625,700.5938 842.5625,702.6719 842.5625,705.3906 L842.5625,706.5156 C842.5625,709.0938 844.6719,710.9844 847.5625,710.9844 C848.7813,710.9844 849.9375,710.6875 850.6875,710.1406 C851.2656,709.7344 851.5938,709.2813 851.5938,708.8906 C851.5938,708.4375 851.2031,708.0469 850.7344,708.0469 C850.5156,708.0469 850.3125,708.125 850.125,708.3125 C849.6719,708.7969 849.6719,708.7969 849.4844,708.8906 C849.0625,709.1563 848.375,709.2813 847.6094,709.2813 C845.5625,709.2813 844.2656,708.1875 844.2656,706.4844 L844.2656,705.3906 C844.2656,703.6094 845.5156,702.2969 847.25,702.2969 C847.8281,702.2969 848.4375,702.4531 848.9063,702.7031 C849.3906,702.9844 849.5625,703.2031 849.6563,703.6094 C849.7188,704.0156 849.75,704.1406 849.8906,704.2656 C850.0313,704.4063 850.2656,704.5156 850.4844,704.5156 C850.75,704.5156 851.0156,704.375 851.1875,704.1563 C851.2969,704 851.3281,703.8125 851.3281,703.3906 L851.3281,701.9688 C851.3281,701.5313 851.3125,701.4063 851.2188,701.25 C851.0625,700.9844 850.7813,700.8438 850.4844,700.8438 C850.1875,700.8438 849.9844,700.9375 849.7656,701.25 L849.5938,701.1719 Z " fill="#000000"/><text fill="#000000" font-family="sans-serif" font-size="14" lengthAdjust="spacing" textLength="38" x="867.75" y="710.3467">Menu</text><line style="stroke:#181818;stroke-width:0.5;" x1="748" x2="993" y1="721.5" y2="721.5"/><line style="stroke:#181818;stroke-width:0.5;" x1="748" x2="993" y1="729.5" y2="729.5"/><ellipse cx="758" cy="743.1484" fill="#84BE84" rx="3" ry="3" style="stroke:#038048;stroke-width:1.0;"/><text fill="#000000" font-family="sans-serif" font-size="14" lengthAdjust="spacing" textLength="221" x="767" y="746.4951">showSheet(sheet: Sheet): void</text></g><!--class HojaDeCalculo--><g id="elem_HojaDeCalculo"><rect codeLine="42" fill="#F1F1F1" height="129.4844" id="HojaDeCalculo" rx="2.5" ry="2.5" style="stroke:#181818;stroke-width:0.5;" width="191" x="387" y="115"/><ellipse cx="427.65" cy="131" fill="#ADD1B2" rx="11" ry="11" style="stroke:#181818;stroke-width:1.0;"/><path d="M429.9938,126.6719 C429.0563,126.2344 428.4625,126.0938 427.5875,126.0938 C424.9625,126.0938 422.9625,128.1719 422.9625,130.8906 L422.9625,132.0156 C422.9625,134.5938 425.0719,136.4844 427.9625,136.4844 C429.1813,136.4844 430.3375,136.1875 431.0875,135.6406 C431.6656,135.2344 431.9938,134.7813 431.9938,134.3906 C431.9938,133.9375 431.6031,133.5469 431.1344,133.5469 C430.9156,133.5469 430.7125,133.625 430.525,133.8125 C430.0719,134.2969 430.0719,134.2969 429.8844,134.3906 C429.4625,134.6563 428.775,134.7813 428.0094,134.7813 C425.9625,134.7813 424.6656,133.6875 424.6656,131.9844 L424.6656,130.8906 C424.6656,129.1094 425.9156,127.7969 427.65,127.7969 C428.2281,127.7969 428.8375,127.9531 429.3063,128.2031 C429.7906,128.4844 429.9625,128.7031 430.0563,129.1094 C430.1188,129.5156 430.15,129.6406 430.2906,129.7656 C430.4313,129.9063 430.6656,130.0156 430.8844,130.0156 C431.15,130.0156 431.4156,129.875 431.5875,129.6563 C431.6969,129.5 431.7281,129.3125 431.7281,128.8906 L431.7281,127.4688 C431.7281,127.0313 431.7125,126.9063 431.6188,126.75 C431.4625,126.4844 431.1813,126.3438 430.8844,126.3438 C430.5875,126.3438 430.3844,126.4375 430.1656,126.75 L429.9938,126.6719 Z " fill="#000000"/><text fill="#000000" font-family="sans-serif" font-size="14" lengthAdjust="spacing" textLength="102" x="447.35" y="135.8467">HojaDeCalculo</text><line style="stroke:#181818;stroke-width:0.5;" x1="388" x2="577" y1="147" y2="147"/><rect fill="none" height="6" style="stroke:#C82930;stroke-width:1.0;" width="6" x="395" y="157.6484"/><text fill="#000000" font-family="sans-serif" font-size="14" lengthAdjust="spacing" textLength="93" x="407" y="163.9951">sheet: Sheet</text><rect fill="none" height="6" style="stroke:#C82930;stroke-width:1.0;" width="6" x="395" y="173.9453"/><text fill="#000000" font-family="sans-serif" font-size="14" lengthAdjust="spacing" textLength="165" x="407" y="180.292">movement: Movement</text><rect fill="none" height="6" style="stroke:#C82930;stroke-width:1.0;" width="6" x="395" y="190.2422"/><text fill="#000000" font-family="sans-serif" font-size="14" lengthAdjust="spacing" textLength="105" x="407" y="196.5889">input: Scanner</text><line style="stroke:#181818;stroke-width:0.5;" x1="388" x2="577" y1="203.8906" y2="203.8906"/><ellipse cx="398" cy="217.5391" fill="#84BE84" rx="3" ry="3" style="stroke:#038048;stroke-width:1.0;"/><text fill="#000000" font-family="sans-serif" font-size="14" lengthAdjust="spacing" textLength="112" x="407" y="220.8857">HojaDeCalculo()</text><ellipse cx="398" cy="233.8359" fill="#84BE84" rx="3" ry="3" style="stroke:#038048;stroke-width:1.0;"/><text fill="#000000" font-family="sans-serif" font-size="14" lengthAdjust="spacing" textLength="72" x="407" y="237.1826">run(): void</text></g><!--class Main--><g id="elem_Main"><rect fill="#F1F1F1" height="48" id="Main" rx="2.5" ry="2.5" style="stroke:#181818;stroke-width:0.5;" width="65" x="450" y="7"/><ellipse cx="465" cy="23" fill="#ADD1B2" rx="11" ry="11" style="stroke:#181818;stroke-width:1.0;"/><path d="M467.3438,18.6719 C466.4063,18.2344 465.8125,18.0938 464.9375,18.0938 C462.3125,18.0938 460.3125,20.1719 460.3125,22.8906 L460.3125,24.0156 C460.3125,26.5938 462.4219,28.4844 465.3125,28.4844 C466.5313,28.4844 467.6875,28.1875 468.4375,27.6406 C469.0156,27.2344 469.3438,26.7813 469.3438,26.3906 C469.3438,25.9375 468.9531,25.5469 468.4844,25.5469 C468.2656,25.5469 468.0625,25.625 467.875,25.8125 C467.4219,26.2969 467.4219,26.2969 467.2344,26.3906 C466.8125,26.6563 466.125,26.7813 465.3594,26.7813 C463.3125,26.7813 462.0156,25.6875 462.0156,23.9844 L462.0156,22.8906 C462.0156,21.1094 463.2656,19.7969 465,19.7969 C465.5781,19.7969 466.1875,19.9531 466.6563,20.2031 C467.1406,20.4844 467.3125,20.7031 467.4063,21.1094 C467.4688,21.5156 467.5,21.6406 467.6406,21.7656 C467.7813,21.9063 468.0156,22.0156 468.2344,22.0156 C468.5,22.0156 468.7656,21.875 468.9375,21.6563 C469.0469,21.5 469.0781,21.3125 469.0781,20.8906 L469.0781,19.4688 C469.0781,19.0313 469.0625,18.9063 468.9688,18.75 C468.8125,18.4844 468.5313,18.3438 468.2344,18.3438 C467.9375,18.3438 467.7344,18.4375 467.5156,18.75 L467.3438,18.6719 Z " fill="#000000"/><text fill="#000000" font-family="sans-serif" font-size="14" lengthAdjust="spacing" textLength="33" x="479" y="27.8467">Main</text><line style="stroke:#181818;stroke-width:0.5;" x1="451" x2="514" y1="39" y2="39"/><line style="stroke:#181818;stroke-width:0.5;" x1="451" x2="514" y1="47" y2="47"/></g><!--link Main to HojaDeCalculo--><g id="link_Main_HojaDeCalculo"><path codeLine="50" d="M482.5,55.213 C482.5,71.35 482.5,87.692 482.5,108.929 " fill="none" id="Main-to-HojaDeCalculo" style="stroke:#181818;stroke-width:1.0;"/><polygon fill="#181818" points="482.5,114.929,486.5,105.929,482.5,109.929,478.5,105.929,482.5,114.929" style="stroke:#181818;stroke-width:1.0;"/></g><!--link Sheet to Cell--><g id="link_Sheet_Cell"><path codeLine="51" d="M632.749,613.211 C620.43,634.791 611.5848,650.2854 601.6708,667.651 " fill="none" id="Sheet-to-Cell" style="stroke:#181818;stroke-width:1.0;"/><polygon fill="#181818" points="598.696,672.8616,606.6319,667.0288,601.175,668.5194,599.6844,663.0625,598.696,672.8616" style="stroke:#181818;stroke-width:1.0;"/></g><!--link HojaDeCalculo to Movement--><g id="link_HojaDeCalculo_Movement"><path codeLine="52" d="M427.898,244.049 C398.186,278.63 364.7192,317.5811 331.4732,356.2751 " fill="none" id="HojaDeCalculo-to-Movement" style="stroke:#181818;stroke-width:1.0;"/><polygon fill="#181818" points="327.563,360.826,336.4622,356.6064,330.8215,357.0336,330.3943,351.3929,327.563,360.826" style="stroke:#181818;stroke-width:1.0;"/></g><!--link Sheet to Menu--><g id="link_Sheet_Menu"><path codeLine="53" d="M808.84,613.211 C825.503,642.206 838.2694,664.4179 849.6824,684.2774 " fill="none" id="Sheet-to-Menu" style="stroke:#181818;stroke-width:1.0;"/><polygon fill="#181818" points="852.672,689.4795,851.6557,679.6832,850.1807,685.1444,844.7195,683.6694,852.672,689.4795" style="stroke:#181818;stroke-width:1.0;"/></g><!--link HojaDeCalculo to Sheet--><g id="link_HojaDeCalculo_Sheet"><path codeLine="54" d="M537.102,244.049 C552.678,262.178 566.4519,278.208 584.5419,299.263 " fill="none" id="HojaDeCalculo-to-Sheet" style="stroke:#181818;stroke-width:1.0;"/><polygon fill="#181818" points="588.452,303.814,585.6208,294.3808,585.1936,300.0215,579.5529,299.5943,588.452,303.814" style="stroke:#181818;stroke-width:1.0;"/></g><!--SRC=[bLIxSiCW4Epr5PHuOls0YZHoaI9EOK_IU5mm65ju47WGM4Kc_nv00e5DR4MDnDtUxJrMO8Qw3jI4CV1T0FEK09l35sAQL62h9EKdPty19w9gxuAB6sSNE-yo6FHLq4FnKnJO4Qx5bRI4gubKIsdE6z5NW7ALMcl1TCidnr1BY80UPcWZnXnwoFGqe47ym4WjsjPyG3oyFN89yk7HF4hGcWO_Bt0cSYLwFXVxJevgBdP3JyqJS5Z9jY5aseSKVPTimWqkCNKsO8KKyhbs-zt-Pd4HfO-w86nE5JXIZbWqSySF0-yoeLpaD2X7iNZeW7map6p44bnpMhsJZicIbNtankc8itcSOEShzH7I-6h1bK53EhPo_kSGParWwpSzzHzs7IhvG2tviupfnoTSZo8pPJMY7zRkj5GD6hYxBDx46Qr8ZHZMJ0I5nY6HvEsjKeNxPNHGVj4MYn7dH8xiILhe5IOrXr45QqGvAClN55qCFukrszQBj49h3WLCIDjw1ka0lm00]--></g></svg>