<?xml version="1.0" encoding="us-ascii" standalone="no"?><svg xmlns="http://www.w3.org/2000/svg" xmlns:xlink="http://www.w3.org/1999/xlink" contentStyleType="text/css" height="778px" preserveAspectRatio="none" style="width:691px;height:778px;background:#FFFFFF;" version="1.1" viewBox="0 0 691 778" width="691px" zoomAndPan="magnify"><defs/><g><ellipse cx="300.5" cy="16" fill="#222222" rx="10" ry="10" style="stroke:#222222;stroke-width:1.0;"/><g id="SinEvaluarFormula"><rect fill="#F1F1F1" height="50" rx="12.5" ry="12.5" style="stroke:#181818;stroke-width:0.5;" width="145" x="228" y="87"/><line style="stroke:#181818;stroke-width:0.5;" x1="228" x2="373" y1="113.2969" y2="113.2969"/><text fill="#000000" font-family="sans-serif" font-size="14" lengthAdjust="spacing" textLength="125" x="238" y="104.9951">SinEvaluarFormula</text></g><g id="FormulaIngresada"><rect fill="#F1F1F1" height="50" rx="12.5" ry="12.5" style="stroke:#181818;stroke-width:0.5;" width="143" x="7" y="214"/><line style="stroke:#181818;stroke-width:0.5;" x1="7" x2="150" y1="240.2969" y2="240.2969"/><text fill="#000000" font-family="sans-serif" font-size="14" lengthAdjust="spacing" textLength="123" x="17" y="231.9951">FormulaIngresada</text></g><g id="FormulaValidada"><rect fill="#F1F1F1" height="50" rx="12.5" ry="12.5" style="stroke:#181818;stroke-width:0.5;" width="132" x="135.5" y="341"/><line style="stroke:#181818;stroke-width:0.5;" x1="135.5" x2="267.5" y1="367.2969" y2="367.2969"/><text fill="#000000" font-family="sans-serif" font-size="14" lengthAdjust="spacing" textLength="112" x="145.5" y="358.9951">FormulaValidada</text></g><g id="ExpresionMatematica"><rect fill="#F1F1F1" height="50" rx="12.5" ry="12.5" style="stroke:#181818;stroke-width:0.5;" width="167" x="118" y="468"/><line style="stroke:#181818;stroke-width:0.5;" x1="118" x2="285" y1="494.2969" y2="494.2969"/><text fill="#000000" font-family="sans-serif" font-size="14" lengthAdjust="spacing" textLength="147" x="128" y="485.9951">ExpresionMatematica</text></g><g id="Evaluada"><rect fill="#F1F1F1" height="50" rx="12.5" ry="12.5" style="stroke:#181818;stroke-width:0.5;" width="81" x="297" y="595"/><line style="stroke:#181818;stroke-width:0.5;" x1="297" x2="378" y1="621.2969" y2="621.2969"/><text fill="#000000" font-family="sans-serif" font-size="14" lengthAdjust="spacing" textLength="61" x="307" y="612.9951">Evaluada</text></g><g id="Error"><rect fill="#F1F1F1" height="50" rx="12.5" ry="12.5" style="stroke:#181818;stroke-width:0.5;" width="53" x="398" y="722"/><line style="stroke:#181818;stroke-width:0.5;" x1="398" x2="451" y1="748.2969" y2="748.2969"/><text fill="#000000" font-family="sans-serif" font-size="14" lengthAdjust="spacing" textLength="33" x="408" y="739.9951">Error</text></g><!--link *start* to SinEvaluarFormula--><g id="link_*start*_SinEvaluarFormula"><path d="M300.5,26.36 C300.5,40.29 300.5,60.95 300.5,80.65 " fill="none" id="*start*-to-SinEvaluarFormula" style="stroke:#181818;stroke-width:1.0;"/><polygon fill="#181818" points="300.5,86.65,304.5,77.65,300.5,81.65,296.5,77.65,300.5,86.65" style="stroke:#181818;stroke-width:1.0;"/></g><!--link SinEvaluarFormula to FormulaIngresada--><g id="link_SinEvaluarFormula_FormulaIngresada"><path d="M227.84,116.35 C186.36,121.91 136.09,135.36 102.5,167 C89.62,179.13 84.7078,192.504 81.9478,207.914 " fill="none" id="SinEvaluarFormula-to-FormulaIngresada" style="stroke:#181818;stroke-width:1.0;"/><polygon fill="#181818" points="80.89,213.82,86.414,205.6662,81.7715,208.8983,78.5393,204.2558,80.89,213.82" style="stroke:#181818;stroke-width:1.0;"/><text fill="#000000" font-family="sans-serif" font-size="13" lengthAdjust="spacing" textLength="134" x="103.5" y="180.0669">Proporcionar f&#243;rmula</text></g><!--link FormulaIngresada to FormulaValidada--><g id="link_FormulaIngresada_FormulaValidada"><path d="M66.27,264.22 C60.73,278.89 57.25,297.34 66.5,311 C82.07,333.99 103.4221,345.5129 129.2921,353.0929 " fill="none" id="FormulaIngresada-to-FormulaValidada" style="stroke:#181818;stroke-width:1.0;"/><polygon fill="#181818" points="135.05,354.78,127.5378,348.4107,130.2517,353.3741,125.2884,356.088,135.05,354.78" style="stroke:#181818;stroke-width:1.0;"/><text fill="#000000" font-family="sans-serif" font-size="13" lengthAdjust="spacing" textLength="170" x="67.5" y="307.0669">F&#243;rmula comienza con "="</text></g><!--link FormulaValidada to ExpresionMatematica--><g id="link_FormulaValidada_ExpresionMatematica"><path d="M201.5,391.4 C201.5,413.42 201.5,439.66 201.5,461.66 " fill="none" id="FormulaValidada-to-ExpresionMatematica" style="stroke:#181818;stroke-width:1.0;"/><polygon fill="#181818" points="201.5,467.66,205.5,458.66,201.5,462.66,197.5,458.66,201.5,467.66" style="stroke:#181818;stroke-width:1.0;"/><text fill="#000000" font-family="sans-serif" font-size="13" lengthAdjust="spacing" textLength="12" x="202.5" y="434.0669">S&#237;</text></g><!--link FormulaValidada to SinEvaluarFormula--><g id="link_FormulaValidada_SinEvaluarFormula"><path d="M222.93,340.72 C229.93,331.84 237.25,321.4 242.5,311 C272.18,252.15 288.0543,181.5072 295.2543,143.1072 " fill="none" id="FormulaValidada-to-SinEvaluarFormula" style="stroke:#181818;stroke-width:1.0;"/><polygon fill="#181818" points="296.36,137.21,290.7699,145.3187,295.4386,142.1244,298.6329,146.793,296.36,137.21" style="stroke:#181818;stroke-width:1.0;"/><text fill="#000000" font-family="sans-serif" font-size="13" lengthAdjust="spacing" textLength="18" x="278.5" y="243.5669">No</text></g><!--link ExpresionMatematica to Evaluada--><g id="link_ExpresionMatematica_Evaluada"><path d="M197.19,518.19 C195.91,533.03 196.88,551.67 206.5,565 C227.37,593.93 260.7552,606.1906 290.8652,612.4406 " fill="none" id="ExpresionMatematica-to-Evaluada" style="stroke:#181818;stroke-width:1.0;"/><polygon fill="#181818" points="296.74,613.66,288.7408,607.9143,291.8444,612.6438,287.1149,615.7474,296.74,613.66" style="stroke:#181818;stroke-width:1.0;"/><text fill="#000000" font-family="sans-serif" font-size="13" lengthAdjust="spacing" textLength="103" x="207.5" y="561.0669">Expresi&#243;n v&#225;lida</text></g><!--link Evaluada to SinEvaluarFormula--><g id="link_Evaluada_SinEvaluarFormula"><path d="M337.5,594.57 C337.5,569.37 337.5,528.94 337.5,494 C337.5,238 337.5,238 337.5,238 C337.5,201.79 325.4579,167.5056 314.6179,142.7656 " fill="none" id="Evaluada-to-SinEvaluarFormula" style="stroke:#181818;stroke-width:1.0;"/><polygon fill="#181818" points="312.21,137.27,312.1582,147.1187,314.2166,141.8497,319.4857,143.9081,312.21,137.27" style="stroke:#181818;stroke-width:1.0;"/><text fill="#000000" font-family="sans-serif" font-size="13" lengthAdjust="spacing" textLength="120" x="338.5" y="370.5669">Devolver resultado</text></g><!--link Evaluada to Error--><g id="link_Evaluada_Error"><path d="M346.39,645.47 C352.15,659.71 360.45,677.63 370.5,692 C378.17,702.97 383.8746,709.5317 393.1946,718.4917 " fill="none" id="Evaluada-to-Error" style="stroke:#181818;stroke-width:1.0;"/><polygon fill="#181818" points="397.52,722.65,393.8042,713.529,393.9155,719.1848,388.2598,719.2961,397.52,722.65" style="stroke:#181818;stroke-width:1.0;"/><text fill="#000000" font-family="sans-serif" font-size="13" lengthAdjust="spacing" textLength="114" x="371.5" y="688.0669">Expresi&#243;n inv&#225;lida</text></g><!--link Error to SinEvaluarFormula--><g id="link_Error_SinEvaluarFormula"><path d="M451.19,729.65 C464.69,720.16 480.33,707.1 490.5,692 C508.96,664.6 512.5,654.04 512.5,621 C512.5,238 512.5,238 512.5,238 C512.5,171.77 440.6119,141.3304 379.2919,126.5004 " fill="none" id="Error-to-SinEvaluarFormula" style="stroke:#181818;stroke-width:1.0;"/><polygon fill="#181818" points="373.46,125.09,381.2675,131.0935,378.3199,126.2653,383.1481,123.3177,373.46,125.09" style="stroke:#181818;stroke-width:1.0;"/><text fill="#000000" font-family="sans-serif" font-size="13" lengthAdjust="spacing" textLength="170" x="513.5" y="434.0669">Devolver mensaje de error</text></g><!--SRC=[XOz12i8m403lVSNYKV03WfvimOCY5Bo8XwLP9P9coxODuczyWAS-eH-pYKNKAjwMxCmasOttC9dC8TKsTcXgb8Gbhmr6WvF0zVFI7eLAL0XJs0WNB9bcYmA7jdde0_35tgBHwY4dFGyPvvhinGyMHhDHzCbwFpuNNQsxQOKLvLZfp3VIzlQL7lvW2ckElaL2FB3XLJtIDXPSU_N9wBdzLLwGO-D8e3DhKw7YToSMONblQ_kiX-NVT4wsn1E18Y1lt040]--></g></svg>