<?xml version="1.0" encoding="us-ascii" standalone="no"?><svg xmlns="http://www.w3.org/2000/svg" xmlns:xlink="http://www.w3.org/1999/xlink" contentStyleType="text/css" height="426px" preserveAspectRatio="none" style="width:674px;height:426px;background:#FFFFFF;" version="1.1" viewBox="0 0 674 426" width="674px" zoomAndPan="magnify"><defs/><g><ellipse cx="412.75" cy="20" fill="#222222" rx="10" ry="10" style="stroke:#222222;stroke-width:1.0;"/><rect fill="#F1F1F1" height="33.9688" rx="12.5" ry="12.5" style="stroke:#181818;stroke-width:0.5;" width="230" x="297.75" y="50"/><text fill="#000000" font-family="sans-serif" font-size="12" lengthAdjust="spacing" textLength="210" x="307.75" y="71.1387">Proporcionar f&#243;rmula matem&#225;tica</text><polygon fill="#F1F1F1" points="334.75,103.9688,490.75,103.9688,502.75,115.9688,490.75,127.9688,334.75,127.9688,322.75,115.9688,334.75,103.9688" style="stroke:#181818;stroke-width:0.5;"/><text fill="#000000" font-family="sans-serif" font-size="11" lengthAdjust="spacing" textLength="156" x="334.75" y="119.7769">F&#243;rmula comienza con "="?</text><text fill="#000000" font-family="sans-serif" font-size="11" lengthAdjust="spacing" textLength="11" x="311.75" y="113.3745">S&#237;</text><text fill="#000000" font-family="sans-serif" font-size="11" lengthAdjust="spacing" textLength="15" x="502.75" y="113.3745">No</text><rect fill="#F1F1F1" height="33.9688" rx="12.5" ry="12.5" style="stroke:#181818;stroke-width:0.5;" width="230" x="134.5" y="137.9688"/><text fill="#000000" font-family="sans-serif" font-size="12" lengthAdjust="spacing" textLength="210" x="144.5" y="159.1074">Llamar a evaluarFormula(formula)</text><polygon fill="#F1F1F1" points="200,191.9375,299,191.9375,311,203.9375,299,215.9375,200,215.9375,188,203.9375,200,191.9375" style="stroke:#181818;stroke-width:0.5;"/><text fill="#000000" font-family="sans-serif" font-size="11" lengthAdjust="spacing" textLength="99" x="200" y="207.7456">Expresi&#243;n v&#225;lida?</text><text fill="#000000" font-family="sans-serif" font-size="11" lengthAdjust="spacing" textLength="11" x="177" y="201.3433">S&#237;</text><text fill="#000000" font-family="sans-serif" font-size="11" lengthAdjust="spacing" textLength="15" x="311" y="201.3433">No</text><rect fill="#F1F1F1" height="33.9688" rx="12.5" ry="12.5" style="stroke:#181818;stroke-width:0.5;" width="209" x="28" y="225.9375"/><text fill="#000000" font-family="sans-serif" font-size="12" lengthAdjust="spacing" textLength="189" x="38" y="247.0762">Evaluar expresi&#243;n matem&#225;tica</text><rect fill="#F1F1F1" height="33.9688" rx="12.5" ry="12.5" style="stroke:#181818;stroke-width:0.5;" width="243" x="11" y="279.9063"/><text fill="#000000" font-family="sans-serif" font-size="12" lengthAdjust="spacing" textLength="223" x="21" y="301.0449">Devolver resultado de la evaluaci&#243;n</text><rect fill="#F1F1F1" height="33.9688" rx="12.5" ry="12.5" style="stroke:#181818;stroke-width:0.5;" width="185" x="274" y="225.9375"/><text fill="#000000" font-family="sans-serif" font-size="12" lengthAdjust="spacing" textLength="165" x="284" y="247.0762">Devolver mensaje de error</text><polygon fill="#F1F1F1" points="249.5,319.875,261.5,331.875,249.5,343.875,237.5,331.875,249.5,319.875" style="stroke:#181818;stroke-width:0.5;"/><rect fill="#F1F1F1" height="33.9688" rx="12.5" ry="12.5" style="stroke:#181818;stroke-width:0.5;" width="174" x="489" y="137.9688"/><text fill="#000000" font-family="sans-serif" font-size="12" lengthAdjust="spacing" textLength="154" x="499" y="159.1074">Devolver f&#243;rmula original</text><polygon fill="#F1F1F1" points="412.75,349.875,424.75,361.875,412.75,373.875,400.75,361.875,412.75,349.875" style="stroke:#181818;stroke-width:0.5;"/><ellipse cx="412.75" cy="404.875" fill="none" rx="11" ry="11" style="stroke:#222222;stroke-width:1.0;"/><ellipse cx="412.75" cy="404.875" fill="#222222" rx="6" ry="6" style="stroke:#222222;stroke-width:1.0;"/><line style="stroke:#181818;stroke-width:1.0;" x1="412.75" x2="412.75" y1="30" y2="50"/><polygon fill="#181818" points="408.75,40,412.75,50,416.75,40,412.75,44" style="stroke:#181818;stroke-width:1.0;"/><line style="stroke:#181818;stroke-width:1.0;" x1="132.5" x2="132.5" y1="259.9063" y2="279.9063"/><polygon fill="#181818" points="128.5,269.9063,132.5,279.9063,136.5,269.9063,132.5,273.9063" style="stroke:#181818;stroke-width:1.0;"/><line style="stroke:#181818;stroke-width:1.0;" x1="188" x2="132.5" y1="203.9375" y2="203.9375"/><line style="stroke:#181818;stroke-width:1.0;" x1="132.5" x2="132.5" y1="203.9375" y2="225.9375"/><polygon fill="#181818" points="128.5,215.9375,132.5,225.9375,136.5,215.9375,132.5,219.9375" style="stroke:#181818;stroke-width:1.0;"/><line style="stroke:#181818;stroke-width:1.0;" x1="311" x2="366.5" y1="203.9375" y2="203.9375"/><line style="stroke:#181818;stroke-width:1.0;" x1="366.5" x2="366.5" y1="203.9375" y2="225.9375"/><polygon fill="#181818" points="362.5,215.9375,366.5,225.9375,370.5,215.9375,366.5,219.9375" style="stroke:#181818;stroke-width:1.0;"/><line style="stroke:#181818;stroke-width:1.0;" x1="132.5" x2="132.5" y1="313.875" y2="331.875"/><line style="stroke:#181818;stroke-width:1.0;" x1="132.5" x2="237.5" y1="331.875" y2="331.875"/><polygon fill="#181818" points="227.5,327.875,237.5,331.875,227.5,335.875,231.5,331.875" style="stroke:#181818;stroke-width:1.0;"/><line style="stroke:#181818;stroke-width:1.0;" x1="366.5" x2="366.5" y1="259.9063" y2="331.875"/><line style="stroke:#181818;stroke-width:1.0;" x1="366.5" x2="261.5" y1="331.875" y2="331.875"/><polygon fill="#181818" points="271.5,327.875,261.5,331.875,271.5,335.875,267.5,331.875" style="stroke:#181818;stroke-width:1.0;"/><line style="stroke:#181818;stroke-width:1.0;" x1="249.5" x2="249.5" y1="171.9375" y2="191.9375"/><polygon fill="#181818" points="245.5,181.9375,249.5,191.9375,253.5,181.9375,249.5,185.9375" style="stroke:#181818;stroke-width:1.0;"/><line style="stroke:#181818;stroke-width:1.0;" x1="322.75" x2="249.5" y1="115.9688" y2="115.9688"/><line style="stroke:#181818;stroke-width:1.0;" x1="249.5" x2="249.5" y1="115.9688" y2="137.9688"/><polygon fill="#181818" points="245.5,127.9688,249.5,137.9688,253.5,127.9688,249.5,131.9688" style="stroke:#181818;stroke-width:1.0;"/><line style="stroke:#181818;stroke-width:1.0;" x1="502.75" x2="576" y1="115.9688" y2="115.9688"/><line style="stroke:#181818;stroke-width:1.0;" x1="576" x2="576" y1="115.9688" y2="137.9688"/><polygon fill="#181818" points="572,127.9688,576,137.9688,580,127.9688,576,131.9688" style="stroke:#181818;stroke-width:1.0;"/><line style="stroke:#181818;stroke-width:1.0;" x1="249.5" x2="249.5" y1="343.875" y2="361.875"/><line style="stroke:#181818;stroke-width:1.0;" x1="249.5" x2="400.75" y1="361.875" y2="361.875"/><polygon fill="#181818" points="390.75,357.875,400.75,361.875,390.75,365.875,394.75,361.875" style="stroke:#181818;stroke-width:1.0;"/><line style="stroke:#181818;stroke-width:1.0;" x1="576" x2="576" y1="171.9375" y2="361.875"/><line style="stroke:#181818;stroke-width:1.0;" x1="576" x2="424.75" y1="361.875" y2="361.875"/><polygon fill="#181818" points="434.75,357.875,424.75,361.875,434.75,365.875,430.75,361.875" style="stroke:#181818;stroke-width:1.0;"/><line style="stroke:#181818;stroke-width:1.0;" x1="412.75" x2="412.75" y1="83.9688" y2="103.9688"/><polygon fill="#181818" points="408.75,93.9688,412.75,103.9688,416.75,93.9688,412.75,97.9688" style="stroke:#181818;stroke-width:1.0;"/><line style="stroke:#181818;stroke-width:1.0;" x1="412.75" x2="412.75" y1="373.875" y2="393.875"/><polygon fill="#181818" points="408.75,383.875,412.75,393.875,416.75,383.875,412.75,387.875" style="stroke:#181818;stroke-width:1.0;"/><!--SRC=[NP11QiD0303l-mgHa_s5cD1BarC9WRn0s7AhebqPxTg4_YOFw2bFs8_LQvEcpKaBcXd4neIMtFPaEgYrh04D-dmpFmg2nqG-NnEts3ZkeJhSDwrwfl1L7W4skyrB3Uc30bJd_5qxWEsRe9zJ23IXZ6W7NSIgNsVTp50fxY-3KUHy2p3bgt27pwavjbyRG0_utsaBz4gJoaG6Cp9AmawX8v3x1MtH2aeI2QgZra-Qfn3nauf4PceB6phktL_ZmV_-aXg_Sq1ft8h7fCCF]--></g></svg>